<svg width="24" height="24" viewBox="0 0 24 24" fill="none" xmlns="http://www.w3.org/2000/svg">
<g transform="translate(2.5, 2)">
<g>
<path d="M8.18597 12.71C8.18597 12.2405 7.80541 11.86 7.33597 11.86C6.86652 11.86 6.48596 12.2405 6.48596 12.71V13.8211C6.48596 14.2905 6.86652 14.6711 7.33597 14.6711C7.80541 14.6711 8.18597 14.2905 8.18597 13.8211V12.71Z" fill="black"/>
<path d="M11.668 11.86C12.1375 11.86 12.518 12.2405 12.518 12.71V13.8211C12.518 14.2905 12.1375 14.6711 11.668 14.6711C11.1986 14.6711 10.818 14.2905 10.818 13.8211V12.71C10.818 12.2405 11.1986 11.86 11.668 11.86Z" fill="black"/>
<path fill-rule="evenodd" clip-rule="evenodd" d="M10.35 5.99158C11.6245 5.62366 12.5565 4.44845 12.5565 3.05556C12.5565 1.36802 11.1885 0 9.50091 0C7.81336 0 6.44534 1.36802 6.44534 3.05556C6.44534 4.44782 7.3765 5.62259 8.65003 5.99108L8.65003 7.5H6.25003C2.79823 7.5 0 10.2982 0 13.75C0 17.2018 2.79823 20 6.25002 20H12.7501C16.2018 20 19.0001 17.2018 19.0001 13.75C19.0001 10.2982 16.2018 7.5 12.7501 7.5H10.35V5.99158ZM10.8565 3.05556C10.8565 3.80421 10.2496 4.41111 9.50091 4.41111C8.75225 4.41111 8.14534 3.80421 8.14534 3.05556C8.14534 2.3069 8.75225 1.7 9.50091 1.7C10.2496 1.7 10.8565 2.3069 10.8565 3.05556ZM6.25003 9.2C3.73712 9.2 1.70001 11.2371 1.70001 13.75C1.70001 16.2629 3.73712 18.3 6.25002 18.3H12.7501C15.263 18.3 17.3001 16.2629 17.3001 13.75C17.3001 11.2371 15.263 9.2 12.7501 9.2H6.25003Z" fill="black"/>
</g>
</g>
</svg>
