<svg width="24" height="24" viewBox="0 0 24 24" fill="none" xmlns="http://www.w3.org/2000/svg">
<g transform="translate(3.0021, 3.5001)">
<g>
<path fill-rule="evenodd" clip-rule="evenodd" d="M15.7371 8.49989L2.12757 2.1782L4.6618 8.49989L2.12757 14.8216L15.7371 8.49989ZM17.9917 8.49989C18.0284 8.94197 17.8259 9.40409 17.3195 9.63931L1.72468 16.8832C0.729879 17.3453 -0.317627 16.3524 0.0905169 15.3343L2.83028 8.49989L0.0905169 1.66547C-0.317627 0.647338 0.729879 -0.345494 1.72468 0.116595L17.3195 7.36047C17.8259 7.59568 18.0284 8.05781 17.9917 8.49989Z" fill="black"/>
<path fill-rule="evenodd" clip-rule="evenodd" d="M2.49029 7.65391L2.83028 8.49989L2.48735 9.35391H7.46266C7.9321 9.35391 8.31266 8.97335 8.31266 8.50391C8.31266 8.03446 7.9321 7.65391 7.46266 7.65391H2.49029Z" fill="#0E0F10"/>
</g>
</g>
</svg>
