<svg width="24" height="24" viewBox="0 0 24 24" fill="none" xmlns="http://www.w3.org/2000/svg">
<g transform="translate(2, 2)">
<g>
<path fill-rule="evenodd" clip-rule="evenodd" d="M10 18.3C14.584 18.3 18.3001 14.584 18.3001 10C18.3001 5.41604 14.584 1.7 10 1.7C5.41605 1.7 1.7 5.41604 1.7 10C1.7 14.584 5.41605 18.3 10 18.3ZM10 20C15.5229 20 20.0001 15.5228 20.0001 10C20.0001 4.47715 15.5229 0 10 0C4.47716 0 0 4.47715 0 10C0 15.5228 4.47716 20 10 20Z" fill="black"/>
<path d="M9.2968 6.88249C9.62719 6.37275 10.3732 6.37275 10.7036 6.88249L12.4904 9.63934L13.8899 8.43978C14.552 7.87228 15.5327 8.56728 15.2166 9.37998L13.8452 12.9064C13.706 13.2644 13.3613 13.5002 12.9772 13.5002H7.02316C6.63907 13.5002 6.29437 13.2644 6.15515 12.9064L4.78376 9.37998C4.4677 8.56726 5.4484 7.8723 6.11046 8.43978L7.50995 9.63934L9.2968 6.88249Z" fill="black"/>
</g>
</g>
</svg>
