<svg width="24" height="24" viewBox="0 0 24 24" fill="none" xmlns="http://www.w3.org/2000/svg">
<g transform="translate(3.4357, 3)">
<g>
<path d="M6.71324 6.46826C7.18268 6.46826 7.56323 6.84882 7.56323 7.31826V12.3808C7.56323 12.8502 7.18268 13.2308 6.71324 13.2308C6.2438 13.2308 5.86324 12.8502 5.86324 12.3808V7.31826C5.86324 6.84882 6.2438 6.46826 6.71324 6.46826Z" fill="black"/>
<path d="M11.2429 7.3124C11.2429 6.84296 10.8623 6.4624 10.3929 6.4624C9.92346 6.4624 9.54291 6.84296 9.54291 7.3124V12.3749C9.54291 12.8444 9.92346 13.2249 10.3929 13.2249C10.8623 13.2249 11.2429 12.8444 11.2429 12.3749V7.3124Z" fill="black"/>
<path fill-rule="evenodd" clip-rule="evenodd" d="M6.31442 0C5.6931 0 5.18942 0.503682 5.18942 1.12501V2.1499H0.849994C0.380555 2.1499 0 2.53046 0 2.9999C0 3.46934 0.380555 3.8499 0.849994 3.8499H1.37322L2.28817 15.9201C2.37711 17.0934 3.35506 18.0001 4.53173 18.0001H12.5973C13.7739 18.0001 14.7519 17.0934 14.8408 15.9201L15.7558 3.8499H16.2786C16.7481 3.8499 17.1286 3.46934 17.1286 2.9999C17.1286 2.53046 16.7481 2.1499 16.2786 2.1499H11.9395V1.12501C11.9395 0.503682 11.4358 0 10.8145 0H6.31442ZM6.88941 1.7V2.05H10.2395V1.7H6.88941ZM3.08567 3.95L3.98329 15.7916C4.00503 16.0785 4.24409 16.3001 4.53173 16.3001H12.5973C12.8849 16.3001 13.124 16.0785 13.1457 15.7916L14.0433 3.95H3.08567Z" fill="black"/>
</g>
</g>
</svg>
