<svg width="24" height="24" viewBox="0 0 24 24" fill="none" xmlns="http://www.w3.org/2000/svg">
<g transform="translate(2.5, 2.5)">
<path fill-rule="evenodd" clip-rule="evenodd" d="M7.6665 1.91856C6.77986 2.133 5.933 2.50243 5.16658 3.01454C3.88387 3.87161 2.88412 5.0898 2.29375 6.51507C1.70339 7.94033 1.54892 9.50865 1.84989 11.0217C2.15085 12.5348 2.89373 13.9246 3.98459 15.0154C5.07544 16.1063 6.46527 16.8492 7.97833 17.1501C9.49139 17.4511 11.0597 17.2966 12.485 16.7063C13.9103 16.1159 15.1285 15.1161 15.9855 13.8334C16.4976 13.067 16.8671 12.2202 17.0815 11.3335C16.0871 11.8593 14.9706 12.1415 13.8251 12.1415C11.9774 12.1415 10.2055 11.4075 8.899 10.101C7.59253 8.79457 6.85856 7.02262 6.85856 5.175C6.85856 4.02946 7.1407 2.91302 7.6665 1.91856ZM4.2221 1.60104C5.78438 0.557165 7.62111 0 9.50004 0C9.84384 0 10.1538 0.207096 10.2853 0.524719C10.4169 0.842342 10.3442 1.20794 10.1011 1.45104C9.11343 2.4387 8.55856 3.77824 8.55856 5.175C8.55856 6.57175 9.11343 7.9113 10.1011 8.89896C11.0887 9.88661 12.4283 10.4415 13.8251 10.4415C15.2218 10.4415 16.5614 9.88661 17.549 8.89896C17.7921 8.65586 18.1577 8.58314 18.4754 8.7147C18.793 8.84626 19.0001 9.1562 19.0001 9.5C19.0001 11.3789 18.4429 13.2156 17.399 14.7779C16.3552 16.3402 14.8715 17.5578 13.1355 18.2769C11.3996 18.9959 9.4895 19.184 7.64668 18.8175C5.80385 18.4509 4.1111 17.5461 2.7825 16.2175C1.4539 14.8889 0.549106 13.1962 0.182545 11.3534C-0.184016 9.51054 0.00411619 7.6004 0.723152 5.86451C1.44219 4.12861 2.65983 2.64491 4.2221 1.60104Z" fill="black"/>
</g>
</svg>
