<svg width="24" height="24" viewBox="0 0 24 24" fill="none" xmlns="http://www.w3.org/2000/svg">
<g transform="translate(2, 2)">
<g>
<path fill-rule="evenodd" clip-rule="evenodd" d="M10 18.3C14.584 18.3 18.3001 14.584 18.3001 10C18.3001 5.41604 14.584 1.7 10 1.7C5.41606 1.7 1.70001 5.41604 1.70001 10C1.70001 14.584 5.41606 18.3 10 18.3ZM10 20C15.5229 20 20.0001 15.5228 20.0001 10C20.0001 4.47715 15.5229 0 10 0C4.47717 0 0 4.47715 0 10C0 15.5228 4.47717 20 10 20Z" fill="black"/>
<path d="M12.364 14.2075C11.018 14.2075 10.0323 13.588 9.6944 12.8614C9.61555 12.7037 9.58175 12.5629 9.58175 12.4165C9.58175 12.0391 9.8352 11.7519 10.2858 11.7519C10.6293 11.7519 10.8208 11.904 11.0743 12.1856C11.4516 12.6418 11.8121 12.8614 12.426 12.8614C13.6256 12.8614 14.1776 11.7181 14.1832 10.0228V9.93271H14.1494C13.8566 10.7156 13.0568 11.2506 11.9867 11.2506C10.4829 11.2506 9.28888 10.1805 9.28888 8.59789C9.28888 6.91389 10.6068 5.71425 12.4204 5.71425C13.7157 5.71425 14.7408 6.31688 15.3322 7.51089C15.6419 8.13606 15.8109 8.94145 15.8109 9.89328C15.8109 12.5967 14.5211 14.2075 12.364 14.2075ZM12.426 9.98903C13.2877 9.98903 13.9354 9.38639 13.9354 8.55847C13.9354 7.71928 13.2821 7.07159 12.4429 7.07159C11.6037 7.07159 10.9447 7.70802 10.9447 8.53031C10.9447 9.38076 11.5755 9.98903 12.426 9.98903Z" fill="black"/>
<path d="M7.11633 14.145C6.61507 14.145 6.27151 13.807 6.27151 13.2945V7.47654H6.23771L5.04933 8.30446C4.89163 8.4171 4.77336 8.45653 4.59876 8.45653C4.2552 8.45653 4.00175 8.20871 4.00175 7.84826C4.00175 7.58918 4.10313 7.39769 4.36784 7.21183L5.97863 6.09667C6.37289 5.82633 6.64323 5.77564 6.99242 5.77564C7.59506 5.77564 7.95552 6.14172 7.95552 6.72747V13.2945C7.95552 13.807 7.61759 14.145 7.11633 14.145Z" fill="black"/>
</g>
</g>
</svg>
