<svg width="24" height="24" viewBox="0 0 24 24" fill="none" xmlns="http://www.w3.org/2000/svg">
<g transform="translate(2.05, 2.05)">
<path d="M11.2504 1.3C11.2504 0.58203 10.6684 0 9.95039 0C9.23242 0 8.65039 0.58203 8.65039 1.3V8.6499H1.3C0.58203 8.6499 0 9.23193 0 9.9499C0 10.6679 0.58203 11.2499 1.3 11.2499H8.65039V18.6C8.65039 19.318 9.23242 19.9 9.95039 19.9C10.6684 19.9 11.2504 19.318 11.2504 18.6V11.2499H18.6001C19.318 11.2499 19.9001 10.6679 19.9001 9.9499C19.9001 9.23193 19.318 8.6499 18.6001 8.6499H11.2504V1.3Z" fill="black"/>
</g>
</svg>
