<svg width="24" height="24" viewBox="0 0 24 24" fill="none" xmlns="http://www.w3.org/2000/svg">
<g transform="translate(3.9736, 3)">
<path fill-rule="evenodd" clip-rule="evenodd" d="M0.926253 0.00306858C0.902277 0.00103668 0.878017 0 0.853516 0C0.384074 0 0.0035156 0.380558 0.0035156 0.85V0.915939C0.00118749 0.943781 0 0.971947 0 1.00039V10.5718C0 10.6002 0.00118749 10.6284 0.0035156 10.6562V17.15C0.0035156 17.6194 0.384074 18 0.853516 18C1.32296 18 1.70352 17.6194 1.70352 17.15V11.5718H15.0513C15.8286 11.5718 16.3087 10.7238 15.9087 10.0573L13.5003 6.04335C13.4053 5.885 13.4053 5.68718 13.5003 5.52884L15.9087 1.5149C16.3087 0.848376 15.8286 0.00039053 15.0513 0.00039053H1C0.975196 0.00039053 0.950603 0.00129357 0.926253 0.00306858ZM1.70352 9.87179V1.70039H13.8149L12.0426 4.65417C11.6245 5.35089 11.6245 6.2213 12.0426 6.91801L13.8149 9.87179H1.70352Z" fill="black"/>
</g>
</svg>
