<svg width="24" height="24" viewBox="0 0 24 24" fill="none" xmlns="http://www.w3.org/2000/svg">
<g transform="translate(2.355, 2.5)">
<g>
<path d="M5.89453 10.75C6.58489 10.75 7.14453 10.1904 7.14453 9.5C7.14453 8.80964 6.58489 8.25 5.89453 8.25C5.20418 8.25 4.64453 8.80964 4.64453 9.5C4.64453 10.1904 5.20418 10.75 5.89453 10.75Z" fill="black"/>
<path d="M9.64453 10.75C10.3349 10.75 10.8945 10.1904 10.8945 9.5C10.8945 8.80964 10.3349 8.25 9.64453 8.25C8.95418 8.25 8.39453 8.80964 8.39453 9.5C8.39453 10.1904 8.95418 10.75 9.64453 10.75Z" fill="black"/>
<path d="M14.6445 9.5C14.6445 10.1904 14.0849 10.75 13.3945 10.75C12.7042 10.75 12.1445 10.1904 12.1445 9.5C12.1445 8.80964 12.7042 8.25 13.3945 8.25C14.0849 8.25 14.6445 8.80964 14.6445 9.5Z" fill="black"/>
<path fill-rule="evenodd" clip-rule="evenodd" d="M17.1262 15.166C18.3034 13.5841 19.0001 11.6234 19.0001 9.5C19.0001 4.25329 14.7468 0 9.50004 0C4.25331 0 0 4.25329 0 9.5C0 14.7467 4.25331 19 9.50004 19H18.288C19.1485 19 19.6072 17.9854 19.0387 17.3394L17.1262 15.166ZM15.7624 14.1511L14.9404 15.2556L16.7396 17.3H9.50004C5.19219 17.3 1.7 13.8078 1.7 9.5C1.7 5.19219 5.19219 1.7 9.50004 1.7C13.8079 1.7 17.3001 5.19219 17.3001 9.5C17.3001 11.2454 16.7288 12.8525 15.7624 14.1511Z" fill="black"/>
</g>
</g>
</svg>
