<svg width="24" height="24" viewBox="0 0 24 24" fill="none" xmlns="http://www.w3.org/2000/svg">
<g transform="translate(1.216, 3.325)">
<g>
<path fill-rule="evenodd" clip-rule="evenodd" d="M5.61591 0H15.954C16.9524 0 17.7929 0.675842 18.043 1.59497C19.9868 1.76593 21.5679 2.55953 21.5679 5.32948C21.5679 7.74241 20.2721 8.85958 17.9126 9.06757C17.1336 12.281 14.238 14.6674 10.785 14.6674C7.33453 14.6674 4.44065 12.2846 3.65909 9.07479C1.65437 8.92837 0 8.16291 0 5.32948C0 2.96152 1.24791 1.84147 3.52451 1.60397C3.77155 0.680258 4.61429 0 5.61591 0ZM5.61591 1.7H15.954C16.2107 1.7 16.4187 1.90808 16.4187 2.16472V7.33371C16.4187 10.4451 13.8964 12.9674 10.785 12.9674C7.67349 12.9674 5.15117 10.4451 5.15117 7.33371V2.16472C5.15117 1.90808 5.35923 1.7 5.61591 1.7ZM3.45117 3.12403C2.78662 3.21924 2.363 3.40274 2.10221 3.60863C1.79488 3.85125 1.49999 4.29479 1.49999 5.32948C1.49999 6.57365 1.88356 6.97292 2.18813 7.16942C2.47669 7.35559 2.89108 7.48213 3.45426 7.54864C3.45221 7.47725 3.45117 7.4056 3.45117 7.33371V3.12403ZM18.116 7.53503C18.781 7.43985 19.2048 7.2563 19.4657 7.05034C19.773 6.80771 20.0679 6.36418 20.0679 5.32948C20.0679 4.08531 19.6843 3.68604 19.3797 3.48955C19.0921 3.30394 18.6793 3.17761 18.1187 3.11093V7.33371C18.1187 7.40103 18.1178 7.46814 18.116 7.53503Z" fill="black"/>
<path d="M7.24219 16.4999C7.24219 16.0305 7.62275 15.6499 8.09219 15.6499H13.4842C13.9537 15.6499 14.3342 16.0305 14.3342 16.4999C14.3342 16.9693 13.9537 17.3499 13.4842 17.3499H8.09219C7.62275 17.3499 7.24219 16.9693 7.24219 16.4999Z" fill="black"/>
</g>
</g>
</svg>
