<svg width="24" height="24" viewBox="0 0 24 24" fill="none" xmlns="http://www.w3.org/2000/svg">
<g transform="translate(3, 3)">
<path fill-rule="evenodd" clip-rule="evenodd" d="M0 1.6C0 0.716346 0.716341 0 1.59999 0H7.25355V1.7H1.69999V7.25352H0V1.6ZM16.2999 1.7H10.7464V0H16.3999C17.2836 0 17.9999 0.716343 17.9999 1.6V7.25352H16.2999V1.7ZM1.69999 16.2999V10.7464H0V16.3999C0 17.2835 0.716345 17.9999 1.6 17.9999H7.25355V16.2999H1.69999ZM16.2999 16.2999V10.7464H17.9999V16.3999C17.9999 17.2835 17.2836 17.9999 16.3999 17.9999H10.7464V16.2999H16.2999Z" fill="black"/>
</g>
</svg>
