<svg width="24" height="24" viewBox="0 0 24 24" fill="none" xmlns="http://www.w3.org/2000/svg">
<g transform="translate(2.5, 2.5)">
<g>
<path d="M12.2562 11.1723C12.5336 10.9382 12.9591 10.9611 13.2066 11.2235C13.4542 11.4859 13.4299 11.8885 13.1525 12.1226C10.7085 14.1858 8.18024 14.1858 5.84173 12.1121C5.57048 11.8716 5.55671 11.4686 5.81096 11.212C6.06521 10.9554 6.4912 10.9423 6.76245 11.1829C8.58707 12.8008 10.327 12.8008 12.2562 11.1723Z" fill="black"/>
<path d="M7.14353 6.88867H7.28987C7.75458 6.88867 8.13131 7.24506 8.13131 7.68469V8.68836C8.13131 9.12799 7.75458 9.48438 7.28987 9.48438H7.14353C6.67881 9.48438 6.30209 9.12799 6.30209 8.68836V7.68469C6.30209 7.24506 6.67881 6.88867 7.14353 6.88867Z" fill="black"/>
<path d="M11.7166 6.88867H11.8629C12.3276 6.88867 12.7044 7.24506 12.7044 7.68469V8.68836C12.7044 9.12799 12.3276 9.48438 11.8629 9.48438H11.7166C11.2519 9.48438 10.8751 9.12799 10.8751 8.68836V7.68469C10.8751 7.24506 11.2519 6.88867 11.7166 6.88867Z" fill="black"/>
<path fill-rule="evenodd" clip-rule="evenodd" d="M12.2298 0H6.33336C2.83554 0 0 2.83553 0 6.33333V12.6667C0 16.1645 2.83554 19 6.33336 19H12.6668C16.1646 19 19.0001 16.1645 19.0001 12.6667V6.7703L12.2298 0ZM6.33336 1.7H11.3649V3.67574C11.3649 5.92032 13.1845 7.73991 15.4291 7.73991H17.3001V12.6667C17.3001 15.2256 15.2257 17.3 12.6668 17.3H6.33336C3.77443 17.3 1.70001 15.2256 1.70001 12.6667V6.33333C1.70001 3.77441 3.77443 1.7 6.33336 1.7Z" fill="black"/>
</g>
</g>
</svg>
