<svg width="24" height="24" viewBox="0 0 24 24" fill="none" xmlns="http://www.w3.org/2000/svg">
<g transform="translate(3, 3)">
<path fill-rule="evenodd" clip-rule="evenodd" d="M0 1.31C0 0.586559 0.586455 0 1.31 0H7.35V2.6H2.6V7.34995H0V1.31ZM15.4 2.6H10.65V0H16.69C17.4134 0 18 0.586458 18 1.31V7.34995H15.4V2.6ZM2.6 15.3999V10.6499H0V16.6899C0 17.4135 0.586604 17.9999 1.31 17.9999H7.35V15.3999H2.6ZM15.4 15.3999V10.6499H18V16.6899C18 17.4134 17.4135 17.9999 16.69 17.9999H10.65V15.3999H15.4Z" fill="black"/>
</g>
</svg>
