<svg width="24" height="24" viewBox="0 0 24 24" fill="none" xmlns="http://www.w3.org/2000/svg">
<g transform="translate(2.364, 2.0064)">
<path id="Vector" fill-rule="evenodd" clip-rule="evenodd" d="M8.40063 19.905C8.8121 19.954 9.23429 19.9838 9.63635 19.985C10.0384 19.9838 10.4606 19.954 10.8721 19.905C11.0305 19.8863 11.1842 19.8534 11.3319 19.8077C12.2091 19.5362 12.8723 18.8109 13.0521 17.895L13.2121 17.095C13.5121 16.945 13.8121 16.775 14.1021 16.595L14.1421 16.575L14.9821 16.865C16.0121 17.215 17.1421 16.875 17.8121 16.015C18.3021 15.365 18.7221 14.665 19.0521 13.925C19.0621 13.925 19.0621 13.905 19.0621 13.905C19.4921 12.895 19.2121 11.705 18.3621 10.995L17.7321 10.475C17.7521 10.305 17.7521 10.155 17.7521 9.995C17.7521 9.91519 17.7496 9.83537 17.7471 9.75555C17.7446 9.67568 17.7421 9.59488 17.7421 9.515L18.3721 8.995C19.2221 8.285 19.5121 7.075 19.0621 6.065C18.7421 5.325 18.3221 4.625 17.8221 3.975C17.1621 3.125 16.0221 2.775 14.9921 3.125L14.1421 3.405C13.8521 3.215 13.5421 3.035 13.2221 2.885L13.0721 2.085C12.8621 1.015 11.9821 0.205003 10.8921 0.0750031C10.4701 0.0247736 10.0533 -0.000225851 9.63635 1.53721e-06C9.21944 -0.000225851 8.80256 0.0247736 8.38063 0.0750031C7.29063 0.205003 6.41063 1.015 6.20063 2.085L6.05062 2.885C5.73062 3.035 5.42062 3.215 5.13062 3.405L4.28062 3.125C3.25061 2.775 2.11061 3.125 1.45061 3.975C0.950603 4.625 0.530602 5.325 0.2106 6.065C-0.2394 7.075 0.0505989 8.285 0.900602 8.995L1.53061 9.515C1.53061 9.595 1.52811 9.675 1.5256 9.755C1.52311 9.83494 1.52061 9.91506 1.52061 9.995C1.52061 10.155 1.52061 10.305 1.54061 10.475L0.910602 10.995C0.0605991 11.705 -0.219402 12.895 0.2106 13.905C0.2106 13.905 0.210602 13.925 0.220602 13.925C0.550602 14.665 0.970603 15.365 1.46061 16.015C2.13061 16.875 3.26061 17.215 4.29062 16.865L5.13062 16.575L5.17062 16.595C5.46062 16.775 5.76062 16.945 6.06062 17.095L6.22062 17.895C6.40037 18.8109 7.06365 19.5362 7.94082 19.8077C8.08846 19.8534 8.24216 19.8863 8.40063 19.905ZM9.63635 1.70005C9.28649 1.69982 8.93665 1.72083 8.58159 1.76308C8.21686 1.80674 7.93778 2.07248 7.8698 2.40735L7.7215 3.1983C7.6207 3.73589 7.2674 4.19214 6.77215 4.42429C6.54081 4.53273 6.30161 4.67017 6.06225 4.82699C5.6292 5.11071 5.09047 5.18163 4.59874 5.01966L3.74874 4.73966L3.73367 4.73461C3.39634 4.61999 3.01442 4.73505 2.79522 5.0152C2.37533 5.56165 2.03035 6.13989 1.77095 6.73976L1.76343 6.75687C1.62843 7.05988 1.71317 7.45658 1.98773 7.68803L1.99041 7.69028L2.61275 8.20392C3.00401 8.52686 3.2306 9.00768 3.2306 9.515C3.2306 9.62185 3.22738 9.72459 3.22504 9.79953L3.22477 9.8081C3.22213 9.89254 3.2206 9.94599 3.2206 9.995C3.2206 10.1634 3.22219 10.2189 3.22895 10.2764C3.29643 10.8499 3.06813 11.4185 2.62275 11.7861L2.00041 12.2997L1.99775 12.302C1.73611 12.5225 1.64238 12.8938 1.76355 13.2114L1.7732 13.2326C2.04506 13.8422 2.39425 14.4275 2.80817 14.9785C3.03532 15.2631 3.40344 15.3697 3.74079 15.2564L4.57585 14.9681C5.00798 14.8189 5.48199 14.85 5.89089 15.0545L5.93089 15.0745C5.97744 15.0978 6.0229 15.1232 6.06713 15.1506C6.31932 15.3071 6.57374 15.4509 6.82088 15.5745C7.2901 15.8091 7.62472 16.2472 7.7276 16.7616L7.88761 17.5616L7.88879 17.5676C7.95604 17.9102 8.23021 18.173 8.60015 18.2168L8.60159 18.2169C8.97043 18.2608 9.30752 18.2926 9.63635 18.2926C9.96518 18.2926 10.3023 18.2608 10.6711 18.2169L10.6726 18.2168C11.0425 18.173 11.3167 17.9102 11.3839 17.5676L11.3851 17.5616L11.5451 16.7616C11.648 16.2472 11.9826 15.8091 12.4518 15.5745C12.699 15.4509 12.9534 15.3071 13.2056 15.1506C13.2498 15.1232 13.2953 15.0978 13.3418 15.0745L13.3818 15.0545C13.7907 14.85 14.2647 14.8189 14.6969 14.9681L15.5319 15.2564C15.8693 15.3697 16.2374 15.2631 16.4645 14.9785C16.8785 14.4275 17.2276 13.8422 17.4995 13.2326L17.5091 13.2114C17.6303 12.8938 17.5366 12.5225 17.275 12.302L17.2723 12.2997L16.6499 11.7861C16.2046 11.4185 15.9763 10.8499 16.0437 10.2764C16.0505 10.2189 16.0521 10.1634 16.0521 9.995C16.0521 9.94599 16.0506 9.89254 16.0479 9.8081L16.0477 9.79965C16.0453 9.72471 16.0421 9.62185 16.0421 9.515C16.0421 9.00768 16.2687 8.52686 16.6599 8.20392L17.2823 7.69028L17.285 7.68803C17.5595 7.45658 17.6443 7.05988 17.5093 6.75687L17.5018 6.73976C17.2424 6.13989 16.8974 5.56165 16.4775 5.0152C16.2583 4.73505 15.8764 4.61999 15.539 4.73461L15.524 4.73966L14.674 5.01966C14.1822 5.18163 13.6435 5.11071 13.2105 4.82699C12.9711 4.67017 12.7319 4.53273 12.5006 4.42429C12.0053 4.19214 11.652 3.73589 11.5512 3.1983L11.4029 2.40735C11.3349 2.07248 11.0558 1.80674 10.6911 1.76308C10.3361 1.72083 9.98622 1.69982 9.63635 1.70005Z" fill="black"/>
</g>
<g transform="translate(8.2968, 8.304)">
<path id="Vector" fill-rule="evenodd" clip-rule="evenodd" d="M3.7016 1.7C2.59613 1.7 1.69999 2.59615 1.69999 3.70159C1.69999 4.80704 2.59613 5.70319 3.7016 5.70319C4.80707 5.70319 5.70321 4.80704 5.70321 3.70159C5.70321 2.59615 4.80707 1.7 3.7016 1.7ZM0 3.70159C0 1.65725 1.65727 0 3.7016 0C5.74593 0 7.4032 1.65725 7.4032 3.70159C7.4032 5.74594 5.74593 7.40319 3.7016 7.40319C1.65727 7.40319 0 5.74594 0 3.70159Z" fill="black"/>
</g>
</svg>
