<svg width="24" height="24" viewBox="0 0 24 24" fill="none" xmlns="http://www.w3.org/2000/svg">
<g transform="translate(1.4499, 1.45)">
<g>
<path d="M11.852 6.23985C11.852 5.52188 11.2699 4.93985 10.552 4.93985C9.83398 4.93985 9.25195 5.52188 9.25195 6.23985V11.8502H14.8623C15.5802 11.8502 16.1623 11.2681 16.1623 10.5502C16.1623 9.83218 15.5802 9.25015 14.8623 9.25015H11.852V6.23985Z" fill="black"/>
<path fill-rule="evenodd" clip-rule="evenodd" d="M10.55 0C4.72341 0 0 4.72339 0 10.55C0 16.3766 4.72341 21.1 10.55 21.1C16.3766 21.1 21.1001 16.3766 21.1001 10.55C21.1001 4.72339 16.3766 0 10.55 0ZM2.6 10.55C2.6 6.15934 6.15935 2.6 10.55 2.6C14.9407 2.6 18.5001 6.15934 18.5001 10.55C18.5001 14.9407 14.9407 18.5 10.55 18.5C6.15935 18.5 2.6 14.9407 2.6 10.55Z" fill="black"/>
</g>
</g>
</svg>
