<svg width="24" height="24" viewBox="0 0 24 24" fill="none" xmlns="http://www.w3.org/2000/svg">
<g transform="translate(2, 2)">
<g>
<path d="M10.8499 5.68994C10.8499 5.2205 10.4694 4.83994 9.99993 4.83994C9.53049 4.83994 9.14994 5.2205 9.14994 5.68994V10.8502H14.3102C14.7797 10.8502 15.1602 10.4697 15.1602 10.0002C15.1602 9.5308 14.7797 9.15024 14.3102 9.15024H10.8499V5.68994Z" fill="black"/>
<path fill-rule="evenodd" clip-rule="evenodd" d="M0 10C0 4.47715 4.47716 0 10 0C15.5229 0 20.0001 4.47715 20.0001 10C20.0001 15.5228 15.5229 20 10 20C4.47716 20 0 15.5228 0 10ZM1.69999 10C1.69999 5.41605 5.41603 1.7 10 1.7C14.584 1.7 18.3001 5.41605 18.3001 10C18.3001 14.5839 14.584 18.3 10 18.3C5.41603 18.3 1.69999 14.5839 1.69999 10Z" fill="black"/>
</g>
</g>
</svg>
