<svg width="24" height="24" viewBox="0 0 24 24" fill="none" xmlns="http://www.w3.org/2000/svg">
<g transform="translate(1.7516, 3.5813)">
<path fill-rule="evenodd" clip-rule="evenodd" d="M9.56347 1.86618C9.56358 0.207143 11.5199 -0.566772 12.6988 0.469251L19.8626 6.76479C20.7055 7.50552 20.7086 8.80901 19.8688 9.55353L12.7049 15.9046C11.5278 16.9481 9.56359 16.1761 9.56347 14.513C9.56347 14.513 9.56347 14.5131 9.56347 14.513L9.56331 13.4386C9.43377 13.4671 9.29999 13.4987 9.16217 13.5337L8.90462 13.602C7.18566 14.0762 5.48535 14.9378 3.84562 16.3465L3.80375 16.3825L3.75848 16.4141C2.93264 16.9907 1.88819 16.9515 1.03347 16.4586L1.00019 16.4394L0.968329 16.418C-0.137662 15.6728 -0.105786 14.4358 0.140889 13.7158C1.44889 9.89764 3.75032 7.09182 6.64831 5.18611C7.62791 4.54192 8.61316 4.04426 9.56323 3.67459L9.56347 1.86618C9.56347 1.86614 9.56347 1.86623 9.56347 1.86618ZM11.7634 2.57599L11.763 5.24802L10.9041 5.52806C10.7662 5.57409 10.6121 5.62885 10.4434 5.69312C9.61088 6.01025 8.73478 6.4471 7.85708 7.02427C5.36388 8.6638 3.37104 11.0751 2.22215 14.4288C2.2091 14.4669 2.20108 14.5051 2.19811 14.5389C2.19629 14.5596 2.19663 14.5754 2.19758 14.5866C2.28682 14.6278 2.35548 14.6376 2.39862 14.6374C2.43271 14.6373 2.45729 14.6313 2.47568 14.6233C4.34302 13.0344 6.31283 12.0339 8.32545 11.4796L8.33563 11.4768L8.61406 11.403C9.27789 11.2339 9.87991 11.1285 10.4042 11.0713L10.4113 11.0705L11.7629 10.9318L11.7634 13.7992L18.1209 8.16298L11.7634 2.57599Z" fill="black"/>
</g>
</svg>
