<svg width="24" height="24" viewBox="0 0 24 24" fill="none" xmlns="http://www.w3.org/2000/svg">
<g transform="translate(1.1499, 4.7783)">
<g>
<path d="M12.8779 4.86914C12.9998 4.7127 13.2187 4.65768 13.4033 4.74902C13.4869 4.79042 13.5552 4.85789 13.5967 4.94141L14.1797 6.11914L15.4814 6.30762L15.5557 6.3252C15.7474 6.38944 15.8718 6.58377 15.8418 6.79102C15.8283 6.88418 15.7843 6.97055 15.7168 7.03613L14.7764 7.94922L14.999 9.24023L15.0049 9.31641C15.0031 9.51857 14.8576 9.69778 14.6514 9.7334C14.5591 9.74929 14.4638 9.73386 14.3809 9.69043L13.2139 9.0791L12.0479 9.69043L11.9678 9.72266C11.7772 9.77758 11.5673 9.69325 11.4717 9.51074C11.4282 9.42777 11.4138 9.33253 11.4297 9.24023L11.6514 7.94922L10.7119 7.03613L10.6562 6.96973C10.5445 6.80585 10.5587 6.58052 10.7021 6.43262C10.7677 6.3651 10.8541 6.32114 10.9473 6.30762L12.249 6.11914L12.832 4.94141L12.8779 4.86914Z" fill="black"/>
<path d="M6.86328 5.2334C7.33272 5.2334 7.71387 5.61357 7.71387 6.08301V8.36035C7.71387 8.82979 7.33272 9.21094 6.86328 9.21094C6.394 9.21075 6.01367 8.82968 6.01367 8.36035V6.08301C6.01367 5.61368 6.394 5.23359 6.86328 5.2334Z" fill="black"/>
<path fill-rule="evenodd" clip-rule="evenodd" d="M19.4561 0C20.6953 0.000254047 21.7002 1.00578 21.7002 2.24512V5.64648C21.7002 6.11582 21.3189 6.49689 20.8496 6.49707C20.4891 6.49707 20.1612 6.80237 20.1611 7.22363C20.1611 7.64484 20.4891 7.95004 20.8496 7.9502C21.319 7.9502 21.7002 8.33134 21.7002 8.80078V12.1992C21.7002 13.4386 20.6953 14.4431 19.4561 14.4434H2.24414C1.00472 14.4433 0 13.4387 0 12.1992V8.80078C0 8.33149 0.380324 7.95041 0.849609 7.9502C1.21008 7.95005 1.53809 7.64485 1.53809 7.22363C1.53803 6.80248 1.21005 6.49721 0.849609 6.49707C0.380324 6.49686 0 6.11578 0 5.64648V2.24512C0 1.00567 1.00472 8.4095e-05 2.24414 0H19.4561ZM2.24414 1.7002C1.9436 1.70028 1.7002 1.94456 1.7002 2.24512V4.9541C2.6073 5.30482 3.23824 6.20016 3.23828 7.22363C3.23828 8.24713 2.60729 9.14242 1.7002 9.49316V12.1992C1.7002 12.4998 1.9436 12.7441 2.24414 12.7441H6.01367V11.208C6.01367 10.7387 6.394 10.3586 6.86328 10.3584C7.33272 10.3584 7.71387 10.7386 7.71387 11.208V12.7441H19.4561C19.7565 12.7439 20 12.4997 20 12.1992V9.49316C19.0922 9.14277 18.4609 8.24761 18.4609 7.22363C18.461 6.1997 19.0922 5.30448 20 4.9541V2.24512C20 1.94466 19.7565 1.70045 19.4561 1.7002H7.71387V3.23535C7.71387 3.70479 7.33272 4.08594 6.86328 4.08594C6.394 4.08575 6.01367 3.70468 6.01367 3.23535V1.7002H2.24414Z" fill="black"/>
</g>
</g>
</svg>
