<svg width="24" height="24" viewBox="0 0 24 24" fill="none" xmlns="http://www.w3.org/2000/svg">
<g transform="translate(3, 3)">
<path fill-rule="evenodd" clip-rule="evenodd" d="M17.6227 5.97062C18.1259 5.46742 18.1259 4.65156 17.6227 4.14835L13.8518 0.377402C13.3485 -0.1258 12.5327 -0.125801 12.0295 0.377402L0.617275 11.7895C0.448533 11.9583 0.345696 12.1818 0.327341 12.4197L0.00391015 16.6123C-0.0568855 17.4003 0.599663 18.0569 1.38774 17.9961L5.58034 17.6727C5.81827 17.6543 6.04179 17.5515 6.21053 17.3827L17.6227 5.97062ZM12.9406 1.87042L16.1297 5.05949L14.4708 6.71839L11.2817 3.52932L12.9406 1.87042ZM10.0796 4.73139L2.00239 12.8086L1.7358 16.2642L5.1915 15.9976L13.2687 7.92046L10.0796 4.73139Z" fill="black"/>
</g>
</svg>
