<svg width="24" height="24" viewBox="0 0 24 24" fill="none" xmlns="http://www.w3.org/2000/svg">
<g transform="translate(3.1496, 4.9964)">
<g>
<path fill-rule="evenodd" clip-rule="evenodd" d="M0.849996 0C1.31944 5.96047e-08 1.69999 0.380558 1.69999 0.85L1.69999 13.1572C1.69999 13.6267 1.31944 14.0072 0.849996 14.0072C0.380556 14.0072 -5.96043e-08 13.6267 0 13.1572L1.07288e-06 0.85C1.13248e-06 0.380558 0.380557 -5.96046e-08 0.849996 0Z" fill="black"/>
<path fill-rule="evenodd" clip-rule="evenodd" d="M11.3264 12.5277C11.6583 12.8596 12.1965 12.8597 12.5285 12.5277L17.4517 7.60483C17.6111 7.44542 17.7007 7.22921 17.7007 7.00377C17.7007 6.77832 17.6111 6.56211 17.4517 6.40271L12.5285 1.47982C12.1965 1.14788 11.6583 1.1479 11.3264 1.47986C10.9945 1.81182 10.9945 2.35001 11.3264 2.68194L14.7985 6.15377L7.00423 6.15377C6.5348 6.15377 6.15424 6.53433 6.15424 7.00377C6.15424 7.47321 6.5348 7.85377 7.00423 7.85377L14.7985 7.85377L11.3264 11.3256C10.9945 11.6575 10.9945 12.1957 11.3264 12.5277Z" fill="black"/>
</g>
</g>
</svg>
