<svg width="24" height="24" viewBox="0 0 24 24" fill="none" xmlns="http://www.w3.org/2000/svg">
<path d="M10.1898 3.65039C10.6369 3.65061 11.0506 3.87113 11.3002 4.23242L11.3969 4.39648L13.3734 8.34961H8.97304L8.73769 7.87988L7.59999 5.60352C7.15141 4.70606 7.80376 3.65069 8.80702 3.65039H10.1898Z" fill="black"/>
<path fill-rule="evenodd" clip-rule="evenodd" d="M18.2207 6.65039C19.506 6.65039 20.4822 7.5936 21.0879 8.7041C21.7111 9.84675 22.0703 11.367 22.0703 13C22.0703 14.633 21.7111 16.1533 21.0879 17.2959C20.4822 18.4064 19.506 19.3496 18.2207 19.3496H5.99805C4.71275 19.3496 3.73659 18.4064 3.13086 17.2959C2.5076 16.1533 2.14844 14.633 2.14844 13C2.14844 11.367 2.5076 9.84675 3.13086 8.7041C3.73659 7.5936 4.71275 6.65039 5.99805 6.65039H18.2207ZM5.99805 8.34961C5.62653 8.34961 5.10306 8.63772 4.62305 9.51758C4.16052 10.3655 3.84766 11.5954 3.84766 13C3.84766 14.4046 4.16052 15.6345 4.62305 16.4824C5.10306 17.3623 5.62653 17.6504 5.99805 17.6504C6.36956 17.6504 6.89304 17.3623 7.37305 16.4824C7.83557 15.6345 8.14844 14.4046 8.14844 13C8.14844 11.5954 7.83557 10.3655 7.37305 9.51758C6.89304 8.63772 6.36956 8.34961 5.99805 8.34961ZM9.78711 14.1504C9.7235 14.7474 9.61049 15.3187 9.4541 15.8496H17.498L17.585 15.8457C18.0136 15.8022 18.3477 15.4401 18.3477 15C18.3477 14.5599 18.0136 14.1978 17.585 14.1543L17.498 14.1504H9.78711ZM9.42383 10.0508C9.58684 10.5803 9.70584 11.1517 9.77539 11.75H10.998L11.085 11.7461C11.5135 11.7026 11.8475 11.3403 11.8477 10.9004C11.8477 10.4603 11.5136 10.0982 11.085 10.0547L10.998 10.0508H9.42383ZM14.3984 10.0508C13.929 10.0508 13.5479 10.4309 13.5479 10.9004C13.548 11.3697 13.9291 11.75 14.3984 11.75H20.2822C20.1936 11.1159 20.0409 10.5415 19.8428 10.0508H14.3984Z" fill="black"/>
<path d="M8.14844 13C8.14844 11.5954 7.83557 10.3655 7.37305 9.51758C6.89304 8.63772 6.36956 8.34961 5.99805 8.34961C5.62653 8.34961 5.10306 8.63772 4.62305 9.51758C4.16052 10.3655 3.84766 11.5954 3.84766 13C3.84766 14.4046 4.16052 15.6345 4.62305 16.4824C5.10306 17.3623 5.62653 17.6504 5.99805 17.6504C6.36956 17.6504 6.89304 17.3623 7.37305 16.4824C7.83557 15.6345 8.14844 14.4046 8.14844 13ZM9.84766 13C9.84766 14.633 9.48849 16.1533 8.86523 17.2959C8.25951 18.4064 7.28334 19.3496 5.99805 19.3496C4.71275 19.3496 3.73659 18.4064 3.13086 17.2959C2.5076 16.1533 2.14844 14.633 2.14844 13C2.14844 11.367 2.5076 9.84675 3.13086 8.7041C3.73659 7.5936 4.71275 6.65039 5.99805 6.65039C7.28334 6.65039 8.25951 7.5936 8.86523 8.7041C9.48849 9.84675 9.84766 11.367 9.84766 13Z" fill="black"/>
<path d="M6.99805 13C6.99805 14.1046 6.55033 15 5.99805 15C5.44576 15 4.99805 14.1046 4.99805 13C4.99805 11.8954 5.44576 11 5.99805 11C6.55033 11 6.99805 11.8954 6.99805 13Z" fill="black"/>
</svg>
