<svg width="24" height="24" viewBox="0 0 24 24" fill="none" xmlns="http://www.w3.org/2000/svg">
<g transform="translate(2.0015, 3.6852)">
<g>
<path d="M10.6356 8.64946C10.9373 8.47529 10.9373 8.03984 10.6356 7.86567L6.90224 5.71032C6.60056 5.53615 6.22347 5.75387 6.22347 6.10221V10.4129C6.22347 10.7613 6.60056 10.979 6.90224 10.8048L10.6356 8.64946Z" fill="black"/>
<path fill-rule="evenodd" clip-rule="evenodd" d="M11.3132 0C13.1371 0 14.709 1.07905 15.4253 2.63358C15.5718 2.95158 15.6825 3.28948 15.7523 3.64211L18.8848 2.62641C19.1435 2.54252 19.4268 2.58751 19.6468 2.74746C19.8668 2.9074 19.997 3.16297 19.997 3.43497V13.2483C19.997 13.5203 19.8668 13.7759 19.6468 13.9359C19.4268 14.0958 19.1435 14.1408 18.8848 14.0569L15.742 13.0379C15.6755 13.3551 15.5757 13.6602 15.4465 13.9492C14.7404 15.5288 13.1554 16.6296 11.3132 16.6296H4.52514C2.02597 16.6296 0 14.6036 0 12.1044V4.52517C0 2.02599 2.02597 0 4.52514 0H11.3132ZM14.4665 10.8372L14.0782 12.689C13.8097 13.9691 12.6717 14.9296 11.3132 14.9296H4.52514C2.96485 14.9296 1.69999 13.6647 1.69999 12.1044V4.52517C1.69999 2.96487 2.96485 1.7 4.52514 1.7H11.3132C12.6829 1.7 13.8283 2.67643 14.0846 3.972L14.456 5.84954L18.297 4.60413V12.0792L14.4665 10.8372Z" fill="black"/>
</g>
</g>
</svg>
