<svg width="24" height="24" viewBox="0 0 24 24" fill="none" xmlns="http://www.w3.org/2000/svg">
<svg x="2.00" y="6.26" width="20.00" height="11.48" viewBox="0 0 20 11.4802" fill="none">
<path id="Fill" d="M0 11.4802C0.136364 9.85894 0.632576 8.36651 1.48864 7.00287C2.3447 5.63923 3.48485 4.55589 4.90909 3.75286L3.22727 0.843753C3.13636 0.707389 3.11364 0.563449 3.15909 0.411933C3.20455 0.260418 3.30303 0.146781 3.45455 0.071023C3.57576 -0.00473487 3.71212 -0.0198864 3.86364 0.0255683C4.01515 0.071023 4.13636 0.161932 4.22727 0.298297L5.90909 3.2074C7.21212 2.66194 8.57576 2.38921 10 2.38921C11.4242 2.38921 12.7879 2.66194 14.0909 3.2074L15.7727 0.298297C15.8636 0.161932 15.9848 0.071023 16.1364 0.0255683C16.2879 -0.0198864 16.4242 -0.00473487 16.5455 0.071023C16.697 0.146781 16.7955 0.260418 16.8409 0.411933C16.8864 0.563449 16.8636 0.707389 16.7727 0.843753L15.0909 3.75286C16.5152 4.55589 17.6553 5.63923 18.5114 7.00287C19.3674 8.36651 19.8636 9.85894 20 11.4802H0ZM5.45455 8.98015C5.77273 8.98015 6.04167 8.8703 6.26136 8.6506C6.48106 8.4309 6.59091 8.16196 6.59091 7.84378C6.59091 7.5256 6.48106 7.25666 6.26136 7.03696C6.04167 6.81726 5.77273 6.70741 5.45455 6.70741C5.13636 6.70741 4.86742 6.81726 4.64773 7.03696C4.42803 7.25666 4.31818 7.5256 4.31818 7.84378C4.31818 8.16196 4.42803 8.4309 4.64773 8.6506C4.86742 8.8703 5.13636 8.98015 5.45455 8.98015ZM14.5455 8.98015C14.8636 8.98015 15.1326 8.8703 15.3523 8.6506C15.572 8.4309 15.6818 8.16196 15.6818 7.84378C15.6818 7.5256 15.572 7.25666 15.3523 7.03696C15.1326 6.81726 14.8636 6.70741 14.5455 6.70741C14.2273 6.70741 13.9583 6.81726 13.7386 7.03696C13.5189 7.25666 13.4091 7.5256 13.4091 7.84378C13.4091 8.16196 13.5189 8.4309 13.7386 8.6506C13.9583 8.8703 14.2273 8.98015 14.5455 8.98015Z" fill="black"/>
</svg>
</svg>
