<svg width="24" height="24" viewBox="0 0 24 24" fill="none" xmlns="http://www.w3.org/2000/svg">
<g transform="translate(5.8125, 3)">
<g>
<path d="M7.87502 1.125C7.87502 0.50368 8.3787 0 9.00003 0H11.25C11.8714 0 12.375 0.50368 12.375 1.125V16.875C12.375 17.4963 11.8714 18 11.25 18H9.00003C8.3787 18 7.87502 17.4963 7.87502 16.875V1.125Z" fill="black"/>
<path d="M0 1.125C0 0.50368 0.503681 0 1.125 0H3.37501C3.99633 0 4.50001 0.50368 4.50001 1.125V16.875C4.50001 17.4963 3.99633 18 3.37501 18H1.125C0.503681 18 0 17.4963 0 16.875V1.125Z" fill="black"/>
</g>
</g>
</svg>
