<svg width="24" height="24" viewBox="0 0 24 24" fill="none" xmlns="http://www.w3.org/2000/svg">
<g transform="translate(3.2144, 3.2142)">
<path fill-rule="evenodd" clip-rule="evenodd" d="M16.6442 0.927007C15.4082 -0.309003 13.4042 -0.309002 12.1682 0.927007L8.82049 4.27472L7.32565 2.78036C6.99371 2.44842 6.45552 2.44842 6.12357 2.78036C5.79162 3.1123 5.79162 3.65049 6.12357 3.98244L7.39924 5.2581L1.01781 11.6395C-0.339269 12.9966 -0.339269 15.1968 1.01781 16.5539C2.37488 17.911 4.57514 17.911 5.93221 16.5539L12.3136 10.1725L13.5863 11.4451C13.9182 11.777 14.4564 11.777 14.7884 11.4451C15.1203 11.1132 15.1203 10.575 14.7884 10.243L13.5157 8.97041L13.2965 8.75071L16.6442 5.40299C17.8802 4.16698 17.8802 2.16302 16.6442 0.927007ZM8.60132 6.46018L2.21989 12.8416C1.5267 13.5348 1.5267 14.6586 2.21989 15.3518C2.91307 16.045 4.03695 16.045 4.73013 15.3518L11.1116 8.97041L8.60132 6.46018Z" fill="black"/>
</g>
</svg>
