<svg width="24" height="24" viewBox="0 0 24 24" fill="none" xmlns="http://www.w3.org/2000/svg">
<path fill-rule="evenodd" clip-rule="evenodd" d="M3.88076 8.38076C4.38844 7.87308 5.21156 7.87308 5.71924 8.38076L12 14.6615L18.2808 8.38076C18.7885 7.87308 19.6116 7.87308 20.1193 8.38076C20.627 8.88845 20.627 9.71156 20.1193 10.2192L12.9193 17.4192C12.4116 17.9269 11.5885 17.9269 11.0808 17.4192L3.88076 10.2192C3.37308 9.71156 3.37308 8.88844 3.88076 8.38076Z" fill="#0E0F10"/>
<path d="M18.2808 8.38076C18.7885 7.87308 19.6116 7.87308 20.1193 8.38076C20.627 8.88845 20.627 9.71156 20.1193 10.2192L12.9193 17.4192C12.4116 17.9269 11.5885 17.9269 11.0808 17.4192L3.88076 10.2192C3.37308 9.71156 3.37308 8.88844 3.88076 8.38076C4.38844 7.87308 5.21156 7.87308 5.71924 8.38076L11.9989 14.661L18.2808 8.38076Z" fill="#0E0F10"/>
</svg>
