<svg width="24" height="24" viewBox="0 0 24 24" fill="none" xmlns="http://www.w3.org/2000/svg">
<g transform="translate(2.5, 2.5)">
<g>
<path d="M11.7027 12.0497H9.06273C9.11273 11.5697 9.57273 11.1497 11.4027 9.85967C12.2827 9.23967 12.6027 8.51967 12.6027 7.53967C12.6027 6.13967 11.7627 4.90967 9.75274 4.90967C8.90273 4.90967 7.89273 5.19967 7.30273 6.06967C7.04273 6.45967 6.96273 6.86967 7.51273 7.26967C8.02273 7.63967 8.47273 7.63967 8.72273 7.33967C9.04273 6.95967 9.43273 6.79967 9.72273 6.79967C10.2927 6.79967 10.6027 7.12967 10.6027 7.59967C10.6027 8.12967 10.2127 8.50967 8.25273 9.88967C7.39273 10.4997 7.06273 11.1997 7.05273 12.4497V13.0097C7.05273 13.5397 7.35273 13.9497 8.00273 13.9497H11.7027C12.3527 13.9497 12.6527 13.5297 12.6527 12.9997C12.6527 12.4697 12.3527 12.0497 11.7027 12.0497Z" fill="black"/>
<path fill-rule="evenodd" clip-rule="evenodd" d="M0 6.33333C0 2.83553 2.83553 0 6.33333 0H12.6667C16.1645 0 19.0001 2.83553 19.0001 6.33333V12.6667C19.0001 16.1645 16.1645 19 12.6667 19H6.33333C2.83553 19 0 16.1645 0 12.6667V6.33333ZM6.33333 1.7H12.6667C15.2256 1.7 17.3001 3.77441 17.3001 6.33333V12.6667C17.3001 15.2256 15.2256 17.3 12.6667 17.3H6.33333C3.77441 17.3 1.7 15.2256 1.7 12.6667V6.33333C1.7 3.77441 3.77441 1.7 6.33333 1.7Z" fill="black"/>
</g>
</g>
</svg>
