<svg width="24" height="24" viewBox="0 0 24 24" fill="none" xmlns="http://www.w3.org/2000/svg">
<g transform="translate(3.4999, 4.15)">
<g>
<path fill-rule="evenodd" clip-rule="evenodd" d="M6.00035 6.7C7.5568 6.7 8.86533 5.63853 9.24155 4.2H16.1503C16.6197 4.2 17.0003 3.81944 17.0003 3.35C17.0003 2.88056 16.6197 2.5 16.1503 2.5H9.24155C8.86533 1.06147 7.5568 0 6.00035 0C4.4439 0 3.13537 1.06147 2.75916 2.5H0.849994C0.380555 2.5 0 2.88056 0 3.35C0 3.81944 0.380555 4.2 0.849994 4.2H2.75916C3.13537 5.63853 4.4439 6.7 6.00035 6.7ZM6.00035 1.7C5.08909 1.7 4.35036 2.43873 4.35036 3.35C4.35036 4.26127 5.08909 5 6.00035 5C6.90456 5 7.63889 4.27267 7.65021 3.37114L7.64995 3.35L7.65021 3.32886C7.63889 2.42733 6.90456 1.7 6.00035 1.7Z" fill="black"/>
<path fill-rule="evenodd" clip-rule="evenodd" d="M0.849994 11.5C0.380555 11.5 0 11.8806 0 12.35C0 12.8194 0.380555 13.2 0.849994 13.2H7.75912C8.13533 14.6385 9.44387 15.7 11.0003 15.7C12.5568 15.7 13.8653 14.6385 14.2415 13.2H16.1503C16.6197 13.2 17.0003 12.8194 17.0003 12.35C17.0003 11.8806 16.6197 11.5 16.1503 11.5H14.2415C13.8653 10.0615 12.5568 9 11.0003 9C9.44387 9 8.13533 10.0615 7.75912 11.5H0.849994ZM12.6502 12.3288C12.6388 11.4273 11.9045 10.7 11.0003 10.7C10.0891 10.7 9.35033 11.4387 9.35033 12.35C9.35033 13.2613 10.0891 14 11.0003 14C11.9045 14 12.6388 13.2727 12.6502 12.3712C12.65 12.3641 12.6499 12.3571 12.6499 12.35C12.6499 12.3429 12.65 12.3359 12.6502 12.3288Z" fill="black"/>
</g>
</g>
</svg>
