<svg width="24" height="24" viewBox="0 0 24 24" fill="none" xmlns="http://www.w3.org/2000/svg">
<svg x="1.00" y="3.00" width="22.01" height="18.01" viewBox="0 0 22.0087 18.0126" fill="none">
<g id="Fill">
<path d="M11.0055 1.7C8.28679 1.7 5.91377 3.18459 4.65477 5.39139C4.42214 5.79914 3.90302 5.9411 3.49526 5.70848C3.08751 5.47585 2.94555 4.95672 3.17817 4.54897C4.72732 1.83362 7.65174 0 11.0055 0C15.6462 0 19.467 3.51006 19.958 8.02011L20.5577 7.42045C20.8896 7.0885 21.4278 7.0885 21.7598 7.42045C22.0917 7.75239 22.0917 8.29058 21.7598 8.62253L19.6384 10.7438C19.3066 11.0757 18.7686 11.0758 18.4366 10.7441L16.3137 8.62263C15.9816 8.2908 15.9814 7.75261 16.3133 7.42055C16.6451 7.08849 17.1833 7.08831 17.5154 7.42014L18.2638 8.16811C17.8483 4.52774 14.7571 1.7 11.0055 1.7Z" fill="black"/>
<path d="M3.74165 9.80893L4.49337 10.5601C4.82543 10.892 5.36362 10.8918 5.69546 10.5597C6.02729 10.2277 6.0271 9.68947 5.69504 9.35764L3.57215 7.23622C3.24017 6.90447 2.70214 6.90456 2.37028 7.23642L0.248959 9.35774C-0.0829865 9.68969 -0.0829863 10.2279 0.248959 10.5598C0.580905 10.8918 1.1191 10.8918 1.45104 10.5598L2.04824 9.96262C2.52557 14.487 6.35305 18.0126 11.004 18.0126C14.3197 18.0126 17.2159 16.2203 18.7781 13.5557C19.0155 13.1507 18.8797 12.6299 18.4747 12.3925C18.0697 12.1551 17.549 12.2909 17.3115 12.6958C16.0419 14.8615 13.6919 16.3126 11.004 16.3126C7.24016 16.3126 4.1411 13.4664 3.74165 9.80893Z" fill="black"/>
<path d="M10.1553 4.78311C10.1553 4.31366 10.5358 3.93311 11.0053 3.93311C11.4747 3.93311 11.8553 4.31366 11.8553 4.78311V8.63176L13.8836 10.4921C14.2296 10.8094 14.2528 11.3471 13.9355 11.6931C13.6182 12.039 13.0805 12.0623 12.7345 11.745L10.4307 9.63196C10.2552 9.47097 10.1553 9.24371 10.1553 9.00554V4.78311Z" fill="black"/>
</g>
</svg>
</svg>
