<svg width="24" height="24" viewBox="0 0 24 24" fill="none" xmlns="http://www.w3.org/2000/svg">
<svg x="3.00" y="4.80" width="18.00" height="14.41" viewBox="0 0 18 14.4072" fill="none">
<g id="Fill">
<path d="M13.0127 2.92578C14.417 2.92579 15.5222 3.22281 16.3281 3.81641C17.1388 4.41 17.6119 5.21816 17.7471 6.24121L14.9238 6.41504C14.8756 6.17379 14.7715 5.95668 14.6123 5.76367C14.453 5.5658 14.243 5.4088 13.9824 5.29297C13.7267 5.17238 13.4205 5.11135 13.0635 5.11133C12.5857 5.11133 12.1827 5.21333 11.8545 5.41602C11.5264 5.61384 11.3624 5.87902 11.3623 6.21191C11.3623 6.47735 11.4683 6.70235 11.6807 6.88574C11.893 7.06902 12.2573 7.21619 12.7734 7.32715L14.7861 7.73242C15.8672 7.95442 16.6732 8.31145 17.2041 8.80371C17.735 9.29597 18 9.94301 18 10.7441C17.9999 11.4727 17.7858 12.1121 17.3564 12.6621C16.9318 13.2123 16.3477 13.6423 15.6045 13.9512C14.8661 14.2552 14.014 14.4072 13.0488 14.4072C11.5769 14.4072 10.4038 14.1002 9.53027 13.4873C9.17248 13.2328 8.87641 12.9402 8.64062 12.6104L8.9668 11.6807L9.23828 10.9033L11.0361 10.8086C11.1278 11.2574 11.3499 11.6004 11.7021 11.8369C12.0544 12.0685 12.5057 12.1845 13.0557 12.1846C13.5962 12.1846 14.0312 12.0806 14.3594 11.873C14.6922 11.6607 14.8614 11.3876 14.8662 11.0547C14.8613 10.775 14.7423 10.5457 14.5107 10.3672C14.2791 10.1839 13.9218 10.0437 13.4395 9.94727L11.5137 9.56348C10.8799 9.43668 10.3422 9.25291 9.89746 9.01758L12.0078 2.98242C12.3262 2.94418 12.6613 2.92578 13.0127 2.92578Z" fill="black"/>
<path d="M11.2496 0L7.3622 11.1193H3.88742L0 0H3.25761L5.5669 7.95581H5.68272L7.98477 0H11.2496Z" fill="black"/>
</g>
</svg>
</svg>
