<svg width="24" height="24" viewBox="0 0 24 24" fill="none" xmlns="http://www.w3.org/2000/svg">
<svg x="2.80" y="4.30" width="18.40" height="15.75" viewBox="0 0 18.4 15.75" fill="none">
<g id="Vector">
<path d="M6.5 9.45C6.5 8.73203 5.91797 8.15 5.2 8.15C4.48203 8.15 3.9 8.73203 3.9 9.45V14.45C3.9 15.168 4.48203 15.75 5.2 15.75C5.91797 15.75 6.5 15.168 6.5 14.45V9.45Z" fill="#0E0F10"/>
<path d="M14.5 9.45C14.5 8.73203 13.918 8.15 13.2 8.15C12.482 8.15 11.9 8.73203 11.9 9.45V14.45C11.9 15.168 12.482 15.75 13.2 15.75C13.918 15.75 14.5 15.168 14.5 14.45V9.45Z" fill="#0E0F10"/>
<path d="M9.2 0C4.11898 0 0 4.11898 0 9.2L0.000370026 12.5568C0.000381887 13.8507 1.04931 14.8996 2.34322 14.8996H2.47716C2.88348 14.8996 3.21287 14.5702 3.21287 14.1639V9.73533C3.21287 9.329 2.88348 8.99961 2.47716 8.99961H2.20132C2.26261 5.18655 5.37273 2.11437 9.2004 2.11437C13.0281 2.11437 16.1382 5.18655 16.1995 8.99961H15.9223C15.516 8.99961 15.1866 9.329 15.1866 9.73533V14.0639C15.1866 14.4702 15.516 14.7996 15.9223 14.7996H16.0562C17.3501 14.7996 18.399 13.7506 18.3991 12.4568L18.4 11.6V9.2C18.4 4.11898 14.281 0 9.2 0Z" fill="black"/>
</g>
</svg>
</svg>
