<svg width="24" height="24" viewBox="0 0 24 24" fill="none" xmlns="http://www.w3.org/2000/svg">
<g transform="translate(2.8493, 2.85)">
<path fill-rule="evenodd" clip-rule="evenodd" d="M12.1954 14.0326C10.9339 14.9281 9.3921 15.4546 7.72732 15.4546C3.45964 15.4546 0 11.9949 0 7.72729C0 3.45962 3.45964 0 7.72732 0C11.995 0 15.4546 3.45962 15.4546 7.72729C15.4546 9.39145 14.9286 10.9327 14.0337 12.1939L17.9205 16.0808C18.4282 16.5885 18.4282 17.4116 17.9205 17.9192C17.4128 18.4269 16.5897 18.4269 16.082 17.9193L12.1954 14.0326ZM12.8546 7.72729C12.8546 10.559 10.5591 12.8546 7.72732 12.8546C4.89557 12.8546 2.6 10.559 2.6 7.72729C2.6 4.89557 4.89557 2.6 7.72732 2.6C10.5591 2.6 12.8546 4.89557 12.8546 7.72729Z" fill="black"/>
</g>
</svg>
