<svg width="24" height="24" viewBox="0 0 24 24" fill="none" xmlns="http://www.w3.org/2000/svg">
<svg x="2.50" y="4.00" width="19.00" height="16.00" viewBox="0 0 19 16" fill="none">
<g id="Fill">
<path fill-rule="evenodd" clip-rule="evenodd" d="M9.92969 4.90039C11.4059 4.90039 12.3994 5.82244 12.3994 7.26562C12.3992 8.69507 11.3464 9.61617 9.79688 9.61621H8.84961V10.502C8.84961 11.1402 8.49553 11.4998 7.875 11.5C7.25418 11.5 6.89941 11.1404 6.89941 10.502V5.89844C6.89943 5.26005 7.2542 4.90039 7.875 4.90039H9.92969ZM8.84961 8.20898H9.39648C10.0449 8.20898 10.4316 7.88997 10.4316 7.26953C10.4316 6.65373 10.0447 6.33496 9.41016 6.33496H8.84961V8.20898Z" fill="black"/>
<path fill-rule="evenodd" clip-rule="evenodd" d="M15 0C17.2091 3.18733e-05 19 1.79088 19 4V12C19 14.2091 17.2091 16 15 16H4C1.79086 16 0 14.2091 0 12V4C9.66399e-08 1.79086 1.79086 0 4 0H15ZM4 1.7002C2.72975 1.7002 1.7002 2.72975 1.7002 4V12C1.7002 13.2703 2.72975 14.2998 4 14.2998H15C16.2702 14.2998 17.2998 13.2702 17.2998 12V4C17.2998 2.72976 16.2702 1.70023 15 1.7002H4Z" fill="black"/>
</g>
</svg>
</svg>
