<svg width="24" height="24" viewBox="0 0 24 24" fill="none" xmlns="http://www.w3.org/2000/svg">
<g transform="translate(2.55, 2.55)">
<g>
<path fill-rule="evenodd" clip-rule="evenodd" d="M4.29997 2.6C3.36109 2.6 2.59998 3.36112 2.59998 4.3V14.6C2.59998 15.5389 3.36109 16.3 4.29997 16.3H14.6001C15.5389 16.3 16.3001 15.5389 16.3001 14.6V12.1254C16.3001 11.4075 16.8821 10.8254 17.6 10.8254C18.318 10.8254 18.9 11.4075 18.9 12.1254V14.6C18.9 16.9748 16.9749 18.9 14.6001 18.9H4.29997C1.92516 18.9 0 16.9748 0 14.6V4.3C0 1.92518 1.92516 0 4.29997 0H6.12318C6.84114 0 7.42317 0.58203 7.42317 1.3C7.42317 2.01797 6.84114 2.6 6.12318 2.6H4.29997Z" fill="black"/>
<path fill-rule="evenodd" clip-rule="evenodd" d="M14.5434 2.60193H11.2517C10.5337 2.60193 9.95168 2.0199 9.95168 1.30193C9.95168 0.58396 10.5337 0.00192988 11.2517 0.00192988L17.5996 0.0019294C17.9444 0.0019294 18.2751 0.138893 18.5189 0.382691C18.7627 0.626488 18.8996 0.957148 18.8996 1.30193L18.8996 7.24585C18.8996 7.96382 18.3176 8.54585 17.5996 8.54585C16.8817 8.54585 16.2996 7.96382 16.2996 7.24585V4.52645L11.0829 9.9447C10.5849 10.4619 9.76197 10.4775 9.24477 9.97952C8.72757 9.48155 8.71197 8.65858 9.20995 8.14137L14.5434 2.60193Z" fill="black"/>
</g>
</g>
</svg>
