<svg width="24" height="24" viewBox="0 0 24 24" fill="none" xmlns="http://www.w3.org/2000/svg">
<g transform="translate(2.3592, 1.9992)">
<path id="Fill" fill-rule="evenodd" clip-rule="evenodd" d="M9.64237 19.995C9.23237 19.995 8.81237 19.965 8.39237 19.915C7.30236 19.785 6.42236 18.975 6.22236 17.905L6.06236 17.105C5.74236 16.955 5.43236 16.775 5.15236 16.595H5.13236L4.29235 16.885C3.26235 17.235 2.12235 16.885 1.46234 16.035C0.962343 15.385 0.542342 14.685 0.222341 13.945C-0.22766 12.935 0.0623406 11.725 0.912343 11.015L1.54234 10.495C1.54234 10.4223 1.54 10.3473 1.53758 10.27C1.535 10.1877 1.53235 10.1026 1.53235 10.015C1.53235 9.85499 1.53235 9.695 1.54234 9.535L0.912343 9.005C0.0423406 8.265 -0.23766 7.095 0.212341 6.055C0.542342 5.305 0.962343 4.605 1.46234 3.965C2.13235 3.105 3.26235 2.765 4.29235 3.115L5.13236 3.405C5.43236 3.215 5.74236 3.035 6.06236 2.885L6.22236 2.085C6.43236 1.015 7.30236 0.205 8.39237 0.075C9.23237 -0.025 10.0524 -0.025 10.8924 0.075C11.9824 0.205 12.8624 1.015 13.0724 2.085L13.2224 2.885C13.5424 3.035 13.8524 3.215 14.1424 3.405L14.9924 3.125C16.0224 2.775 17.1624 3.125 17.8224 3.975C18.3224 4.625 18.7424 5.325 19.0624 6.065C19.5124 7.075 19.2224 8.285 18.3724 8.995L17.7424 9.515C17.7424 9.595 17.7449 9.675 17.7474 9.755C17.7499 9.83494 17.7524 9.91506 17.7524 9.995C17.7524 10.155 17.7524 10.305 17.7324 10.475L18.3624 10.995C19.2124 11.705 19.4924 12.895 19.0624 13.905C19.0624 13.905 19.0624 13.925 19.0524 13.925C18.7224 14.665 18.3024 15.365 17.8124 16.015C17.1424 16.875 16.0124 17.215 14.9824 16.865L14.1424 16.575L14.1024 16.595C13.8124 16.775 13.5124 16.945 13.2124 17.095L13.0524 17.895C12.8424 18.965 11.9724 19.775 10.8724 19.905C10.4524 19.955 10.0324 19.985 9.62237 19.985L9.64237 19.995ZM9.64319 6.43567C7.65408 6.43567 6.04158 8.04816 6.04158 10.0373C6.04158 12.0264 7.65408 13.6389 9.64319 13.6389C11.6323 13.6389 13.2448 12.0264 13.2448 10.0373C13.2448 8.04816 11.6323 6.43567 9.64319 6.43567Z" fill="black"/>
</g>
</svg>
