<svg width="24" height="24" viewBox="0 0 24 24" fill="none" xmlns="http://www.w3.org/2000/svg">
<g transform="translate(1.1501, 4.7784)">
<g>
<path d="M7.71363 6.08242C7.71363 5.61298 7.33307 5.23242 6.86363 5.23242C6.39419 5.23242 6.01364 5.61298 6.01364 6.08242V8.3602C6.01364 8.82964 6.39419 9.2102 6.86363 9.2102C7.33307 9.2102 7.71363 8.82964 7.71363 8.3602V6.08242Z" fill="black"/>
<path fill-rule="evenodd" clip-rule="evenodd" d="M2.2443 0C1.00481 0 0 1.00481 0 2.24431V5.64639C0 6.1157 0.380353 6.4962 0.849662 6.49639C1.21013 6.49653 1.53785 6.80204 1.53785 7.22326C1.53785 7.64447 1.21013 7.94998 0.849662 7.95012C0.380353 7.95031 0 8.33081 0 8.80013V12.1989C0 13.4384 1.0048 14.4432 2.2443 14.4432H19.4556C20.6951 14.4432 21.6999 13.4384 21.6999 12.1989V8.80013C21.6999 8.33068 21.3193 7.95012 20.8499 7.95012C20.4893 7.95012 20.1608 7.64457 20.1608 7.22326C20.1608 6.80194 20.4887 6.49639 20.8493 6.49639C21.3187 6.49639 21.6999 6.11583 21.6999 5.64639V2.24431C21.6999 1.00481 20.6951 0 19.4556 0H2.2443ZM1.69999 2.24431C1.69999 1.9437 1.94368 1.7 2.2443 1.7H6.01364V3.2352C6.01364 3.70464 6.39419 4.0852 6.86363 4.0852C7.33307 4.0852 7.71363 3.70464 7.71363 3.2352V1.7H19.4556C19.7562 1.7 19.9999 1.94369 19.9999 2.24431V4.95361C19.0921 5.304 18.4608 6.19928 18.4608 7.22326C18.4608 8.24724 19.0921 9.14251 19.9999 9.49291V12.1989C19.9999 12.4995 19.7562 12.7432 19.4556 12.7432H7.71363V11.2074C7.71363 10.738 7.33307 10.3574 6.86363 10.3574C6.39419 10.3574 6.01364 10.738 6.01364 11.2074V12.7432H2.2443C1.94368 12.7432 1.69999 12.4995 1.69999 12.1989V9.49244C2.60714 9.14172 3.23784 8.24679 3.23784 7.22326C3.23784 6.19973 2.60714 5.30479 1.69999 4.95407V2.24431Z" fill="black"/>
</g>
</g>
</svg>
