<svg width="24" height="24" viewBox="0 0 24 24" fill="none" xmlns="http://www.w3.org/2000/svg">
<g transform="translate(2, 2)">
<path fill-rule="evenodd" clip-rule="evenodd" d="M0 10C0 4.47715 4.47721 0 10 0C15.5228 0 20.0001 4.47715 20.0001 10C20.0001 15.5228 15.5228 20 10 20C4.47721 20 0 15.5228 0 10ZM6.14802 10C6.14802 9.53056 6.52857 9.15 6.99801 9.15H9.148V7C9.148 6.53056 9.52856 6.15 9.998 6.15C10.4674 6.15 10.848 6.53056 10.848 7V9.15H12.998C13.4675 9.15 13.848 9.53056 13.848 10C13.848 10.4694 13.4675 10.85 12.998 10.85H10.848V13C10.848 13.4694 10.4674 13.85 9.998 13.85C9.52856 13.85 9.148 13.4694 9.148 13V10.85H6.99801C6.52857 10.85 6.14802 10.4694 6.14802 10Z" fill="black"/>
</g>
</svg>
