<svg width="24" height="24" viewBox="0 0 24 24" fill="none" xmlns="http://www.w3.org/2000/svg">
<svg x="2.17" y="2.00" width="19.66" height="20.49" viewBox="0 0 19.6611 20.4902" fill="none">
<path id="Fill" fill-rule="evenodd" clip-rule="evenodd" d="M15.8125 0C15.8125 0.729599 15.7908 1.42233 15.7539 2.08008H19.6611V2.60059C19.6608 4.73582 17.8387 9.54567 11.1318 13.5234V14.665C11.1318 16.331 12.4825 17.6815 14.1484 17.6816V20.4902H5.61816V17.6816C7.34163 17.6816 8.73914 16.285 8.73926 14.5615V13.6465C1.86093 9.64543 0.000339613 4.75786 0 2.60059V2.08008H3.78516C3.74022 1.31706 3.72972 0.610816 3.74512 0H15.8125ZM15.6797 3.12012C15.3748 6.54244 14.5719 8.92142 13.6133 10.5322C17.1449 7.6273 18.3565 4.69852 18.5801 3.12012H15.6797ZM1.08105 3.12012C1.30024 4.66763 2.46959 7.51366 5.84375 10.3623C4.67554 8.27903 4.09626 5.52348 3.86523 3.12012H1.08105Z" fill="black"/>
</svg>
</svg>
