<svg width="24" height="24" viewBox="0 0 24 24" fill="none" xmlns="http://www.w3.org/2000/svg">
<path fill-rule="evenodd" clip-rule="evenodd" d="M8.05078 4C10.3882 4.00018 12.2832 5.895 12.2832 8.23242C12.2831 9.47385 11.748 10.59 10.8965 11.3643C11.8014 11.7652 12.6065 12.352 13.2676 13.0762C13.599 12.8175 13.9566 12.5915 14.3379 12.4062C13.6831 11.7418 13.2785 10.8297 13.2783 9.82324C13.2783 7.79049 14.9262 6.14258 16.959 6.14258C18.9915 6.14281 20.6396 7.79063 20.6396 9.82324C20.6395 10.8284 20.2355 11.7391 19.582 12.4033C21.6366 13.3991 23.0487 15.5293 23.0488 17.9814C23.0487 18.4507 22.6684 18.8319 22.1992 18.832C21.7299 18.832 21.3488 18.4508 21.3486 17.9814C21.3484 15.5001 19.3797 13.5121 16.9785 13.5029C16.972 13.503 16.9655 13.5039 16.959 13.5039C16.9531 13.5039 16.9473 13.503 16.9414 13.5029C15.9319 13.5077 14.9989 13.8622 14.2568 14.4561C14.8337 15.5001 15.1641 16.7026 15.1641 17.9814C15.164 18.4507 14.7836 18.8308 14.3145 18.8311C13.8451 18.8311 13.464 18.4508 13.4639 17.9814C13.4639 14.926 11.0378 12.4726 8.07227 12.4639C8.06511 12.4639 8.05795 12.4648 8.05078 12.4648C8.04524 12.4648 8.03971 12.4639 8.03418 12.4639C5.07168 12.4762 2.64844 14.9283 2.64844 17.9814C2.64834 18.4508 2.26821 18.8311 1.79883 18.8311C1.32945 18.8311 0.949319 18.4508 0.949219 17.9814C0.949219 15.0324 2.69613 12.4851 5.20801 11.3682C4.35443 10.5938 3.81846 9.47562 3.81836 8.23242C3.81836 5.89489 5.71325 4 8.05078 4ZM16.959 7.8418C15.8651 7.8418 14.9775 8.72938 14.9775 9.82324C14.9779 10.9168 15.8653 11.8037 16.959 11.8037C18.0524 11.8035 18.9391 10.9167 18.9395 9.82324C18.9395 8.72952 18.0527 7.84203 16.959 7.8418ZM8.05078 5.69922C6.65213 5.69922 5.51758 6.83378 5.51758 8.23242C5.51776 9.63091 6.65224 10.7646 8.05078 10.7646C9.44917 10.7645 10.5828 9.6308 10.583 8.23242C10.583 6.83389 9.44929 5.6994 8.05078 5.69922Z" fill="#0E0F10"/>
</svg>
