<svg width="24" height="24" viewBox="0 0 24 24" fill="none" xmlns="http://www.w3.org/2000/svg">
<g transform="translate(2, 2.2058)">
<path fill-rule="evenodd" clip-rule="evenodd" d="M0 13.9319C0 14.7941 0.507779 15.5755 1.29569 15.9256L9.11383 19.4004C9.67797 19.6511 10.3219 19.6511 10.8861 19.4004L18.7042 15.9256C19.4921 15.5755 19.9999 14.7941 19.9999 13.9319V5.65657C19.9999 4.79434 19.4921 4.01298 18.7042 3.6628L10.8861 0.188048C10.3219 -0.0626825 9.67797 -0.0626825 9.11383 0.188047L1.29569 3.6628C0.507779 4.01298 0 4.79434 0 5.65657V13.9319ZM1.69999 5.92189V13.9319C1.69999 14.1223 1.81213 14.2948 1.98612 14.3722L9.15212 17.5571V9.23397L1.69999 5.92189ZM10.8521 17.5551L18.0138 14.3722C18.1878 14.2948 18.2999 14.1223 18.2999 13.9319V9.98379L16.2519 10.894V12.466C16.2519 12.6399 16.1495 12.7975 15.9906 12.8681L13.7159 13.879C13.4977 13.976 13.2519 13.8163 13.2519 13.5775V12.2274L10.8521 13.2939V17.5551ZM10.8521 11.4336L18.2999 8.12346V5.92382L10.8521 9.23397V11.4336ZM16.8599 4.70346L10.1956 1.74153C10.071 1.68616 9.92884 1.68616 9.80426 1.74153L3.14211 4.7025L10.0021 7.7514L16.8599 4.70346Z" fill="black"/>
</g>
</svg>
