<svg width="24" height="24" viewBox="0 0 24 24" fill="none" xmlns="http://www.w3.org/2000/svg">
<g transform="translate(2.0599, 2.0001)">
<g>
<path d="M17.4791 6.26811L15.7962 7.43321L15.7978 10.1136L17.365 13.2969C17.3861 13.3651 17.3848 13.4097 17.3823 13.4284C17.3809 13.4389 17.3788 13.4442 17.3778 13.4467C17.3769 13.4488 17.3743 13.4544 17.3662 13.4641C17.3498 13.4837 17.2417 13.5873 16.9268 13.5873H6.90687L4.4513 15.2873H16.9268C17.5914 15.2873 18.245 15.0646 18.6718 14.5529C19.1184 14.0172 19.1877 13.3179 18.9477 12.6731L18.9322 12.6313L17.4975 9.71734L17.4957 6.57707L17.4952 6.56374C17.4922 6.46454 17.4868 6.36599 17.4791 6.26811Z" fill="black"/>
<path d="M1.79148 10.9258L2.38982 9.70732L2.39065 6.56228L2.39824 6.448C2.5817 2.76446 5.9882 0 9.94441 0C11.8739 0 13.6733 0.658056 15.0315 1.75963L13.5596 2.77868C12.5779 2.10846 11.3323 1.7 9.94441 1.7C6.6967 1.7 4.22531 3.9389 4.09613 6.53257L4.09543 6.54664L4.09063 6.61891L4.08992 9.33458L1.79148 10.9258Z" fill="black"/>
<path d="M6.6157 17.252C6.91252 18.8167 8.28726 19.9998 9.93835 19.9998C11.5894 19.9998 12.9642 18.8167 13.261 17.252H11.4967C11.2464 17.8666 10.6429 18.2998 9.93835 18.2998C9.23375 18.2998 8.63034 17.8666 8.37999 17.252H6.6157Z" fill="black"/>
<path d="M19.514 2.79213C19.8999 2.52492 19.9962 1.99541 19.729 1.60943C19.4618 1.22346 18.9323 1.12719 18.5463 1.3944L0.36625 13.9805C-0.0197224 14.2478 -0.115998 14.7773 0.151213 15.1632C0.418423 15.5492 0.947932 15.6455 1.3339 15.3783L19.514 2.79213Z" fill="black"/>
</g>
</g>
</svg>
