<svg width="24" height="24" viewBox="0 0 24 24" fill="none" xmlns="http://www.w3.org/2000/svg">
<svg x="2.00" y="2.00" width="20.00" height="20.00" viewBox="0 0 19.9995 20.0029" fill="none">
<g id="Fill">
<path fill-rule="evenodd" clip-rule="evenodd" d="M16.6496 8.71973C17.1189 8.71987 17.4992 9.10096 17.4992 9.57031V12.2998H19.1496C19.4792 12.2999 19.7792 12.4907 19.9191 12.7891C20.059 13.0876 20.0139 13.441 19.8029 13.6943L14.8029 19.6973C14.6415 19.8911 14.4019 20.0029 14.1496 20.0029C13.8973 20.0029 13.6578 19.8911 13.4963 19.6973L8.49629 13.6943C8.28525 13.4409 8.24017 13.0877 8.38008 12.7891C8.52008 12.4907 8.81999 12.2998 9.14961 12.2998H11.216V9.57031C11.216 9.10087 11.5972 8.71973 12.0666 8.71973H16.6496Z" fill="black"/>
<path fill-rule="evenodd" clip-rule="evenodd" d="M5.84981 0C6.10194 7.7162e-05 6.34169 0.11199 6.50313 0.305664L11.5031 6.30566C11.714 6.55888 11.7589 6.91149 11.6193 7.20996C11.4795 7.50856 11.1795 7.69912 10.8498 7.69922H9.19942V10.4326C9.19942 10.902 8.81913 11.2831 8.34981 11.2832H3.7668C3.29736 11.2832 2.91622 10.9021 2.91622 10.4326V7.69922H0.849809C0.519994 7.69922 0.220171 7.50864 0.0802778 7.20996C-0.0594031 6.91145 -0.0143916 6.55894 0.196489 6.30566L5.19649 0.305664C5.35798 0.112082 5.5977 0 5.84981 0Z" fill="black"/>
</g>
</svg>
</svg>
