<svg width="24" height="24" viewBox="0 0 24 24" fill="none" xmlns="http://www.w3.org/2000/svg">
<g transform="translate(3.15, 3.15)">
<g transform="rotate(-90, 8.85, 8.85)">
<svg width="17.70" height="17.70" viewBox="0 0 7.13672 17.6992" fill="none">
<path d="M0 15.3496V2.34961C1.53075e-07 1.05174 1.05174 9.94355e-07 2.34961 0H6.28711L6.37402 0.00390625C6.80264 0.0474336 7.13672 0.409507 7.13672 0.849609C7.13672 1.28971 6.80264 1.65179 6.37402 1.69531L6.28711 1.69922H2.34961C1.99062 1.69922 1.69922 1.99063 1.69922 2.34961V15.3496L1.71289 15.4805C1.77348 15.7767 2.03548 16 2.34961 16H6.28711L6.37402 16.0039C6.80264 16.0474 7.13672 16.4095 7.13672 16.8496C7.13668 17.2897 6.80262 17.6518 6.37402 17.6953L6.28711 17.6992H2.34961C1.13287 17.6992 0.132077 16.7748 0.0117188 15.5898L0 15.3496Z" fill="black"/>
</svg>
</g>
</g>
</svg>
