<svg width="24" height="24" viewBox="0 0 24 24" fill="none" xmlns="http://www.w3.org/2000/svg">
<g transform="translate(2, 4)">
<g>
<path d="M12.7852 5.36328V11H14.2188V8.89844H16.4023V7.80078H14.2188V6.51562H16.6211V5.36328H12.7852Z" fill="black"/>
<path d="M9.99609 11V5.36328H11.4297V11H9.99609Z" fill="black"/>
<path d="M3.44141 8.17188C3.44141 10.0273 4.48828 11.1016 6.22656 11.1016C7.83203 11.1016 8.78516 10.1602 8.78516 8.61719V7.91016H6.27344V8.92578H7.40234L7.39844 8.99609C7.35156 9.5625 6.90625 9.91406 6.25781 9.91406C5.43359 9.91406 4.90234 9.27344 4.90234 8.15625V8.15234C4.90234 7.05859 5.38281 6.44922 6.19531 6.44922C6.74609 6.44922 7.14844 6.71875 7.29688 7.17578L7.30859 7.21484H8.72656L8.71875 7.16797C8.57031 6.07422 7.57422 5.26172 6.19141 5.26172C4.49219 5.26172 3.44141 6.33984 3.44141 8.16797V8.17188Z" fill="black"/>
<path fill-rule="evenodd" clip-rule="evenodd" d="M0 4C0 1.79086 1.79086 0 4 0H15.9999C18.2091 0 19.9999 1.79086 19.9999 4V12C19.9999 14.2091 18.2091 16 15.9999 16H4C1.79086 16 0 14.2091 0 12V4ZM4 1.7H15.9999C17.2702 1.7 18.2999 2.72975 18.2999 4V12C18.2999 13.2703 17.2702 14.3 15.9999 14.3H4C2.72975 14.3 1.7 13.2703 1.7 12V4C1.7 2.72975 2.72975 1.7 4 1.7Z" fill="black"/>
</g>
</g>
</svg>
