<svg width="24" height="24" viewBox="0 0 24 24" fill="none" xmlns="http://www.w3.org/2000/svg">
<g transform="translate(10.0008, 3.0)">
<g id="Fill">
<path d="M4.00002 2C4.00002 3.10457 3.10459 4 2.00001 4C0.895435 4 6.11962e-07 3.10457 6.11962e-07 2C6.11962e-07 0.89543 0.895435 0 2.00001 0C3.10459 0 4.00002 0.89543 4.00002 2Z" fill="black"/>
<path d="M4.00002 9C4.00002 10.1046 3.10458 11 2.00001 11C0.895435 11 3.05981e-07 10.1046 3.05981e-07 9C3.05981e-07 7.89543 0.895435 7 2.00001 7C3.10458 7 4.00002 7.89543 4.00002 9Z" fill="black"/>
<path d="M4.00002 16C4.00002 17.1046 3.10458 18 2.00001 18C0.895435 18 0 17.1046 0 16C0 14.8954 0.895435 14 2.00001 14C3.10458 14 4.00002 14.8954 4.00002 16Z" fill="black"/>
</g>
</g>
</svg>
