<svg width="24" height="24" viewBox="0 0 24 24" fill="none" xmlns="http://www.w3.org/2000/svg">
<g transform="translate(4, 4)">
<g>
<path d="M13.8667 0.533333C13.8667 0.238781 14.1055 0 14.4001 0H15.4667C15.7613 0 16.0001 0.238781 16.0001 0.533333V15.4667C16.0001 15.7612 15.7613 16 15.4667 16H14.4001C14.1055 16 13.8667 15.7612 13.8667 15.4667V0.533333Z" fill="black"/>
<path d="M11.2447 8.58193C11.1636 8.70651 11.0573 8.81276 10.9327 8.89386L1.64865 14.9382C1.15496 15.2597 0.494177 15.12 0.172757 14.6263C0.0600167 14.4531 0 14.251 0 14.0443V1.95558C0 1.36648 0.477565 0.888916 1.06667 0.888916C1.2733 0.888916 1.47549 0.948932 1.64865 1.06167L10.9327 7.10604C11.4264 7.42746 11.5661 8.08824 11.2447 8.58193Z" fill="black"/>
</g>
</g>
</svg>
