<svg width="24" height="24" viewBox="0 0 24 24" fill="none" xmlns="http://www.w3.org/2000/svg">
<svg x="0.15" y="1.65" width="23.70" height="18.20" viewBox="0 0 23.6992 18.1992" fill="none">
<g id="Fill">
<path d="M15.6777 11.7988C16.0682 11.4084 16.7013 11.4085 17.0918 11.7988C17.4823 12.1894 17.4823 12.8224 17.0918 13.2129C16.7013 13.6034 16.0683 13.6034 15.6777 13.2129C15.2874 12.8224 15.2873 12.1893 15.6777 11.7988Z" fill="black"/>
<path d="M7.72461 7.34961C7.92897 7.34961 8.09943 7.47737 8.09961 7.68164V9.59961H9.97461C10.1794 9.59961 10.3496 9.76986 10.3496 9.97461V10.7246C10.3496 10.9294 10.1794 11.0996 9.97461 11.0996H8.09961V12.9746C8.09961 13.1788 7.92908 13.3496 7.72461 13.3496H6.97461C6.76986 13.3496 6.59961 13.1788 6.59961 12.9746V11.0996H4.72461C4.52042 11.0996 4.34961 10.9294 4.34961 10.7246V9.97461C4.34961 9.76986 4.52042 9.59961 4.72461 9.59961H6.59961V7.68164C6.59979 7.47737 6.76997 7.34961 6.97461 7.34961H7.72461Z" fill="black"/>
<path d="M13.5566 9.67773C13.9471 9.28726 14.5802 9.28736 14.9707 9.67773C15.3612 10.0683 15.3612 10.7013 14.9707 11.0918C14.5802 11.4823 13.9472 11.4823 13.5566 11.0918C13.1663 10.7013 13.1662 10.0682 13.5566 9.67773Z" fill="black"/>
<path d="M17.7988 9.67773C18.1893 9.28726 18.8224 9.28736 19.2129 9.67773C19.6034 10.0683 19.6034 10.7013 19.2129 11.0918C18.8224 11.4823 18.1894 11.4823 17.7988 11.0918C17.4085 10.7013 17.4084 10.0682 17.7988 9.67773Z" fill="black"/>
<path d="M15.6777 7.55664C16.0682 7.16617 16.7013 7.16627 17.0918 7.55664C17.4823 7.94717 17.4823 8.58018 17.0918 8.9707C16.7013 9.36123 16.0683 9.36123 15.6777 8.9707C15.2874 8.58017 15.2873 7.94711 15.6777 7.55664Z" fill="black"/>
<path fill-rule="evenodd" clip-rule="evenodd" d="M12 0C12.4399 0.000273023 12.8022 0.334261 12.8457 0.762695L12.8496 0.849609V2.5H16.1543C20.3567 2.50019 23.6992 6.05029 23.6992 10.3496C23.6992 14.6489 20.3567 18.199 16.1543 18.1992H7.54492C3.34252 18.199 0 14.6489 0 10.3496C0 6.05029 3.34252 2.50019 7.54492 2.5H11.1504V0.849609C11.1504 0.380217 11.5306 5.2186e-05 12 0ZM7.54492 4.19922C4.35182 4.19941 1.69922 6.91718 1.69922 10.3496C1.69922 13.782 4.35182 16.4998 7.54492 16.5H16.1543C19.3474 16.4998 22 13.782 22 10.3496C22 6.91718 19.3474 4.19941 16.1543 4.19922H7.54492Z" fill="black"/>
</g>
</svg>
</svg>
