<svg width="24" height="24" viewBox="0 0 24 24" fill="none" xmlns="http://www.w3.org/2000/svg">
<g transform="translate(2.5, 2.5)">
<g>
<path d="M10.9438 5.34375C10.9438 5.03027 10.7712 4.74224 10.4949 4.59433C10.2185 4.44641 9.88311 4.46262 9.62228 4.63651L7.84103 5.82401C7.45043 6.08441 7.34488 6.61215 7.60528 7.00274C7.86568 7.39334 8.39342 7.49889 8.78402 7.23849L9.24378 6.93199V12.8062H7.71877C7.24933 12.8062 6.86877 13.1868 6.86877 13.6562C6.86877 14.1257 7.24933 14.5062 7.71877 14.5062H12.4688C12.9382 14.5062 13.3188 14.1257 13.3188 13.6562C13.3188 13.1868 12.9382 12.8062 12.4688 12.8062H10.9438V5.34375Z" fill="black"/>
<path fill-rule="evenodd" clip-rule="evenodd" d="M0 6.33333C0 2.83553 2.83554 0 6.33335 0H12.6667C16.1645 0 19.0001 2.83553 19.0001 6.33333V12.6667C19.0001 16.1645 16.1645 19 12.6667 19H6.33335C2.83554 19 0 16.1645 0 12.6667V6.33333ZM6.33335 1.7H12.6667C15.2256 1.7 17.3001 3.77441 17.3001 6.33333V12.6667C17.3001 15.2256 15.2256 17.3 12.6667 17.3H6.33335C3.77443 17.3 1.70001 15.2256 1.70001 12.6667V6.33333C1.70001 3.77441 3.77443 1.7 6.33335 1.7Z" fill="black"/>
</g>
</g>
</svg>
