<svg width="24" height="24" viewBox="0 0 24 24" fill="none" xmlns="http://www.w3.org/2000/svg">
<svg x="2.15" y="3.00" width="19.73" height="17.73" viewBox="0 0 19.7276 17.7335" fill="none">
<path id="Fill" d="M8.7539 0.423885C9.3963 -0.14204 10.3604 -0.141199 11.0029 0.425838L19.2852 7.73931C20.1823 8.5318 19.6241 10.0116 18.4277 10.0128L16.8467 10.0137V16.2159L16.8389 16.3702C16.7667 17.0803 16.2022 17.6446 15.4922 17.7169L15.3379 17.7247H11.8467V17.7335H7.84667V17.7247H4.35546L4.20117 17.7169C3.49118 17.6445 2.92667 17.0802 2.85449 16.3702L2.84667 16.2159V10.0235L1.30468 10.0254C0.105992 10.0262 -0.456259 8.54235 0.442378 7.75006L8.7539 0.423885ZM2.36132 8.3233H2.84472L4.54687 8.32135V16.0245H7.84667V13.4727C7.84667 12.3681 8.74211 11.4727 9.84667 11.4727C10.9512 11.4727 11.8467 12.3681 11.8467 13.4727V16.0245H15.1465V8.31451L16.8457 8.31353L17.3662 8.31256L9.87792 1.70025L2.36132 8.3233Z" fill="black"/>
</svg>
</svg>
