<svg width="24" height="24" viewBox="0 0 24 24" fill="none" xmlns="http://www.w3.org/2000/svg">
<g transform="translate(3.9022, 2.9)">
<path fill-rule="evenodd" clip-rule="evenodd" d="M10.9368 0.248959C11.2688 -0.0829864 11.807 -0.0829864 12.1389 0.248959L15.9466 4.05665C16.106 4.21606 16.1956 4.43226 16.1956 4.65769C16.1956 4.88313 16.106 5.09933 15.9466 5.25873L12.1389 9.06643C11.807 9.39837 11.2688 9.39837 10.9368 9.06643C10.6049 8.73448 10.6049 8.19629 10.9368 7.86434L13.2935 5.50769H0.850003C0.380559 5.50769 0 5.12713 0 4.65769C0 4.18825 0.380559 3.80769 0.850003 3.80769H13.2935L10.9368 1.45104C10.6049 1.1191 10.6049 0.580905 10.9368 0.248959ZM5.25875 9.13359C5.5907 9.46554 5.5907 10.0037 5.25875 10.3357L2.90209 12.6923H15.3456C15.815 12.6923 16.1956 13.0729 16.1956 13.5423C16.1956 14.0118 15.815 14.3923 15.3456 14.3923H2.90209L5.25875 16.749C5.5907 17.0809 5.5907 17.6191 5.25875 17.9511C4.9268 18.283 4.38861 18.283 4.05666 17.9511L0.24896 14.1434C0.0895536 13.984 0 13.7678 0 13.5423C0 13.3169 0.0895536 13.1007 0.24896 12.9413L4.05666 9.13359C4.38861 8.80164 4.9268 8.80164 5.25875 9.13359Z" fill="black"/>
</g>
</svg>
