<svg width="24" height="24" viewBox="0 0 24 24" fill="none" xmlns="http://www.w3.org/2000/svg">
<svg x="3.57" y="0.60" width="16.85" height="21.36" viewBox="0 0 16.8518 21.3569" fill="none">
<path id="Fill" d="M5.38134 21.3457C6.66207 21.3457 7.2238 20.4581 8.8191 20.4581C10.4144 20.4581 10.7964 21.312 12.2119 21.312C13.6275 21.312 14.5375 19.9863 15.425 18.6831C16.4136 17.1889 16.8181 15.7284 16.8518 15.661C16.7619 15.6385 14.0881 14.5038 14.0881 11.3469C14.0881 8.60568 16.2002 7.36988 16.3125 7.28C14.9195 5.21284 12.7961 5.1679 12.2232 5.1679C10.6616 5.1679 9.38083 6.14531 8.57194 6.14531C7.70688 6.14531 6.56096 5.22407 5.20158 5.22407C2.61764 5.22407 0 7.42605 0 11.5716C0 14.1443 0.977404 16.8743 2.16826 18.6381C3.19061 20.1323 4.08937 21.3569 5.38134 21.3569V21.3457ZM8.67305 4.92074C9.60552 4.92074 10.7851 4.26914 11.4817 3.40407C12.1108 2.61765 12.5714 1.51667 12.5714 0.415679C12.5714 0.269629 12.5602 0.112346 12.5265 0C11.4817 0.0449383 10.2347 0.719013 9.48194 1.62901C8.88651 2.32556 8.34725 3.40407 8.34725 4.5163C8.34725 4.67358 8.36972 4.8421 8.39219 4.89827C8.4596 4.90951 8.56071 4.92074 8.67305 4.92074Z" fill="black"/>
</svg>
</svg>
