<svg width="24" height="24" viewBox="0 0 24 24" fill="none" xmlns="http://www.w3.org/2000/svg">
<g transform="translate(2.355, 2.5)">
<g>
<path d="M10.4965 5.74998C10.4965 5.28054 10.116 4.89998 9.64655 4.89998C9.1771 4.89998 8.79655 5.28054 8.79655 5.74998V6.00756C8.51896 6.08849 8.24317 6.22126 7.98681 6.42554C7.43551 6.86486 7.13655 7.55004 7.22761 8.25562C7.32109 8.97998 7.80452 9.5964 8.55578 9.95173C8.76601 10.0512 9.0423 10.1341 9.26123 10.1998L9.33253 10.2212C9.59662 10.301 9.8398 10.3779 10.0554 10.4735C10.5237 10.681 10.5465 10.8261 10.5465 10.9113C10.5465 11.0368 10.4772 11.2372 10.0684 11.3476C9.65827 11.4583 9.01546 11.4136 8.32365 11.0115C7.9178 10.7756 7.39754 10.9133 7.16162 11.3192C6.9257 11.725 7.06346 12.2453 7.46932 12.4812C7.90388 12.7338 8.35341 12.9077 8.79655 13.0055V13.25C8.79655 13.7194 9.1771 14.1 9.64655 14.1C10.116 14.1 10.4965 13.7194 10.4965 13.25V12.9928C10.5015 12.9915 10.5065 12.9902 10.5115 12.9888C11.4237 12.7426 12.2465 12.0268 12.2465 10.9113C12.2465 9.75546 11.3533 9.18919 10.7442 8.91926C10.4211 8.7761 10.0853 8.67278 9.82443 8.59392C9.52689 8.50398 9.37143 8.45695 9.28263 8.41495C8.97179 8.26793 8.92193 8.10235 8.91363 8.03803C8.9029 7.95495 8.93365 7.84478 9.04626 7.75505C9.20742 7.62662 9.46246 7.56564 9.82882 7.61941C10.1931 7.67286 10.5407 7.82497 10.7279 7.94273C11.1253 8.19273 11.65 8.07328 11.9 7.67595C12.15 7.27861 12.0306 6.75384 11.6332 6.50384C11.3519 6.32683 10.9501 6.1411 10.4965 6.02322V5.74998Z" fill="black"/>
<path fill-rule="evenodd" clip-rule="evenodd" d="M17.1262 15.166C18.3034 13.5841 19.0001 11.6234 19.0001 9.5C19.0001 4.25329 14.7468 0 9.50004 0C4.25331 0 0 4.25329 0 9.5C0 14.7467 4.25331 19 9.50004 19H18.288C19.1485 19 19.6072 17.9854 19.0387 17.3394L17.1262 15.166ZM15.7624 14.1511L14.9404 15.2556L16.7396 17.3H9.50004C5.19219 17.3 1.7 13.8078 1.7 9.5C1.7 5.19219 5.19219 1.7 9.50004 1.7C13.8079 1.7 17.3001 5.19219 17.3001 9.5C17.3001 11.2454 16.7288 12.8525 15.7624 14.1511Z" fill="black"/>
</g>
</g>
</svg>
