<svg width="24" height="24" viewBox="0 0 24 24" fill="none" xmlns="http://www.w3.org/2000/svg">
<svg x="2.00" y="2.00" width="20.00" height="17.60" viewBox="0 0 20 17.5975" fill="none">
<g id="Fill">
<path d="M1.7 10C1.7 5.41604 5.41604 1.7 10 1.7C14.584 1.7 18.3 5.41604 18.3 10C18.3 12.4229 17.263 14.6023 15.6059 16.1208C15.2599 16.438 15.2364 16.9757 15.5536 17.3217C15.8707 17.6678 16.4084 17.6913 16.7545 17.3741C18.7481 15.5471 20 12.9191 20 10C20 4.47715 15.5228 0 10 0C4.47715 0 0 4.47715 0 10C0 12.9191 1.25189 15.5471 3.24548 17.3741C3.59157 17.6913 4.12925 17.6678 4.44642 17.3217C4.76359 16.9757 4.74015 16.438 4.39405 16.1208C2.73705 14.6023 1.7 12.4229 1.7 10Z" fill="black"/>
<path d="M4.18785 7.29256C4.28891 7.07024 4.5358 6.95345 4.77178 7.01634L10.5708 8.56182C10.5777 8.56366 10.5846 8.56565 10.5914 8.56778C11.2003 8.75833 11.643 9.32655 11.643 9.99948C11.643 10.8279 10.9714 11.4995 10.143 11.4995C9.82373 11.4995 9.5264 11.3992 9.28272 11.2284L4.36364 7.91415C4.16111 7.77769 4.08678 7.51488 4.18785 7.29256Z" fill="black"/>
</g>
</svg>
</svg>
