<svg width="24" height="24" viewBox="0 0 24 24" fill="none" xmlns="http://www.w3.org/2000/svg">
<g transform="translate(3.3613, 3)">
<g>
<path fill-rule="evenodd" clip-rule="evenodd" d="M9.23891 3.79568C10.6635 3.32867 11.9143 2.74741 12.9569 2.04886V14.4301C12.566 14.2246 12.1215 14.0193 11.6212 13.822C11.1708 13.6443 10.6995 13.4842 10.2068 13.343V14.0734C10.2068 16.2421 8.4488 18.0001 6.28017 18.0001C4.11154 18.0001 2.35352 16.2421 2.35352 14.0734V12.6999C2.10059 12.7195 1.84454 12.7424 1.58536 12.7687C0.736997 12.855 0 12.1891 0 11.3363V6.51367C0 5.71823 0.645041 5.07351 1.44025 5.07391L1.62102 5.07137L2.50092 5.03176C2.92563 5.0052 3.3836 4.96654 3.86787 4.91368C5.70642 4.71297 7.54183 4.35203 9.23891 3.79568ZM4.05352 12.6171V14.0734C4.05352 15.3032 5.05042 16.3001 6.28017 16.3001C7.50991 16.3001 8.50682 15.3032 8.50682 14.0734V12.9483C7.16013 12.7039 5.67785 12.5865 4.05352 12.6171Z" fill="black"/>
<path d="M15.1165 15.9827V0.19187C16.0183 -0.338774 17.2773 0.280637 17.2773 1.44266V14.7328C17.2773 15.8881 16.0243 16.5175 15.1165 15.9827Z" fill="black"/>
</g>
</g>
</svg>
