<svg width="24" height="24" viewBox="0 0 24 24" fill="none" xmlns="http://www.w3.org/2000/svg">
<g transform="translate(1.7352, 1.3488)">
<g id="Fill">
<path fill-rule="evenodd" clip-rule="evenodd" d="M10.2721 6.3543C7.87641 6.3543 5.93435 8.29634 5.93435 10.692C5.93435 13.0877 7.87641 15.0297 10.2721 15.0297C12.6677 15.0297 14.6098 13.0877 14.6098 10.692C14.6098 8.29634 12.6677 6.3543 10.2721 6.3543ZM8.53434 10.692C8.53434 9.7323 9.31233 8.9543 10.2721 8.9543C11.2318 8.9543 12.0098 9.7323 12.0098 10.692C12.0098 11.6517 11.2318 12.4297 10.2721 12.4297C9.31233 12.4297 8.53434 11.6517 8.53434 10.692Z" fill="black"/>
<path fill-rule="evenodd" clip-rule="evenodd" d="M8.9401 21.2148C7.77896 21.0763 6.84152 20.2134 6.62847 19.0736L6.45803 18.2214C6.11714 18.0616 5.78691 17.8698 5.48863 17.6781H5.46733L4.5725 17.987C3.47527 18.3599 2.26086 17.987 1.55779 17.0815C1.02515 16.3891 0.577739 15.6434 0.236853 14.8551C-0.242519 13.7792 0.0664095 12.4902 0.971888 11.7339L1.64301 11.18C1.64301 11.1026 1.64051 11.0227 1.63793 10.9403C1.63519 10.8526 1.63236 10.762 1.63236 10.6686C1.63236 10.4982 1.63236 10.3278 1.64301 10.1573L0.971888 9.59272C0.045104 8.80443 -0.253171 7.55806 0.2262 6.45019C0.577739 5.65124 1.02515 4.90555 1.55779 4.22378C2.27152 3.30765 3.47527 2.94546 4.5725 3.3183L5.46733 3.62723C5.78691 3.42483 6.11714 3.23308 6.45803 3.07329L6.62847 2.22108C6.85218 1.08124 7.77896 0.21838 8.9401 0.079895C9.83493 -0.0266317 10.7085 -0.0266317 11.6033 0.079895C12.7644 0.21838 13.7019 1.08124 13.9256 2.22108L14.0854 3.07329C14.4262 3.23308 14.7565 3.42483 15.0654 3.62723L15.9709 3.32896C17.0681 2.95611 18.2825 3.32896 18.9856 4.23443C19.5182 4.92686 19.9656 5.67254 20.3065 6.46084C20.7859 7.53676 20.477 8.82573 19.5715 9.58207L18.9004 10.136C18.9004 10.2212 18.903 10.3063 18.9057 10.3915C18.9084 10.4767 18.911 10.5622 18.911 10.6473C18.911 10.8178 18.911 10.9776 18.8897 11.1587L19.5608 11.7126C19.7457 11.867 19.9053 12.0428 20.0383 12.2338L20.0466 12.2458C20.1445 12.3883 20.2278 12.5391 20.2959 12.6958C20.5831 13.3571 20.5996 14.1241 20.3065 14.8125C20.3065 14.8125 20.3065 14.8338 20.2959 14.8338C19.9443 15.6221 19.4969 16.3678 18.9749 17.0602C18.2612 17.9764 17.0575 18.3386 15.9602 17.9657L15.0654 17.6568L15.0228 17.6781C14.7139 17.8698 14.3943 18.0509 14.0747 18.2107L13.9043 19.0629C13.6806 20.2028 12.7538 21.0656 11.582 21.2041C11.3518 21.2315 11.1217 21.2533 10.893 21.268C10.6862 21.2812 10.4805 21.2887 10.277 21.2893L10.2717 21.2893L10.2504 21.2893L10.2717 21.3L10.2504 21.3L10.2451 21.3C10.0449 21.2994 9.84253 21.2921 9.639 21.2792C9.40704 21.2646 9.17357 21.2426 8.9401 21.2148ZM3.73411 15.5259C3.71701 15.5313 3.69572 15.5328 3.66961 15.5249C3.64248 15.5167 3.62393 15.5024 3.61264 15.4885C3.2033 14.9552 2.87116 14.3964 2.62327 13.8232L2.61759 13.81L2.61279 13.7993C2.61231 13.7961 2.61176 13.7878 2.61512 13.7736C2.62097 13.7489 2.63219 13.7353 2.6376 13.7303L4.243 12.4052V11.18C4.243 11.0602 4.23929 10.9428 4.2369 10.8671L4.2364 10.8511C4.23364 10.7627 4.23234 10.7131 4.23234 10.6686C4.23234 10.4848 4.23318 10.3955 4.23793 10.3195L4.31969 9.01144L2.65372 7.60992C2.62973 7.58906 2.61736 7.57217 2.61117 7.56211C2.60457 7.55138 2.60216 7.54386 2.60115 7.53963C2.60016 7.53547 2.59967 7.53093 2.60021 7.52468C2.60069 7.5192 2.60246 7.50664 2.61083 7.48637C2.874 6.89072 3.20821 6.33445 3.60664 5.82446L3.6088 5.82168C3.6292 5.79551 3.65036 5.78346 3.66958 5.77768C3.68807 5.77212 3.70844 5.77117 3.7337 5.7793L5.80148 6.49318L6.85845 5.82377C7.12576 5.65447 7.35509 5.52426 7.56154 5.42749L8.75009 4.87036L9.17797 2.73099L9.17978 2.72181C9.1838 2.70134 9.19171 2.68971 9.20094 2.68114C9.20603 2.67642 9.21189 2.67245 9.21848 2.66938C9.22453 2.66656 9.23368 2.66331 9.24801 2.6616C9.93827 2.57947 10.6051 2.57947 11.2954 2.6616C11.348 2.66788 11.3687 2.69965 11.3737 2.7193L11.7754 4.86199L12.9818 5.42749C13.1871 5.52372 13.4091 5.65038 13.6405 5.80204L14.6887 6.48875L16.7959 5.79462L16.8074 5.79071C16.8248 5.7848 16.8467 5.78293 16.8738 5.79112C16.9009 5.79932 16.9195 5.81358 16.9308 5.82745C17.3401 6.36081 17.6722 6.91956 17.9201 7.49282L17.9258 7.50593L17.9306 7.51671C17.9311 7.51985 17.9316 7.52821 17.9283 7.54239C17.9224 7.56711 17.9112 7.5807 17.9058 7.58569L16.3004 8.91077V10.136C16.3004 10.2626 16.3042 10.383 16.3066 10.4619L16.307 10.4729C16.3099 10.5649 16.311 10.6095 16.311 10.6473C16.311 10.7393 16.3108 10.7807 16.3097 10.8165C16.3088 10.8444 16.3077 10.8538 16.3075 10.8548L16.142 12.262L17.8956 13.7093C17.9031 13.7161 17.9115 13.7272 17.9163 13.7472C17.9198 13.7621 17.9194 13.7741 17.9176 13.7831C17.6564 14.3671 17.32 14.9326 16.9182 15.4693C16.8996 15.4907 16.8806 15.5011 16.8631 15.5063C16.8447 15.5119 16.8243 15.5129 16.799 15.5047L14.8805 14.8424L13.7532 15.406L13.6517 15.469C13.4006 15.6249 13.1507 15.7658 12.912 15.8852L11.7746 16.4539L11.3548 18.553L11.3529 18.5622C11.349 18.5823 11.3417 18.5925 11.3336 18.6C11.3289 18.6043 11.3229 18.6086 11.3151 18.6122C11.3078 18.6156 11.2958 18.6199 11.2768 18.6221L11.2746 18.6224C10.9055 18.6663 10.563 18.6893 10.2504 18.6893L10.2479 18.7C9.94187 18.6988 9.60761 18.6759 9.24801 18.6331C9.22008 18.6297 9.20338 18.6195 9.19382 18.6106C9.18896 18.6061 9.1867 18.6026 9.1859 18.6012L9.18526 18.5999C9.18493 18.5991 9.18457 18.5979 9.18419 18.5959L9.18118 18.5798L8.75009 16.4243L7.56154 15.8672C7.35385 15.7698 7.1269 15.6404 6.89459 15.491L6.25225 15.0781H5.03115L3.73411 15.5259Z" fill="black"/>
</g>
</g>
</svg>
