<svg width="24" height="24" viewBox="0 0 24 24" fill="none" xmlns="http://www.w3.org/2000/svg">
<g transform="translate(3.0498, 3.7)">
<g>
<path fill-rule="evenodd" clip-rule="evenodd" d="M6.45035 7.6C8.0924 7.6 9.49119 6.55847 10.0221 5.1H16.6003C17.3182 5.1 17.9003 4.51797 17.9003 3.8C17.9003 3.08203 17.3182 2.5 16.6003 2.5H10.0221C9.49119 1.04153 8.0924 0 6.45035 0C4.8083 0 3.40951 1.04153 2.87856 2.5H1.29999C0.582026 2.5 0 3.08203 0 3.8C0 4.51797 0.582026 5.1 1.29999 5.1H2.87856C3.40951 6.55847 4.8083 7.6 6.45035 7.6ZM6.45035 2.6C5.78761 2.6 5.25035 3.13726 5.25035 3.8C5.25035 4.46274 5.78761 5 6.45035 5C7.10564 5 7.63825 4.47475 7.65014 3.82229L7.64995 3.8L7.65014 3.77771C7.63825 3.12525 7.10564 2.6 6.45035 2.6Z" fill="black"/>
<path fill-rule="evenodd" clip-rule="evenodd" d="M1.29999 11.5C0.582026 11.5 0 12.082 0 12.8C0 13.518 0.582026 14.1 1.29999 14.1H7.87852C8.40947 15.5585 9.80826 16.6 11.4503 16.6C13.0924 16.6 14.4912 15.5585 15.0221 14.1H16.6003C17.3182 14.1 17.9003 13.518 17.9003 12.8C17.9003 12.082 17.3182 11.5 16.6003 11.5H15.0221C14.4912 10.0415 13.0924 9 11.4503 9C9.80826 9 8.40947 10.0415 7.87852 11.5H1.29999ZM12.6501 12.7777C12.6382 12.1252 12.1056 11.6 11.4503 11.6C10.7876 11.6 10.2503 12.1373 10.2503 12.8C10.2503 13.4627 10.7876 14 11.4503 14C12.1056 14 12.6382 13.4748 12.6501 12.8223C12.65 12.8149 12.6499 12.8075 12.6499 12.8C12.6499 12.7925 12.65 12.7851 12.6501 12.7777Z" fill="black"/>
</g>
</g>
</svg>
