<svg width="24" height="24" viewBox="0 0 24 24" fill="none" xmlns="http://www.w3.org/2000/svg">
<g transform="translate(2, 4)">
<g>
<path fill-rule="evenodd" clip-rule="evenodd" d="M16 1.7H3.99999C2.72974 1.7 1.69999 2.72975 1.69999 4V12C1.69999 13.2703 2.72974 14.3 3.99999 14.3H16C17.2702 14.3 18.2999 13.2703 18.2999 12V4C18.2999 2.72975 17.2702 1.7 16 1.7ZM3.99999 0C1.79086 0 0 1.79086 0 4V12C0 14.2091 1.79086 16 3.99999 16H16C18.2091 16 19.9999 14.2091 19.9999 12V4C19.9999 1.79086 18.2091 0 16 0H3.99999Z" fill="black"/>
<path d="M11.2187 10.8184V5.18164H13.5078C15.207 5.18164 16.2109 6.16602 16.2109 7.95898V7.9668C16.2109 9.76758 15.207 10.8184 13.5078 10.8184H11.2187ZM12.6523 9.66211H13.3203C14.2539 9.66211 14.7539 9.0957 14.7539 7.9707V7.96289C14.7539 6.9082 14.2226 6.33789 13.3203 6.33789H12.6523V9.66211Z" fill="black"/>
<path d="M4.24999 10.8184V5.18164H5.68358V7.39648H7.92966V5.18164H9.35935V10.8184H7.92966V8.54883H5.68358V10.8184H4.24999Z" fill="black"/>
</g>
</g>
</svg>
