<svg width="24" height="24" viewBox="0 0 24 24" fill="none" xmlns="http://www.w3.org/2000/svg">
<g transform="translate(2, 2)">
<g>
<path fill-rule="evenodd" clip-rule="evenodd" d="M10.4532 7.0625V12.9341H12.7644C14.5222 12.9341 15.5191 11.8599 15.5191 9.9637V9.95557C15.5191 8.11637 14.51 7.0625 12.7644 7.0625H10.4532ZM12.569 11.9209H11.682V8.07568H12.569C13.6351 8.07568 14.2658 8.76742 14.2658 9.97591V9.98405C14.2658 11.2373 13.6555 11.9209 12.569 11.9209Z" fill="black"/>
<path fill-rule="evenodd" clip-rule="evenodd" d="M4.48829 12.9341L6.52687 7.0625H7.97138L10.014 12.9341H8.72008L8.28469 11.5099H6.21356L5.77817 12.9341H4.48829ZM7.21454 8.23438L6.49432 10.5903H8.00393L7.28778 8.23438H7.21454Z" fill="black"/>
<path fill-rule="evenodd" clip-rule="evenodd" d="M20.0001 10C20.0001 15.5228 15.5229 20 10 20C4.47717 20 0 15.5228 0 10C0 4.47715 4.47717 0 10 0C15.5229 0 20.0001 4.47715 20.0001 10ZM15.2384 16.4385C13.8097 17.6022 11.9864 18.3 10 18.3C5.41605 18.3 1.7 14.584 1.7 10C1.7 8.01367 2.39776 6.19031 3.56153 4.76165L4.90093 6.10104C5.23287 6.43299 5.77107 6.43299 6.10301 6.10104C6.43496 5.7691 6.43496 5.23091 6.10301 4.89896L4.76382 3.55977C6.19216 2.39705 8.01469 1.7 10 1.7C14.584 1.7 18.3001 5.41604 18.3001 10C18.3001 11.9853 17.603 13.8079 16.4403 15.2362L15.103 13.899C14.7711 13.567 14.2329 13.567 13.901 13.899C13.569 14.2309 13.569 14.7691 13.901 15.101L15.2384 16.4385Z" fill="black"/>
</g>
</g>
</svg>
