<svg width="24" height="24" viewBox="0 0 24 24" fill="none" xmlns="http://www.w3.org/2000/svg">
<g transform="translate(2, 2)">
<path fill-rule="evenodd" clip-rule="evenodd" d="M0 10C0 4.47715 4.47722 0 10 0C15.5228 0 20.0001 4.47715 20.0001 10C20.0001 15.5228 15.5228 20 10 20C4.47722 20 0 15.5228 0 10ZM5.69801 10C5.69801 9.28203 6.28004 8.7 6.998 8.7H8.69799V7C8.69799 6.28203 9.28002 5.7 9.99798 5.7C10.7159 5.7 11.298 6.28203 11.298 7V8.7H12.998C13.716 8.7 14.298 9.28203 14.298 10C14.298 10.718 13.716 11.3 12.998 11.3H11.298V13C11.298 13.718 10.7159 14.3 9.99798 14.3C9.28001 14.3 8.69799 13.718 8.69799 13V11.3H6.998C6.28004 11.3 5.69801 10.718 5.69801 10Z" fill="black"/>
</g>
</svg>
