<svg width="24" height="24" viewBox="0 0 24 24" fill="none" xmlns="http://www.w3.org/2000/svg">
<svg x="2.00" y="5.88" width="20.00" height="12.46" viewBox="0 0 20 12.4562" fill="none">
<g id="Fill">
<path d="M0.93457 0C1.11543 6.4026e-05 1.29276 0.0526849 1.44434 0.151367L9.5752 5.44531C10.0076 5.72683 10.1301 6.30588 9.84863 6.73828C9.77762 6.84727 9.68421 6.93976 9.5752 7.01074L1.44434 12.3047C1.01204 12.5861 0.432956 12.4644 0.151367 12.0322C0.05269 11.8807 6.98804e-05 11.7033 0 11.5225V0.93457C0 0.418607 0.418604 0 0.93457 0Z" fill="black"/>
<path d="M10.9346 0C11.1154 6.4026e-05 11.2928 0.0526849 11.4443 0.151367L19.5752 5.44531C20.0076 5.72683 20.1301 6.30588 19.8486 6.73828C19.7776 6.84727 19.6842 6.93976 19.5752 7.01074L11.4443 12.3047C11.012 12.5861 10.433 12.4644 10.1514 12.0322C10.0527 11.8807 10.0001 11.7033 10 11.5225V0.93457C10 0.418607 10.4186 0 10.9346 0Z" fill="black"/>
</g>
</svg>
</svg>
