<svg width="24" height="24" viewBox="0 0 24 24" fill="none" xmlns="http://www.w3.org/2000/svg">
<svg x="3.37" y="4.15" width="17.20" height="15.70" viewBox="0 0 17.1974 15.7" fill="none">
<g id="Fill">
<path d="M14.115 0.228134C14.1246 0.237109 14.1341 0.246307 14.1433 0.255718L16.9484 3.06086C17.2804 3.39281 17.2804 3.931 16.9484 4.26294C16.6165 4.59489 16.0783 4.59489 15.7464 4.26294L14.3864 2.90297V13.85C14.3864 14.3194 14.0058 14.7 13.5364 14.7C13.0669 14.7 12.6864 14.3194 12.6864 13.85V2.90125L11.3248 4.26293C10.9928 4.59488 10.4546 4.59489 10.1227 4.26295C9.79072 3.93101 9.79071 3.39282 10.1227 3.06087L12.9345 0.24897C13.0939 0.0895592 13.3101 1.90739e-06 13.5355 0C13.7509 -2.02652e-06 13.9579 0.0817729 14.115 0.228134Z" fill="black"/>
<path d="M3.08243 15.4719C3.07278 15.4629 3.06333 15.4537 3.0541 15.4443L0.248959 12.6391C-0.0829864 12.3072 -0.0829864 11.769 0.248959 11.4371C0.580905 11.1051 1.11909 11.1051 1.45104 11.4371L2.81101 12.797V1.85C2.81101 1.38056 3.19157 1 3.66101 1C4.13046 1 4.51101 1.38056 4.51101 1.85V12.7988L5.87265 11.4371C6.20459 11.1051 6.74278 11.1051 7.07473 11.437C7.40668 11.769 7.40669 12.3072 7.07475 12.6391L4.26295 15.451C4.10355 15.6104 3.88735 15.7 3.66191 15.7C3.44648 15.7 3.23949 15.6182 3.08243 15.4719Z" fill="black"/>
</g>
</svg>
</svg>
