<svg width="24" height="24" viewBox="0 0 24 24" fill="none" xmlns="http://www.w3.org/2000/svg">
<g transform="translate(1.6098, 1.4497)">
<g>
<path d="M15.7342 1.83155C14.3049 0.684357 12.4192 0 10.3981 0C6.22447 0 2.63071 2.91643 2.43717 6.80245L2.42916 6.92301L2.42829 10.2409L1.83136 11.4565L15.7342 1.83155Z" fill="black"/>
<path d="M4.92237 16.1277H17.7644C18.4655 16.1277 19.155 15.8927 19.6052 15.3528C20.0765 14.7878 20.1496 14.05 19.8964 13.3697L19.88 13.3256L18.3664 10.2515L18.3645 6.93862L18.364 6.92455C18.363 6.89116 18.3617 6.85783 18.3602 6.82458L4.92237 16.1277Z" fill="black"/>
<path d="M6.89577 18.2012C7.20869 19.8522 8.65913 21.1006 10.4012 21.1006C12.1432 21.1006 13.5936 19.8522 13.9066 18.2012H6.89577Z" fill="black"/>
<path d="M20.2201 3.71338C20.8104 3.30471 20.9577 2.49487 20.549 1.90456C20.1403 1.31425 19.3305 1.167 18.7402 1.57568L0.560146 14.1618C-0.0301617 14.5705 -0.177408 15.3803 0.231263 15.9706C0.639933 16.561 1.44976 16.7082 2.04007 16.2995L20.2201 3.71338Z" fill="black"/>
</g>
</g>
</svg>
