<svg width="24" height="24" viewBox="0 0 24 24" fill="none" xmlns="http://www.w3.org/2000/svg">
<g transform="translate(3, 10)">
<g>
<path d="M2.00001 0C3.10458 -4.82823e-08 4.00002 0.89543 4.00002 2C4.00002 3.10457 3.10459 4 2.00001 4C0.895435 4 4.82825e-08 3.10457 0 2C-4.82825e-08 0.89543 0.895435 4.82823e-08 2.00001 0Z" fill="black"/>
<path d="M9.00005 0C10.1046 -4.82823e-08 11.0001 0.89543 11.0001 2C11.0001 3.10457 10.1046 4 9.00005 4C7.89547 4 7.00004 3.10457 7.00004 2C7.00003 0.89543 7.89547 4.82823e-08 9.00005 0Z" fill="black"/>
<path d="M16.0001 0C17.1047 -4.82823e-08 18.0001 0.89543 18.0001 2C18.0001 3.10457 17.1047 4 16.0001 4C14.8955 4 14.0001 3.10457 14.0001 2C14.0001 0.89543 14.8955 4.82823e-08 16.0001 0Z" fill="black"/>
</g>
</g>
</svg>
