<svg width="24" height="24" viewBox="0 0 24 24" fill="none" xmlns="http://www.w3.org/2000/svg">
<g transform="translate(3.4472, 3.8514)">
<path fill-rule="evenodd" clip-rule="evenodd" d="M15.2546 6.58673C16.8829 5.71702 17.5646 3.71495 16.775 2.02167C15.9581 0.269782 13.8757 -0.488162 12.1238 0.328758C10.3719 1.14568 9.61398 3.22811 10.4309 4.98C10.7092 5.57687 11.1344 6.05836 11.6434 6.40151L9.90811 7.21071L1.20943 3.15443C0.783967 2.95603 0.278235 3.1401 0.0798408 3.56556C-0.118553 3.99102 0.0655192 4.49676 0.490978 4.69515L7.89684 8.14858L0.490978 11.602C0.065519 11.8004 -0.118553 12.3061 0.0798406 12.7316C0.278235 13.1571 0.783967 13.3411 1.20943 13.1427L9.90811 9.08645L11.6446 9.89619C11.1359 10.2393 10.711 10.7206 10.4328 11.3172C9.61594 13.0691 10.3739 15.1515 12.1258 15.9684C13.8776 16.7853 15.9601 16.0274 16.777 14.2755C17.5668 12.5817 16.8845 10.5789 15.255 9.7096L15.1021 9.63273C15.0961 9.62989 15.0901 9.62706 15.0841 9.62425C15.078 9.62144 15.072 9.61865 15.066 9.61587L11.9194 8.14858L15.2546 6.58673ZM15.2343 2.74013C15.6544 3.6411 15.2646 4.71206 14.3637 5.13219C13.4627 5.55231 12.3917 5.16252 11.9716 4.26154C11.5515 3.36057 11.9413 2.28961 12.8422 1.86948C13.7432 1.44936 14.8142 1.83915 15.2343 2.74013ZM14.3526 11.159L14.3786 11.1711C15.2703 11.5954 15.6544 12.6604 15.2362 13.557C14.8161 14.458 13.7452 14.8478 12.8442 14.4277C11.9432 14.0076 11.5534 12.9366 11.9736 12.0356C12.3917 11.139 13.4544 10.7486 14.3526 11.159Z" fill="black"/>
</g>
</svg>
