<svg width="24" height="24" viewBox="0 0 24 24" fill="none" xmlns="http://www.w3.org/2000/svg">
<g transform="translate(1.9987, 3.1396)">
<g>
<path d="M15.6499 0C17.7762 0 19.4999 1.7237 19.4999 3.85V7.0789C17.9086 5.17449 15.3739 4 12.6705 4C8.17467 4 4.14551 7.24824 4.14551 11.7C4.14551 14.2005 5.41665 16.3212 7.32766 17.7H3.85C1.7237 17.7 0 15.9763 0 13.85V3.85C0 1.7237 1.72371 0 3.85 0H15.6499Z" fill="black"/>
<path fill-rule="evenodd" clip-rule="evenodd" d="M18.7145 14.4886C19.2128 13.6555 19.4947 12.7068 19.4947 11.7002C19.4947 8.38649 16.4391 5.7002 12.6697 5.7002C8.90038 5.7002 5.84473 8.38649 5.84473 11.7002C5.84473 15.0139 8.90038 17.7002 12.6697 17.7002C14.2316 17.7002 15.6708 17.239 16.821 16.4631L18.7152 17.5996C19.0497 17.8003 19.4778 17.7476 19.7536 17.4718C20.0294 17.196 20.0821 16.7679 19.8814 16.4334L18.7145 14.4886ZM10.6699 11.7001C10.6699 12.251 10.2222 12.6976 9.66992 12.6976C9.11764 12.6976 8.66992 12.251 8.66992 11.7001C8.66992 11.1492 9.11764 10.7026 9.66992 10.7026C10.2222 10.7026 10.6699 11.1492 10.6699 11.7001ZM12.6699 12.6976C13.2222 12.6976 13.6699 12.251 13.6699 11.7001C13.6699 11.1492 13.2222 10.7026 12.6699 10.7026C12.1176 10.7026 11.6699 11.1492 11.6699 11.7001C11.6699 12.251 12.1176 12.6976 12.6699 12.6976ZM16.6699 11.7001C16.6699 12.251 16.2222 12.6976 15.6699 12.6976C15.1176 12.6976 14.6699 12.251 14.6699 11.7001C14.6699 11.1492 15.1176 10.7026 15.6699 10.7026C16.2222 10.7026 16.6699 11.1492 16.6699 11.7001Z" fill="black"/>
</g>
</g>
</svg>
