<svg width="24" height="24" viewBox="0 0 24 24" fill="none" xmlns="http://www.w3.org/2000/svg">
<g transform="translate(1.9989, 4.4695)">
<g>
<path fill-rule="evenodd" clip-rule="evenodd" d="M0.999997 3.53353H3.81943L9.35941 0.148267C10.0258 -0.258914 10.8808 0.220656 10.8808 1.00157V14.0595C10.8808 14.8402 10.0262 15.3198 9.35985 14.9131L3.82293 11.5335H0.999997C0.447714 11.5335 0 11.0858 0 10.5335V4.53353C0 3.98125 0.447714 3.53353 0.999997 3.53353ZM4.29772 5.23353H1.69999V9.83353H4.30075L9.18083 12.8121V2.24965L4.29772 5.23353Z" fill="black"/>
<path d="M13.014 3.22001C13.3461 2.8882 13.8843 2.88841 14.2161 3.22049C15.3182 4.3235 16.0013 5.84959 16.0013 7.5336C16.0013 9.21761 15.3182 10.7437 14.2161 11.8467C13.8843 12.1788 13.3461 12.179 13.014 11.8472C12.6819 11.5154 12.6817 10.9772 13.0135 10.6451C13.81 9.84799 14.3013 8.74908 14.3013 7.5336C14.3013 6.31812 13.81 5.21921 13.0135 4.42209C12.6817 4.09001 12.6819 3.55182 13.014 3.22001Z" fill="black"/>
<path d="M17.044 0.391633C16.712 0.0596883 16.1738 0.0596904 15.8419 0.391637C15.5099 0.723584 15.5099 1.26177 15.8419 1.59372C17.3629 3.11475 18.3022 5.21358 18.3022 7.53341C18.3022 9.85324 17.3629 11.9521 15.8419 13.4731C15.5099 13.8051 15.5099 14.3432 15.8419 14.6752C16.1738 15.0071 16.712 15.0071 17.044 14.6752C18.8708 12.8484 20.0022 10.3222 20.0022 7.53341C20.0022 4.74461 18.8708 2.21844 17.044 0.391633Z" fill="black"/>
</g>
</g>
</svg>
