<svg width="24" height="24" viewBox="0 0 24 24" fill="none" xmlns="http://www.w3.org/2000/svg">
<svg x="2.15" y="2.15" width="19.70" height="19.70" viewBox="0 0 19.6992 19.6992" fill="none">
<path id="Fill" d="M9.84961 0C11.9724 0 13.9408 0.671955 15.5498 1.81543C15.9325 2.08738 16.0219 2.61833 15.75 3.00098C15.4781 3.38343 14.948 3.47293 14.5654 3.20117C13.2346 2.25536 11.6081 1.69922 9.84961 1.69922C5.34849 1.69922 1.69922 5.34849 1.69922 9.84961C1.69922 14.3507 5.34849 18 9.84961 18C14.3507 18 18 14.3507 18 9.84961C18 9.14983 17.9112 8.47148 17.7461 7.8252C17.6302 7.37062 17.9049 6.90831 18.3594 6.79199C18.8141 6.67583 19.2772 6.94972 19.3936 7.4043C19.5935 8.18694 19.6992 9.00673 19.6992 9.84961C19.6992 15.2896 15.2896 19.6992 9.84961 19.6992C4.4096 19.6992 0 15.2896 0 9.84961C0 4.4096 4.4096 0 9.84961 0ZM17.7549 3.24219C18.0903 2.91391 18.6287 2.9196 18.957 3.25488C19.2853 3.59034 19.2797 4.12867 18.9443 4.45703L9.55762 13.6436C9.23752 13.9566 8.72896 13.9678 8.39551 13.6689L4.28223 9.98242C3.93293 9.66913 3.90373 9.13174 4.2168 8.78223C4.5301 8.43279 5.06745 8.40362 5.41699 8.7168L8.93652 11.8711L17.7549 3.24219Z" fill="black"/>
</svg>
</svg>
