<svg width="24" height="24" viewBox="0 0 24 24" fill="none" xmlns="http://www.w3.org/2000/svg">
<g transform="translate(2.15, 3.1168)">
<path fill-rule="evenodd" clip-rule="evenodd" d="M2.62695 2.85752C2.62695 1.27935 3.90631 0 5.48447 0H6.37774C7.7996 0 9.061 0.687044 9.84805 1.74726C10.6351 0.687045 11.8965 0 13.3183 0H14.2116C15.7898 0 17.0691 1.27935 17.0691 2.85752C17.0691 3.11094 17.0303 3.3553 16.9583 3.58496H17.6091C18.7639 3.58496 19.7 4.52109 19.7 5.67587V7.67511C19.7 8.7138 18.9426 9.57559 17.95 9.73837V14.4346C17.95 16.2747 16.4583 17.7664 14.6182 17.7664H5.08182C3.24171 17.7664 1.75 16.2747 1.75 14.4346V9.73837C0.757376 9.57559 0 8.7138 0 7.67511V5.67587C0 4.52109 0.936132 3.58496 2.09091 3.58496H2.73784C2.66579 3.3553 2.62695 3.11094 2.62695 2.85752ZM5.48447 1.7C4.84519 1.7 4.32695 2.21824 4.32695 2.85752C4.32695 3.25921 4.65259 3.58485 5.05429 3.58485H8.89261C8.57512 2.49575 7.56936 1.7 6.37774 1.7H5.48447ZM2.09091 5.28496C1.87502 5.28496 1.7 5.45998 1.7 5.67587V7.67511C1.7 7.89101 1.87502 8.06602 2.09091 8.06602H9V5.28496H2.09091ZM10.7 5.28496V8.06602H17.6091C17.825 8.06602 18 7.89101 18 7.67511V5.67587C18 5.45998 17.825 5.28496 17.6091 5.28496H10.7ZM9 9.76641H3.45V14.4346C3.45 15.3358 4.18059 16.0664 5.08182 16.0664H9V9.76641ZM10.7 16.0664V9.76641H16.25V14.4346C16.25 15.3358 15.5194 16.0664 14.6182 16.0664H10.7ZM15.3691 2.85752C15.3691 2.21824 14.8509 1.7 14.2116 1.7H13.3183C12.1267 1.7 11.121 2.49575 10.8035 3.58485H14.6418C15.0435 3.58485 15.3691 3.25921 15.3691 2.85752Z" fill="black"/>
</g>
</svg>
