<svg width="24" height="24" viewBox="0 0 24 24" fill="none" xmlns="http://www.w3.org/2000/svg">
<g transform="translate(2, 2)">
<g>
<path fill-rule="evenodd" clip-rule="evenodd" d="M18.3001 10C18.3001 5.41605 14.584 1.7 10 1.7C5.41604 1.7 1.69999 5.41605 1.69999 10C1.69999 14.584 5.41604 18.3 10 18.3C14.584 18.3 18.3001 14.584 18.3001 10ZM20.0001 10C20.0001 4.47715 15.5229 0 10 0C4.47717 0 0 4.47715 0 10C0 15.5228 4.47717 20 10 20C15.5229 20 20.0001 15.5228 20.0001 10Z" fill="black"/>
<path d="M11.0022 10.7498C11.0022 11.3021 10.5544 11.7498 10.0022 11.7498C9.44986 11.7498 9.00215 11.3021 9.00215 10.7498V5.74985C9.00215 5.19756 9.44986 4.74985 10.0022 4.74985C10.5544 4.74985 11.0022 5.19757 11.0022 5.74985L11.0022 10.7498Z" fill="black"/>
<path d="M11.0022 14.2498C11.0022 14.8021 10.5544 15.2498 10.0022 15.2498C9.44987 15.2498 9.00215 14.8021 9.00215 14.2498C9.00215 13.6976 9.44987 13.2498 10.0022 13.2498C10.5544 13.2498 11.0022 13.6976 11.0022 14.2498Z" fill="black"/>
</g>
</g>
</svg>
