<svg width="24" height="24" viewBox="0 0 24 24" fill="none" xmlns="http://www.w3.org/2000/svg">
<g transform="translate(2.3604, 1.4497)">
<path fill-rule="evenodd" clip-rule="evenodd" d="M2.27521 16.1277C1.57367 16.1277 0.886329 15.887 0.437497 15.3476C-0.0313965 14.7841 -0.112728 14.0453 0.142484 13.3575L0.158844 13.3134L1.66761 10.2409L1.66847 6.92301L1.67648 6.80245C1.87003 2.91643 5.4638 0 9.63748 0C13.854 0 17.4815 2.97868 17.6034 6.92455L17.6038 6.93862L17.6058 10.2515L19.1193 13.3256L19.1358 13.3697C19.3889 14.05 19.3158 14.7878 18.8446 15.3528C18.3944 15.8927 17.7048 16.1277 17.0038 16.1277H2.27521ZM13.1544 18.2008C13.1201 18.3816 13.0722 18.5576 13.0118 18.7277C12.6819 19.6559 11.9786 20.4072 11.0825 20.8008C10.6438 20.9935 10.1588 21.1005 9.64893 21.1005C9.13901 21.1005 8.65408 20.9935 8.21534 20.8008C7.31931 20.4072 6.61598 19.6559 6.28608 18.7277C6.22564 18.5576 6.17774 18.3816 6.14348 18.2008H13.1544Z" fill="black"/>
</g>
</svg>
