<svg width="24" height="24" viewBox="0 0 24 24" fill="none" xmlns="http://www.w3.org/2000/svg">
<g transform="translate(1.9999, 2)">
<g>
<path d="M11.3073 8.52612L13.5378 9.01831C13.5944 9.03003 13.6374 9.06519 13.6608 9.11011C13.694 9.17554 13.6901 9.2605 13.6354 9.323L12.1139 11.0574L12.3444 13.3718C12.3503 13.4412 12.321 13.5017 12.2721 13.5388C12.2233 13.5769 12.1549 13.5896 12.0905 13.5603L10.0006 12.6228L7.9108 13.5603C7.78385 13.6179 7.64322 13.5134 7.65689 13.3718L7.88736 11.0574L6.36588 9.323C6.32877 9.28101 6.3151 9.23022 6.319 9.1814C6.32682 9.1062 6.37955 9.03589 6.46353 9.01831L8.694 8.52612L9.84439 6.51538C9.91471 6.39331 10.0885 6.39331 10.1569 6.51538L11.3073 8.52612Z" fill="black"/>
<path fill-rule="evenodd" clip-rule="evenodd" d="M10.0001 0C15.523 0 20.0002 4.47715 20.0002 10C20.0002 15.5228 15.523 20 10.0001 20C4.4772 20 0 15.5228 0 10C0 4.47715 4.4772 0 10.0001 0ZM10.0001 1.7C14.5841 1.7 18.3002 5.41605 18.3002 10C18.3002 14.5839 14.5841 18.3 10.0001 18.3C5.41606 18.3 1.7 14.5839 1.7 10C1.7 5.41605 5.41606 1.7 10.0001 1.7Z" fill="black"/>
</g>
</g>
</svg>
