<svg width="24" height="24" viewBox="0 0 24 24" fill="none" xmlns="http://www.w3.org/2000/svg">
<g transform="translate(2.4582, 2.1501)">
<path d="M2.75663 0.85C2.75663 0.380558 2.37607 0 1.90663 0C1.43719 0 1.05664 0.380558 1.05664 0.85V5.59097C1.05664 6.06041 1.43719 6.44097 1.90663 6.44097H6.64761C7.11705 6.44097 7.49761 6.06041 7.49761 5.59097C7.49761 5.12153 7.11705 4.74097 6.64761 4.74097H3.87164C5.30028 3.24588 7.31247 2.31621 9.5418 2.31621C13.8727 2.31621 17.3836 5.8271 17.3836 10.158C17.3836 14.4889 13.8727 17.9998 9.5418 17.9998C5.21088 17.9998 1.69999 14.4889 1.69999 10.158C1.69999 9.68854 1.31944 9.30798 0.849996 9.30798C0.380556 9.30798 0 9.68854 0 10.158C0 15.4278 4.27201 19.6998 9.5418 19.6998C14.8116 19.6998 19.0836 15.4278 19.0836 10.158C19.0836 4.8882 14.8116 0.616211 9.5418 0.616211C6.88699 0.616211 4.48553 1.70099 2.75663 3.44933V0.85Z" fill="black"/>
</g>
</svg>
