<svg width="24" height="24" viewBox="0 0 24 24" fill="none" xmlns="http://www.w3.org/2000/svg">
<g transform="translate(4.0005, 4.4695)">
<g>
<path fill-rule="evenodd" clip-rule="evenodd" d="M1 3.53353H3.81942L9.35939 0.148269C10.0257 -0.258915 10.8808 0.220654 10.8808 1.00157V14.0595C10.8808 14.8402 10.0262 15.3198 9.35982 14.913L3.82292 11.5335H1C0.447715 11.5335 0 11.0858 0 10.5335V4.53353C0 3.98124 0.447715 3.53353 1 3.53353Z" fill="black"/>
<path fill-rule="evenodd" clip-rule="evenodd" d="M13.0103 3.22025C13.3422 2.8883 13.8804 2.8883 14.2124 3.22025C15.3153 4.3232 15.999 5.84937 15.999 7.5336C15.999 9.21783 15.3153 10.744 14.2124 11.847C13.8804 12.1789 13.3422 12.1789 13.0103 11.847C12.6783 11.515 12.6783 10.9768 13.0103 10.6449C13.8075 9.84769 14.299 8.74886 14.299 7.5336C14.299 6.31834 13.8075 5.21951 13.0103 4.42233C12.6783 4.09039 12.6783 3.5522 13.0103 3.22025Z" fill="black"/>
</g>
</g>
</svg>
