<svg width="24" height="24" viewBox="0 0 24 24" fill="none" xmlns="http://www.w3.org/2000/svg">
<g transform="translate(2.5, 2.5)">
<g>
<path d="M11.7826 9.48442C11.7188 9.41834 11.613 9.41794 11.5486 9.48353L9.44664 11.6256C9.12004 11.9585 8.58627 11.9661 8.25036 11.6426L7.28921 10.7171C7.22355 10.6539 7.11884 10.6567 7.05659 10.7233L4.69523 13.2497C4.37467 13.5927 3.83679 13.6109 3.49382 13.2903C3.15086 12.9698 3.13269 12.4319 3.45324 12.0889L5.81461 9.56246C6.52471 8.80272 7.71925 8.77126 8.46835 9.49255L8.82296 9.834L10.3352 8.29287C11.0695 7.54455 12.2764 7.54912 13.005 8.30297L15.5426 10.9285C15.8689 11.266 15.8597 11.8041 15.5222 12.1304C15.1846 12.4566 14.6465 12.4475 14.3202 12.1099L11.7826 9.48442Z" fill="black"/>
<path d="M5.68937 6.85526C6.33329 6.85526 6.85528 6.33326 6.85528 5.68935C6.85528 5.04543 6.33329 4.52344 5.68937 4.52344C5.04545 4.52344 4.52346 5.04543 4.52346 5.68935C4.52346 6.33326 5.04545 6.85526 5.68937 6.85526Z" fill="black"/>
<path fill-rule="evenodd" clip-rule="evenodd" d="M6.33336 0C2.83554 0 0 2.83553 0 6.33334V12.6667C0 16.1645 2.83555 19 6.33336 19H12.6667C16.1645 19 19.0001 16.1645 19.0001 12.6667V6.33333C19.0001 2.83553 16.1645 0 12.6667 0H6.33336ZM12.6667 1.7H6.33336C3.77443 1.7 1.70001 3.77442 1.70001 6.33334V12.6667C1.70001 15.2256 3.77443 17.3 6.33336 17.3H12.6667C15.2257 17.3 17.3001 15.2256 17.3001 12.6667V6.33333C17.3001 3.77442 15.2257 1.7 12.6667 1.7Z" fill="black"/>
</g>
</g>
</svg>
