<svg width="24" height="24" viewBox="0 0 24 24" fill="none" xmlns="http://www.w3.org/2000/svg">
<g transform="translate(2, 4.5)">
<path d="M9.39897 4.27396C9.73092 3.94201 10.2691 3.94201 10.6011 4.27396L12.5 6.17292L14.399 4.27396C14.7309 3.94201 15.2691 3.94201 15.6011 4.27396C15.933 4.60591 15.933 5.14409 15.6011 5.47604L13.7021 7.375L15.6011 9.27396C15.933 9.60591 15.933 10.1441 15.6011 10.476C15.2691 10.808 14.7309 10.808 14.399 10.476L12.5 8.57708L10.6011 10.476C10.2691 10.808 9.73092 10.808 9.39897 10.476C9.06702 10.1441 9.06702 9.60591 9.39897 9.27396L11.2979 7.375L9.39897 5.47604C9.06702 5.14409 9.06702 4.60591 9.39897 4.27396Z" fill="black"/>
<path fill-rule="evenodd" clip-rule="evenodd" d="M0 7.5L6.62133 0.87868C7.18394 0.316071 7.947 0 8.74265 0H18C19.1046 0 20 0.895431 20 2V13C20 14.1046 19.1046 15 18 15H8.74265C7.947 15 7.18394 14.6839 6.62133 14.1213L0 7.5ZM2.40417 7.5L7.82341 12.9192C8.06721 13.163 8.39787 13.3 8.74265 13.3H18C18.1657 13.3 18.3 13.1657 18.3 13V2C18.3 1.83432 18.1657 1.7 18 1.7H8.74265C8.39787 1.7 8.06721 1.83696 7.82341 2.08076L2.40417 7.5Z" fill="black"/>
</g>
</svg>
