<svg width="24" height="24" viewBox="0 0 24 24" fill="none" xmlns="http://www.w3.org/2000/svg">
<svg x="3.07" y="2.00" width="17.86" height="20.00" viewBox="0 0 17.8627 19.9994" fill="none">
<path id="Fill" fill-rule="evenodd" clip-rule="evenodd" d="M7.27384 2.18904C7.16698 2.37396 7.10019 2.56051 7.07331 2.69489L7.05254 2.79875L5.31506 6.4387C5.17192 6.73858 5.00348 7.02572 4.81158 7.29701L2.25426 10.9122C2.03488 11.2224 1.88782 11.4992 1.8224 11.7673C1.48747 13.1402 1.87817 14.4443 2.5721 15.5791C3.2563 16.698 4.19544 17.581 4.83871 18.0698C4.85118 18.0771 4.86341 18.0842 4.87538 18.0911C4.87172 18.0716 4.86784 18.0516 4.86374 18.0311C4.77894 17.6072 4.62934 17.1133 4.47525 16.6046C4.45636 16.5423 4.4374 16.4797 4.41848 16.417C4.33528 16.1411 4.25267 15.8612 4.19094 15.6107C4.13321 15.3764 4.07524 15.0978 4.07524 14.8471C4.07524 14.4559 4.16698 13.9477 4.31421 13.4668C4.46131 12.9862 4.69215 12.4391 5.02615 12.0096C5.34931 11.5941 5.92975 11.1033 6.73315 11.2475C7.44838 11.3759 7.99997 11.9643 8.44692 12.7025C8.46235 12.6655 8.47814 12.6257 8.49421 12.583C8.817 11.725 9.03371 10.2995 9.12759 9.19598C9.12935 8.97884 9.14646 8.72625 9.18812 8.47628C9.23007 8.22458 9.30691 7.91213 9.46114 7.63794C9.61384 7.36647 9.94472 6.9707 10.5188 6.95248C11.0264 6.93636 11.4275 7.23608 11.7012 7.50975C12.3921 8.20066 13.2969 9.74931 13.747 11.4749C14.1988 13.2065 14.2512 15.3564 12.8866 17.0621C12.7294 17.2586 12.6003 17.4323 12.495 17.5848C14.8082 15.9941 15.7948 14.4406 16.0732 13.0489C16.3807 11.5114 15.8686 9.95202 14.879 8.43474C13.8908 6.91948 12.4871 5.5421 11.1925 4.42014C10.5486 3.86208 9.94206 3.37588 9.43513 2.9699C9.416 2.95458 9.39693 2.93931 9.37794 2.9241C8.91566 2.55396 8.49642 2.21828 8.25369 1.97554C8.01334 1.7352 7.86704 1.70516 7.82316 1.70097C7.78373 1.69719 7.72002 1.70336 7.61597 1.77992C7.50419 1.86217 7.38142 2.00288 7.27384 2.18904ZM7.98501 0.00868719C8.5285 0.0606661 9.02248 0.340178 9.45577 0.773462C9.62408 0.941771 9.96946 1.21984 10.4978 1.64298C11.004 2.04833 11.6341 2.55327 12.3059 3.13546C13.6427 4.294 15.1861 5.79356 16.303 7.50609C17.4185 9.2166 18.1694 11.2359 17.7402 13.3823C17.309 15.5379 15.7321 17.6038 12.6703 19.4992L12.5576 19.569L12.429 19.6011C12.1807 19.6632 11.8544 19.7099 11.5284 19.661C11.2016 19.612 10.7163 19.4324 10.4879 18.9023C10.2826 18.4258 10.4053 17.9218 10.5794 17.5186C10.765 17.089 11.0883 16.5886 11.5591 16.0001C12.4399 14.8991 12.4924 13.4002 12.1021 11.904C11.7971 10.735 11.2576 9.71386 10.8298 9.11485C10.8282 9.1555 10.8274 9.19527 10.8274 9.23351V9.26886L10.8245 9.3041C10.7297 10.4416 10.4984 12.0835 10.0853 13.1816C9.97998 13.4617 9.84966 13.7429 9.68423 13.9821C9.52729 14.2089 9.27625 14.4889 8.89753 14.6172C8.46319 14.7642 8.04619 14.6532 7.72354 14.4296C7.43187 14.2275 7.19877 13.9264 7.00315 13.6003C6.73185 13.1482 6.54477 12.9931 6.46777 12.9427C6.44439 12.9635 6.41124 12.9978 6.36805 13.0533C6.21087 13.2554 6.05578 13.5853 5.93975 13.9644C5.82383 14.343 5.77524 14.6768 5.77524 14.8471C5.77524 14.847 5.77524 14.8495 5.77554 14.8548C5.77583 14.86 5.77636 14.8673 5.77732 14.8768C5.77927 14.8962 5.78265 14.9218 5.78811 14.9544C5.79917 15.0204 5.81673 15.1032 5.84156 15.204C5.89167 15.4073 5.96258 15.6493 6.04605 15.926C6.06426 15.9864 6.08311 16.0485 6.10237 16.112C6.25255 16.6068 6.42845 17.1864 6.53071 17.6976C6.58848 17.9864 6.63279 18.2991 6.62479 18.5924C6.61752 18.8595 6.56407 19.2749 6.26365 19.604C5.91043 19.9909 5.43074 20.0414 5.04788 19.9746C4.68853 19.9118 4.31094 19.7359 3.92681 19.5054L3.8892 19.4828L3.85412 19.4565C3.08745 18.8815 1.95903 17.8352 1.12177 16.466C0.281582 15.092 -0.30621 13.3198 0.170845 11.3644C0.308671 10.7995 0.590587 10.3204 0.866391 9.9305L3.42371 6.31527C3.55985 6.12282 3.67934 5.91912 3.78088 5.70638L5.4315 2.24841C5.57983 1.64187 5.97623 0.875825 6.60847 0.410633C6.96635 0.147313 7.43709 -0.0437164 7.98501 0.00868719ZM6.51031 12.9139C6.51027 12.9147 6.50578 12.9176 6.49691 12.9201C6.5059 12.9143 6.51034 12.9131 6.51031 12.9139ZM10.9427 8.47153C10.9427 8.47158 10.9428 8.47148 10.9427 8.47153Z" fill="black"/>
</svg>
</svg>
