<svg width="24" height="24" viewBox="0 0 24 24" fill="none" xmlns="http://www.w3.org/2000/svg">
<g transform="translate(1.55, 1.5501)">
<g>
<path d="M9.15156 6.19962V11.1996C9.15156 11.9176 9.73359 12.4996 10.4516 12.4996C11.1695 12.4996 11.7516 11.9176 11.7516 11.1996L11.7516 6.19962C11.7516 5.48164 11.1695 4.89961 10.4516 4.89961C9.73359 4.89961 9.15156 5.48164 9.15156 6.19962Z" fill="black"/>
<path d="M10.4516 13.3996C11.1695 13.3996 11.7516 13.9816 11.7516 14.6996C11.7516 15.4176 11.1695 15.9996 10.4516 15.9996C9.7336 15.9996 9.15156 15.4176 9.15156 14.6996C9.15156 13.9816 9.7336 13.3996 10.4516 13.3996Z" fill="black"/>
<path fill-rule="evenodd" clip-rule="evenodd" d="M0 10.45C0 4.6786 4.67863 0 10.45 0C16.2214 0 20.9 4.6786 20.9 10.45C20.9 16.2213 16.2214 20.8999 10.45 20.8999C4.67863 20.8999 0 16.2213 0 10.45ZM10.45 2.6C6.11456 2.6 2.6 6.11455 2.6 10.45C2.6 14.7854 6.11456 18.2999 10.45 18.2999C14.7854 18.2999 18.3 14.7854 18.3 10.45C18.3 6.11455 14.7854 2.6 10.45 2.6Z" fill="black"/>
</g>
</g>
</svg>
