<svg width="24" height="24" viewBox="0 0 24 24" fill="none" xmlns="http://www.w3.org/2000/svg">
<g transform="translate(2.3605, 1.4497)">
<path fill-rule="evenodd" clip-rule="evenodd" d="M2.2752 16.1277C1.57367 16.1277 0.886328 15.887 0.437496 15.3476C-0.0313965 14.7841 -0.112728 14.0453 0.142484 13.3575L0.158844 13.3134L1.6676 10.2409L1.66847 6.92301L1.67648 6.80245C1.87003 2.91643 5.46379 0 9.63747 0C13.8539 0 17.4815 2.97868 17.6034 6.92455L17.6038 6.93862L17.6058 10.2515L19.1193 13.3256L19.1357 13.3697C19.3889 14.05 19.3158 14.7878 18.8446 15.3528C18.3944 15.8927 17.7048 16.1277 17.0037 16.1277H2.2752ZM16.3208 13.5277H2.95019L4.26743 10.8452L4.26844 7.00963L4.27218 6.95331L4.27325 6.93178C4.38378 4.71263 6.54735 2.6 9.63747 2.6C12.7527 2.6 14.9204 4.74245 15.0039 6.98195L15.0062 10.8576L16.3208 13.5277ZM13.1544 18.2008C13.1201 18.3816 13.0722 18.5576 13.0118 18.7277C12.6819 19.6559 11.9785 20.4072 11.0825 20.8008C10.6438 20.9935 10.1588 21.1005 9.64892 21.1005C9.139 21.1005 8.65407 20.9935 8.21533 20.8008C7.3193 20.4072 6.61597 19.6559 6.28607 18.7277C6.22564 18.5576 6.17773 18.3816 6.14347 18.2008H13.1544Z" fill="black"/>
</g>
</svg>
