<svg width="24" height="24" viewBox="0 0 24 24" fill="none" xmlns="http://www.w3.org/2000/svg">
<g transform="translate(2, 2)">
<path fill-rule="evenodd" clip-rule="evenodd" d="M20.0001 10C20.0001 15.5229 15.5229 20 10.0001 20C4.47718 20 0 15.5229 0 10C0 4.47716 4.47718 0 10.0001 0C15.5229 0 20.0001 4.47716 20.0001 10ZM15.2358 16.4407C13.8075 17.6031 11.9852 18.3 10.0001 18.3C5.41604 18.3 1.69999 14.584 1.69999 10C1.69999 8.01491 2.39688 6.19258 3.55936 4.76431L15.2358 16.4407ZM16.4382 15.2389L4.76115 3.56194C6.18989 2.39792 8.01347 1.7 10.0001 1.7C14.5841 1.7 18.3001 5.41605 18.3001 10C18.3001 11.9866 17.6022 13.8101 16.4382 15.2389Z" fill="black"/>
</g>
</svg>
