<svg width="24" height="24" viewBox="0 0 24 24" fill="none" xmlns="http://www.w3.org/2000/svg">
<g transform="translate(3.5, 2)">
<g>
<path fill-rule="evenodd" clip-rule="evenodd" d="M11.6209 7.68886C11.9723 8.0001 12.0049 8.5373 11.6937 8.88874L8.51585 12.4771C8.3654 12.6469 8.15327 12.7496 7.92669 12.7622C7.70012 12.7748 7.47791 12.6963 7.30956 12.5441L5.25039 10.683C4.90212 10.3682 4.87496 9.83073 5.18974 9.48246C5.50451 9.13419 6.04202 9.10703 6.39029 9.42181L7.81245 10.7072L10.421 7.76165C10.7323 7.41022 11.2695 7.37763 11.6209 7.68886Z" fill="black"/>
<path fill-rule="evenodd" clip-rule="evenodd" d="M0.0279018 13.1323C0.0534217 13.2976 0.102247 13.5195 0.195536 13.7785C0.383463 14.3003 0.747552 14.9602 1.44172 15.6027C1.97404 16.0953 3.17443 16.9237 4.3518 17.702C5.55498 18.4973 6.81288 19.291 7.51495 19.73C7.81793 19.9194 8.15997 19.994 8.50004 20C8.84011 19.994 9.18215 19.9194 9.48513 19.73C10.1872 19.291 11.4451 18.4973 12.6483 17.702C13.8257 16.9237 15.026 16.0953 15.5584 15.6027C16.2525 14.9602 16.6166 14.3003 16.8045 13.7785C16.8978 13.5195 16.9467 13.2976 16.9722 13.1323C16.9849 13.0496 16.9919 12.9808 16.9957 12.9284C16.9976 12.9021 16.9987 12.8799 16.9993 12.862L16.9999 12.8384L17 12.8291L17.0001 12.825L17.0001 12.8223V5.1784C17.0001 3.6158 15.7594 2.38261 14.2558 2.26401C13.5185 2.20585 12.8065 2.12166 12.3802 2.01063C12.0756 1.93127 11.6466 1.71435 11.1562 1.40007C10.6812 1.0957 10.1842 0.738316 9.80005 0.431375C9.40901 0.118913 9.00004 -3.67297e-06 8.50004 0C8.00004 -3.67297e-06 7.59107 0.118913 7.20003 0.431375C6.81591 0.738317 6.31888 1.0957 5.84391 1.40007C5.35349 1.71435 4.9245 1.93127 4.61986 2.01063C4.19361 2.12166 3.48162 2.20585 2.74429 2.26401C1.24068 2.38261 0 3.6158 0 5.1784V12.8223L7.62943e-06 12.825L3.33788e-05 12.8291L0.000154496 12.8384L0.000776295 12.862C0.00140027 12.8799 0.00249676 12.9021 0.00438788 12.9283C0.00816834 12.9808 0.0151366 13.0496 0.0279018 13.1323ZM1.70001 12.8063C1.70069 12.8157 1.7027 12.8385 1.70801 12.873C1.71868 12.9421 1.74249 13.0568 1.79497 13.2025C1.89846 13.4898 2.11852 13.9127 2.59644 14.355C3.00563 14.7337 4.07544 15.4815 5.28924 16.2838C6.4721 17.0657 7.713 17.8488 8.41126 18.2854C8.41986 18.2885 8.44657 18.2962 8.50004 18.2992C8.55352 18.2962 8.58024 18.2885 8.58883 18.2854C9.28709 17.8488 10.528 17.0657 11.7108 16.2838C12.9246 15.4815 13.9945 14.7337 14.4036 14.355C14.8816 13.9127 15.1016 13.4898 15.2051 13.2025C15.2576 13.0568 15.2814 12.9421 15.2921 12.873C15.2974 12.8386 15.2994 12.8157 15.3001 12.8063V5.1784C15.3001 4.56197 14.8016 4.01234 14.1221 3.95875C13.3869 3.90075 12.539 3.80872 11.9517 3.65573C11.3778 3.50622 10.7638 3.16773 10.2389 2.8314C9.71599 2.49628 9.17074 2.10459 8.73881 1.75945C8.71344 1.73918 8.69711 1.72942 8.68913 1.72507C8.68152 1.72093 8.67593 1.71865 8.66985 1.71669C8.65967 1.71341 8.61421 1.7 8.50005 1.7C8.38589 1.7 8.34041 1.71341 8.33023 1.71669C8.32415 1.71865 8.31856 1.72093 8.31096 1.72507C8.30297 1.72942 8.28664 1.73918 8.26127 1.75945C7.82934 2.10459 7.28409 2.49628 6.76115 2.8314C6.23631 3.16773 5.62233 3.50622 5.04839 3.65573C4.46107 3.80872 3.61322 3.90075 2.87797 3.95875C2.19846 4.01234 1.70001 4.56197 1.70001 5.1784V12.8063Z" fill="black"/>
</g>
</g>
</svg>
