<svg width="24" height="24" viewBox="0 0 24 24" fill="none" xmlns="http://www.w3.org/2000/svg">
<g transform="translate(2.5, 2.5)">
<path fill-rule="evenodd" clip-rule="evenodd" d="M19.0001 9.5C19.0001 14.7467 14.7468 19 9.50004 19C4.25331 19 0 14.7467 0 9.5C0 4.25329 4.25331 0 9.50004 0C14.7468 0 19.0001 4.25329 19.0001 9.5ZM5.78551 5.78351C6.11745 5.45157 6.65564 5.45156 6.98759 5.78351L9.50541 8.30132L12.0232 5.78351C12.3552 5.45156 12.8934 5.45157 13.2253 5.78351C13.5573 6.11546 13.5572 6.65365 13.2253 6.9856L10.7075 9.5034L13.2253 12.0212C13.5572 12.3531 13.5573 12.8913 13.2253 13.2233C12.8934 13.5552 12.3552 13.5552 12.0232 13.2233L9.50541 10.7055L6.98759 13.2233C6.65564 13.5552 6.11745 13.5552 5.78551 13.2233C5.45357 12.8913 5.45357 12.3531 5.78552 12.0212L8.30333 9.5034L5.78552 6.9856C5.45357 6.65365 5.45357 6.11546 5.78551 5.78351Z" fill="black"/>
</g>
</svg>
