<svg width="24" height="24" viewBox="0 0 24 24" fill="none" xmlns="http://www.w3.org/2000/svg">
<g transform="translate(2.9995, 3.4793)">
<path fill-rule="evenodd" clip-rule="evenodd" d="M7.62034 0.544247C8.40672 -0.182668 9.61955 -0.180817 10.4047 0.546216L17.3395 6.96766C18.7058 8.2328 17.8155 10.52 15.9499 10.5214L13.7324 10.5231V14.6915C13.7324 15.9893 12.6803 17.0415 11.3824 17.0415H6.59652C5.29865 17.0415 4.24652 15.9893 4.24652 14.6915V10.5302L2.05713 10.5318C0.192709 10.5332 -0.709338 8.24404 0.662338 6.97609L7.62034 0.544247ZM9.24967 1.79358C9.1148 1.66869 8.90773 1.66925 8.77429 1.7926L1.81629 8.22444C1.58403 8.43914 1.73492 8.83208 2.05586 8.83184L5.94652 8.82893V14.6915C5.94652 15.0505 6.23753 15.3415 6.59652 15.3415H11.3824C11.7414 15.3415 12.0324 15.0505 12.0324 14.6915V8.82437L15.9486 8.82144C16.2645 8.82121 16.4196 8.43279 16.1844 8.21502L9.24967 1.79358Z" fill="black"/>
</g>
</svg>
