<svg width="24" height="24" viewBox="0 0 24 24" fill="none" xmlns="http://www.w3.org/2000/svg">
<g transform="translate(4.0937, 2.9499)">
<g>
<path d="M7.90623 10.4102C8.37567 10.4102 8.75623 10.7907 8.75623 11.2602V13.0102C8.75623 13.4796 8.37567 13.8602 7.90623 13.8602C7.43679 13.8602 7.05623 13.4796 7.05623 13.0102V11.2602C7.05623 10.7907 7.43679 10.4102 7.90623 10.4102Z" fill="black"/>
<path fill-rule="evenodd" clip-rule="evenodd" d="M2.41562 5.48963C2.41562 2.45779 4.87342 0 7.90527 0C9.91081 0 11.6642 1.07596 12.6211 2.67806C12.8618 3.08108 12.7303 3.60294 12.3272 3.84366C11.9242 4.08439 11.4023 3.95282 11.1616 3.54979C10.4988 2.44007 9.28803 1.7 7.90527 1.7C5.81229 1.7 4.11561 3.39668 4.11561 5.48963V6.18008H12.3126C14.2456 6.18008 15.8126 7.74708 15.8126 9.68008V14.6001C15.8126 16.5331 14.2456 18.1001 12.3126 18.1001H3.49999C1.567 18.1001 0 16.5331 0 14.6001V9.68008C0 8.12558 1.01342 6.80778 2.41562 6.3513V5.48963ZM3.49999 7.88008H12.3126C13.3067 7.88008 14.1126 8.68596 14.1126 9.68008V14.6001C14.1126 15.5942 13.3067 16.4001 12.3126 16.4001H3.49999C2.50588 16.4001 1.7 15.5942 1.7 14.6001V9.68008C1.7 8.68597 2.50588 7.88008 3.49999 7.88008Z" fill="black"/>
</g>
</g>
</svg>
