<svg width="24" height="24" viewBox="0 0 24 24" fill="none" xmlns="http://www.w3.org/2000/svg">
<svg x="3.00" y="3.00" width="18.00" height="18.00" viewBox="0 0 18 18" fill="none">
<g id="Fill">
<path d="M6.65 5C6.65 4.53056 7.03056 4.15 7.5 4.15H10.5C10.9694 4.15 11.35 4.53056 11.35 5C11.35 5.46944 10.9694 5.85 10.5 5.85H7.5C7.03056 5.85 6.65 5.46944 6.65 5Z" fill="black"/>
<path d="M7.5 12.15C7.03056 12.15 6.65 12.5306 6.65 13C6.65 13.4694 7.03056 13.85 7.5 13.85H10.5C10.9694 13.85 11.35 13.4694 11.35 13C11.35 12.5306 10.9694 12.15 10.5 12.15H7.5Z" fill="black"/>
<path fill-rule="evenodd" clip-rule="evenodd" d="M0 3C0 1.34315 1.34315 0 3 0H15C16.6569 0 18 1.34315 18 3V15C18 16.6569 16.6569 18 15 18H3C1.34315 18 0 16.6569 0 15V3ZM3 1.7H15C15.718 1.7 16.3 2.28203 16.3 3V8.15H1.7V3C1.7 2.28203 2.28203 1.7 3 1.7ZM16.3 9.85V15C16.3 15.718 15.718 16.3 15 16.3H3C2.28203 16.3 1.7 15.718 1.7 15V9.85H16.3Z" fill="black"/>
</g>
</svg>
</svg>
