<svg width="24" height="24" viewBox="0 0 24 24" fill="none" xmlns="http://www.w3.org/2000/svg">
<g transform="translate(2.4, 3.7128)">
<path id="Fill" d="M4.53775 0.104224C6.32567 -0.231209 8.38441 0.235088 9.62487 1.61833C10.8626 0.228838 12.9133 -0.234077 14.6958 0.108841C17.0371 0.559233 19.2001 2.41994 19.2001 5.68943C19.2001 8.78763 16.8981 12.5022 11.078 16.1557C10.8965 16.2696 10.3242 16.5758 9.59671 16.573C8.86693 16.5701 8.26785 16.2476 8.07573 16.1266C2.29011 12.4828 0 8.77952 0 5.68943C0 4.08254 0.526374 2.78277 1.38593 1.82879C2.23691 0.884336 3.37428 0.322502 4.53775 0.104224Z" fill="black"/>
</g>
</svg>
