<svg width="24" height="24" viewBox="0 0 24 24" fill="none" xmlns="http://www.w3.org/2000/svg">
<g transform="translate(2.4582, 2.1501)">
<path d="M18.0268 0.85C18.0268 0.380558 17.6463 0 17.1768 0C16.7074 0 16.3268 0.380558 16.3268 0.85V3.44921C14.5979 1.70094 12.1965 0.616211 9.54179 0.616211C4.27201 0.616211 0 4.8882 0 10.158C0 15.4278 4.27201 19.6998 9.54179 19.6998C14.8116 19.6998 19.0836 15.4278 19.0836 10.158C19.0836 9.68854 18.703 9.30798 18.2336 9.30798C17.7642 9.30798 17.3836 9.68854 17.3836 10.158C17.3836 14.4889 13.8727 17.9998 9.54179 17.9998C5.21088 17.9998 1.69999 14.4889 1.69999 10.158C1.69999 5.8271 5.21088 2.31621 9.54179 2.31621C11.7711 2.31621 13.7833 3.24588 15.2119 4.74097H12.4359C11.9664 4.74097 11.5859 5.12153 11.5859 5.59097C11.5859 6.06041 11.9664 6.44097 12.4359 6.44097H17.1768C17.6463 6.44097 18.0268 6.06041 18.0268 5.59097V0.85Z" fill="black"/>
</g>
</svg>
