<svg width="24" height="24" viewBox="0 0 24 24" fill="none" xmlns="http://www.w3.org/2000/svg">
<g transform="translate(3.4, 3)">
<g>
<path d="M0.85 0C0.380558 0 0 0.380558 0 0.85C0 1.31944 0.380558 1.7 0.85 1.7H16.35C16.8194 1.7 17.2 1.31944 17.2 0.85C17.2 0.380558 16.8194 0 16.35 0H0.85Z" fill="black"/>
<path d="M9.18023 4.62857C9.18986 4.63753 9.19929 4.64671 9.2085 4.65611L14.2007 9.64828C14.5326 9.98023 14.5326 10.5184 14.2007 10.8504C13.8687 11.1823 13.3305 11.1823 12.9986 10.8504L9.45159 7.30336V17.15C9.45159 17.6194 9.07104 18 8.6016 18C8.13215 18 7.7516 17.6194 7.7516 17.15V7.30164L4.203 10.8504C3.87106 11.1823 3.33287 11.1823 3.00092 10.8504C2.66897 10.5184 2.66896 9.98025 3.0009 9.64829L7.99966 4.64936C8.15906 4.48995 8.37526 4.40039 8.6007 4.40039C8.81615 4.40039 9.02316 4.48218 9.18023 4.62857Z" fill="black"/>
</g>
</g>
</svg>
