<svg width="24" height="24" viewBox="0 0 24 24" fill="none" xmlns="http://www.w3.org/2000/svg">
<g transform="translate(1.9999, 2)">
<g>
<path fill-rule="evenodd" clip-rule="evenodd" d="M18.3002 10C18.3002 5.41605 14.5841 1.7 10.0001 1.7C5.41606 1.7 1.7 5.41605 1.7 10C1.7 14.5839 5.41606 18.3 10.0001 18.3C14.5841 18.3 18.3002 14.5839 18.3002 10ZM20.0002 10C20.0002 4.47715 15.523 0 10.0001 0C4.4772 0 0 4.47715 0 10C0 15.5228 4.4772 20 10.0001 20C15.523 20 20.0002 15.5228 20.0002 10Z" fill="black"/>
<path fill-rule="evenodd" clip-rule="evenodd" d="M10.1625 4.82715C9.13421 4.82715 8.33043 5.14495 7.77271 5.6844C7.21647 6.22242 6.92731 6.95937 6.88647 7.75752L6.87303 8.0203H8.55458L8.57234 7.78947C8.60646 7.34588 8.76978 7.00682 9.022 6.77811C9.27468 6.54899 9.63943 6.40996 10.1139 6.40996C10.5803 6.40996 10.9426 6.55185 11.185 6.76944C11.4258 6.98549 11.5645 7.28986 11.5645 7.6523C11.5645 7.98497 11.4956 8.22827 11.3507 8.44216C11.2012 8.66277 10.9569 8.87275 10.5675 9.11124C10.0745 9.40645 9.69265 9.72771 9.43593 10.1108C9.17612 10.4986 9.05506 10.9338 9.05871 11.4361V12.3238H10.7734V11.6226C10.7734 11.289 10.83 11.0645 10.9651 10.8663C11.1064 10.659 11.3507 10.4544 11.7819 10.1998L11.7837 10.1987C12.7295 9.62975 13.3555 8.78623 13.3555 7.58983C13.3555 5.99012 12.0156 4.82715 10.1625 4.82715ZM9.91953 13.4064C9.33867 13.4064 8.87824 13.857 8.87824 14.4476C8.87824 15.0299 9.33723 15.4889 9.91953 15.4889C10.5102 15.4889 10.9608 15.0285 10.9608 14.4476C10.9608 13.8584 10.5088 13.4064 9.91953 13.4064Z" fill="black"/>
</g>
</g>
</svg>
