<svg width="24" height="24" viewBox="0 0 24 24" fill="none" xmlns="http://www.w3.org/2000/svg">
<g transform="translate(2, 5)">
<path fill-rule="evenodd" clip-rule="evenodd" d="M0 4.8C0 3.11984 0 2.27976 0.326979 1.63803C0.614597 1.07354 1.07354 0.614601 1.63802 0.32698C2.27975 0 3.11983 0 4.79997 0H15.2001C16.8803 0 17.7203 0 18.3621 0.32698C18.9265 0.614601 19.3855 1.07354 19.6731 1.63803C20.0001 2.27976 20.0001 3.11984 20.0001 4.8V9.2C20.0001 10.8802 20.0001 11.7202 19.6731 12.362C19.3855 12.9265 18.9265 13.3854 18.3621 13.673C17.7203 14 16.8803 14 15.2001 14H4.79998C3.11983 14 2.27975 14 1.63802 13.673C1.07354 13.3854 0.614597 12.9265 0.326979 12.362C0 11.7202 0 10.8802 0 9.2V4.8ZM6.60099 4.39896C6.93293 4.73091 6.93293 5.26909 6.60099 5.60104L5.20204 7L6.60099 8.39896C6.93293 8.7309 6.93293 9.26909 6.60099 9.60104C6.26904 9.93299 5.73086 9.93299 5.39891 9.60104L3.39892 7.60104C3.06698 7.2691 3.06698 6.7309 3.39892 6.39896L5.39891 4.39896C5.73086 4.06701 6.26904 4.06701 6.60099 4.39896ZM14.6009 4.39896C14.269 4.06701 13.7308 4.06701 13.3989 4.39896C13.0669 4.7309 13.0669 5.26909 13.3989 5.60104L14.7978 7L13.3989 8.39896C13.0669 8.7309 13.0669 9.26909 13.3989 9.60104C13.7308 9.93299 14.269 9.93299 14.6009 9.60104L16.6009 7.60104C16.7603 7.44164 16.8499 7.22543 16.8499 7C16.8499 6.77457 16.7603 6.55837 16.6009 6.39896L14.6009 4.39896Z" fill="black"/>
</g>
</svg>
