<svg width="24" height="24" viewBox="0 0 24 24" fill="none" xmlns="http://www.w3.org/2000/svg">
<g transform="translate(2.9465, 3)">
<path fill-rule="evenodd" clip-rule="evenodd" d="M12.2042 2.28639C12.1273 2.56331 11.9806 2.81951 11.7736 3.02836L9.21794 5.60709C8.90464 5.92322 8.47985 6.10387 8.03481 6.11024C8.00507 6.11067 7.97525 6.1119 7.94538 6.11396L4.18414 6.3727C4.17327 6.37344 4.1661 6.37473 4.16206 6.37562C4.1588 6.37634 4.15686 6.37697 4.15599 6.37728C4.15379 6.37934 4.14504 6.38843 4.13796 6.40755C4.12988 6.42937 4.13112 6.44504 4.13192 6.44919C4.13216 6.45042 4.13233 6.45087 4.1329 6.45196C4.13334 6.45279 4.13737 6.46044 4.1508 6.47387L11.6624 13.9855C11.6707 13.9937 11.6767 13.9986 11.6803 14.0012C11.6827 14.003 11.6844 14.004 11.6854 14.0046C11.6889 14.0048 11.6997 14.0046 11.7157 13.9983C11.7363 13.9902 11.7462 13.9795 11.748 13.977C11.7483 13.9767 11.7484 13.9765 11.7486 13.9762C11.7487 13.976 11.7484 13.9766 11.7486 13.9762C11.7488 13.9755 11.7524 13.966 11.7533 13.9454L11.9209 10.1718C11.9396 9.7501 12.1146 9.35041 12.4117 9.05057L15.0847 6.35345C15.2939 6.14235 15.552 5.99241 15.8316 5.91371L12.2042 2.28639ZM8.01049 4.41042C7.95 4.41128 7.88938 4.41379 7.8287 4.41797L4.06747 4.6767C2.55822 4.78053 1.88663 6.61386 2.94873 7.67596L10.4604 15.1876C11.5443 16.2715 13.3841 15.5408 13.4516 14.0208L13.6192 10.2472L16.2922 7.55012L16.7203 7.58661C17.9159 7.68851 18.566 6.24401 17.7302 5.40815L12.7003 0.378306C11.85 -0.471955 10.4225 0.216641 10.5275 1.39647L10.5662 1.83169L8.01049 4.41042ZM0.256163 17.7424C0.514366 18.004 0.961754 18.1167 1.35281 17.8372L1.36285 17.83L6.01276 14.0409L4.98744 13.0112L3.95992 11.9837L0.170804 16.6335L0.163624 16.6436C-0.115936 17.0346 -0.00544613 17.4842 0.256163 17.7424Z" fill="black"/>
</g>
</svg>
