<svg width="24" height="24" viewBox="0 0 24 24" fill="none" xmlns="http://www.w3.org/2000/svg">
<g transform="translate(4, 4)">
<g>
<path d="M2.13334 0.533333C2.13334 0.238781 1.89456 0 1.60001 0H0.533335C0.238782 0 0 0.238781 0 0.533333V15.4667C0 15.7612 0.238782 16 0.533335 16H1.60001C1.89456 16 2.13334 15.7612 2.13334 15.4667V0.533333Z" fill="black"/>
<path d="M4.75541 8.58195C4.83652 8.70652 4.94277 8.81277 5.06735 8.89388L14.3514 14.9382C14.8451 15.2597 15.5059 15.12 15.8273 14.6263C15.94 14.4532 16.0001 14.251 16.0001 14.0443V1.9556C16.0001 1.3665 15.5225 0.888932 14.9334 0.888932C14.7268 0.888932 14.5246 0.948949 14.3514 1.06169L5.06735 7.10606C4.57365 7.42748 4.43399 8.08826 4.75541 8.58195Z" fill="black"/>
</g>
</g>
</svg>
