<svg width="24" height="24" viewBox="0 0 24 24" fill="none" xmlns="http://www.w3.org/2000/svg">
<svg x="4.15" y="3.00" width="15.70" height="17.00" viewBox="0 0 15.7 16.9999" fill="none">
<g id="Fill">
<path fill-rule="evenodd" clip-rule="evenodd" d="M2.76602 12.1904C2.76602 12.6172 3.07217 12.8862 3.53604 12.8862C3.98135 12.8862 4.23184 12.6821 4.40811 12.1255L5.475 8.96191H10.2157L11.2826 12.1255C11.4589 12.6729 11.7094 12.8862 12.1547 12.8862C12.6278 12.8862 12.934 12.6172 12.934 12.1812C12.934 12.0049 12.8876 11.8101 12.8134 11.606L9.00039 0.946289C8.76846 0.296875 8.44375 0 7.85 0C7.25625 0 6.93154 0.296875 6.69961 0.946289L2.88662 11.606C2.8124 11.8286 2.76602 12.0049 2.76602 12.1904ZM9.77969 7.65381H5.91104L7.81289 2.01318H7.87783L9.77969 7.65381Z" fill="black"/>
<path d="M0.85 15.2999C0.380558 15.2999 0 15.6805 0 16.1499C0 16.6193 0.380558 16.9999 0.85 16.9999H14.85C15.3194 16.9999 15.7 16.6193 15.7 16.1499C15.7 15.6805 15.3194 15.2999 14.85 15.2999L0.85 15.2999Z" fill="black"/>
</g>
</svg>
</svg>
