<svg width="24" height="24" viewBox="0 0 24 24" fill="none" xmlns="http://www.w3.org/2000/svg">
<g transform="translate(2.9999, 2.998)">
<g>
<path fill-rule="evenodd" clip-rule="evenodd" d="M0.29492 1.96384C0.29492 0.879241 1.17416 0 2.25875 0H6.18659C7.27119 0 8.15043 0.879241 8.15043 1.96384V5.89141C8.15043 6.97601 7.27119 7.85525 6.1866 7.85525H2.25875C1.17416 7.85525 0.29492 6.97601 0.29492 5.89141V1.96384ZM2.25875 1.7H6.18659C6.33231 1.7 6.45043 1.81813 6.45043 1.96384V5.89141C6.45043 6.03713 6.33231 6.15525 6.1866 6.15525H2.25875C2.11304 6.15525 1.99491 6.03712 1.99491 5.89141V1.96384C1.99491 1.81813 2.11303 1.7 2.25875 1.7Z" fill="black"/>
<path fill-rule="evenodd" clip-rule="evenodd" d="M10.6156 7.85456H17.0057C17.7593 7.85456 18.2383 7.0483 17.878 6.38651L14.683 0.518261C14.3067 -0.172753 13.3146 -0.172754 12.9384 0.51826L9.74334 6.38651C9.38302 7.0483 9.86208 7.85456 10.6156 7.85456ZM13.8107 2.47129L15.8161 6.15456H11.8053L13.8107 2.47129Z" fill="black"/>
<path d="M10.2626 10.2353C10.5945 9.90334 11.1327 9.90335 11.4647 10.2353L13.81 12.5808L16.1552 10.2355C16.4871 9.90358 17.0253 9.90357 17.3572 10.2355C17.6892 10.5675 17.6892 11.1056 17.3573 11.4376L15.0121 13.7829L17.3558 16.1267C17.6878 16.4586 17.6878 16.9968 17.3558 17.3288C17.0239 17.6607 16.4857 17.6607 16.1537 17.3287L13.81 14.985L11.4661 17.329C11.1342 17.6609 10.596 17.6609 10.264 17.329C9.93207 16.997 9.93206 16.4589 10.264 16.1269L12.608 13.7829L10.2626 11.4374C9.93063 11.1054 9.93064 10.5672 10.2626 10.2353Z" fill="black"/>
<path fill-rule="evenodd" clip-rule="evenodd" d="M4.22233 9.55957C1.89049 9.55957 0 11.4499 0 13.7818C0 16.1136 1.89049 18.004 4.22233 18.004C6.55418 18.004 8.44467 16.1136 8.44467 13.7818C8.44467 11.4499 6.55418 9.55957 4.22233 9.55957ZM1.69999 13.7818C1.69999 15.1747 2.82929 16.304 4.22233 16.304C5.61538 16.304 6.74468 15.1747 6.74468 13.7818C6.74468 12.3889 5.61538 11.2596 4.22233 11.2596C2.82929 11.2596 1.69999 12.3889 1.69999 13.7818Z" fill="black"/>
</g>
</g>
</svg>
