<svg width="24" height="24" viewBox="0 0 24 24" fill="none" xmlns="http://www.w3.org/2000/svg">
<g transform="translate(1.7352, 1.3512)">
<path id="Fill" fill-rule="evenodd" clip-rule="evenodd" d="M10.2717 21.3C9.83493 21.3 9.38752 21.268 8.94011 21.2148C7.77896 21.0763 6.84152 20.2134 6.62847 19.0736L6.45803 18.2214C6.11714 18.0616 5.78691 17.8698 5.48863 17.6781H5.46733L4.5725 17.987C3.47527 18.3599 2.26086 17.987 1.55779 17.0815C1.02515 16.3891 0.577739 15.6434 0.236853 14.8551C-0.242519 13.7792 0.0664094 12.4902 0.971889 11.7339L1.64301 11.18C1.64301 11.1026 1.64051 11.0227 1.63793 10.9403C1.63519 10.8526 1.63236 10.762 1.63236 10.6686C1.63236 10.4982 1.63236 10.3278 1.64301 10.1573L0.971889 9.59272C0.045104 8.80443 -0.253171 7.55806 0.2262 6.45019C0.577739 5.65124 1.02515 4.90555 1.55779 4.22378C2.27152 3.30765 3.47527 2.94546 4.5725 3.3183L5.46733 3.62723C5.78691 3.42483 6.11714 3.23308 6.45803 3.07329L6.62847 2.22108C6.85218 1.08125 7.77896 0.218379 8.94011 0.079895C9.83493 -0.0266317 10.7085 -0.0266317 11.6033 0.079895C12.7644 0.218379 13.7019 1.08125 13.9256 2.22108L14.0854 3.07329C14.4262 3.23308 14.7565 3.42483 15.0654 3.62723L15.9709 3.32896C17.0681 2.95611 18.2825 3.32896 18.9856 4.23443C19.5182 4.92686 19.9656 5.67254 20.3065 6.46084C20.7859 7.53676 20.477 8.82573 19.5715 9.58207L18.9004 10.136C18.9004 10.2212 18.903 10.3065 18.9057 10.3917C18.9084 10.4768 18.911 10.5622 18.911 10.6473C18.911 10.8178 18.911 10.9776 18.8897 11.1587L19.5608 11.7126C20.4663 12.4689 20.7646 13.7366 20.3065 14.8125C20.3065 14.8125 20.3065 14.8338 20.2959 14.8338C19.9443 15.6221 19.4969 16.3678 18.9749 17.0602C18.2612 17.9764 17.0575 18.3386 15.9602 17.9657L15.0654 17.6568L15.0228 17.6781C14.7139 17.8698 14.3943 18.0509 14.0747 18.2107L13.9043 19.0629C13.6806 20.2028 12.7538 21.0656 11.582 21.2041C11.1346 21.2574 10.6871 21.2893 10.2504 21.2893L10.2717 21.3ZM10.2726 6.8557C8.15363 6.8557 6.4359 8.57343 6.4359 10.6924C6.4359 12.8113 8.15363 14.529 10.2726 14.529C12.3915 14.529 14.1092 12.8113 14.1092 10.6924C14.1092 8.57343 12.3915 6.8557 10.2726 6.8557Z" fill="black"/>
</g>
</svg>
