<svg width="24" height="24" viewBox="0 0 24 24" fill="none" xmlns="http://www.w3.org/2000/svg">
<g transform="translate(3.7207, 3.0417)">
<g>
<path d="M5.59836 13.5869V13.8883C5.59836 15.1742 6.64077 16.2166 7.92665 16.2166C8.75832 16.2166 9.48814 15.7805 9.89996 15.1246L11.5231 15.7048C10.859 17.017 9.49788 17.9166 7.92665 17.9166C5.7019 17.9166 3.89838 16.113 3.89838 13.8883V12.9792L5.59836 13.5869Z" fill="black"/>
<path fill-rule="evenodd" clip-rule="evenodd" d="M1.69999 8.68397L14.8587 13.4064V1.9161L1.69999 6.36912V8.68397ZM0 3.87317C0 3.40927 0.376063 3.03321 0.839961 3.03321C0.961142 3.03321 1.07633 3.05887 1.18039 3.10505C1.47467 3.23567 1.67992 3.53045 1.67992 3.87317V4.5812L15.0348 0.0617983C15.783 -0.191397 16.5586 0.365013 16.5586 1.15489V14.1825C16.5586 14.9813 15.7667 15.5385 15.0149 15.2686L1.67992 10.4829V11.4941C1.67992 11.7699 1.54705 12.0146 1.34184 12.1678C1.20181 12.2723 1.02811 12.3341 0.839961 12.3341C0.376063 12.3341 0 11.958 0 11.4941V3.87317Z" fill="black"/>
</g>
</g>
</svg>
