<svg width="24" height="24" viewBox="0 0 24 24" fill="none" xmlns="http://www.w3.org/2000/svg">
<g transform="translate(1.9999, 4.4695)">
<g>
<path d="M3.81943 3.53353H0.999997C0.447714 3.53353 1.49011e-09 3.98125 1.49011e-09 4.53353V10.5335C1.49011e-09 11.0858 0.447714 11.5335 0.999997 11.5335H3.82293L9.35985 14.9131C10.0262 15.3198 10.8808 14.8402 10.8808 14.0595V1.00157C10.8808 0.220656 10.0258 -0.258914 9.35941 0.148267L3.81943 3.53353Z" fill="black"/>
<path d="M13.0121 3.22001C13.3441 2.8882 13.8823 2.88841 14.2141 3.22049C15.3163 4.3235 15.9993 5.84959 15.9993 7.5336C15.9993 9.21761 15.3163 10.7437 14.2141 11.8467C13.8823 12.1788 13.3441 12.179 13.0121 11.8472C12.68 11.5154 12.6798 10.9772 13.0116 10.6451C13.8081 9.84799 14.2993 8.74908 14.2993 7.5336C14.2993 6.31812 13.8081 5.21921 13.0116 4.42209C12.6798 4.09001 12.68 3.55182 13.0121 3.22001Z" fill="black"/>
<path d="M17.042 0.391633C16.7101 0.0596883 16.1719 0.0596904 15.8399 0.391637C15.508 0.723584 15.508 1.26177 15.8399 1.59372C17.361 3.11475 18.3002 5.21358 18.3002 7.53341C18.3002 9.85324 17.361 11.9521 15.8399 13.4731C15.508 13.8051 15.508 14.3432 15.8399 14.6752C16.1719 15.0071 16.7101 15.0071 17.042 14.6752C18.8688 12.8484 20.0002 10.3222 20.0002 7.53341C20.0002 4.74461 18.8688 2.21844 17.042 0.391633Z" fill="black"/>
</g>
</g>
</svg>
