<svg width="24" height="24" viewBox="0 0 24 24" fill="none" xmlns="http://www.w3.org/2000/svg">
<g transform="translate(2.25, 3.15)">
<g>
<path d="M1.69999 3.85C1.69999 2.66259 2.66258 1.7 3.84999 1.7H15.65C16.8374 1.7 17.7999 2.66259 17.7999 3.85V13.85C17.7999 15.0374 16.8374 16 15.65 16H12.25C11.7805 16 11.4 16.3806 11.4 16.85C11.4 17.3194 11.7805 17.7 12.25 17.7H15.65C17.7762 17.7 19.4999 15.9763 19.4999 13.85V3.85C19.4999 1.7237 17.7762 0 15.65 0H3.84999C1.7237 0 0 1.7237 0 3.85V5.35C0 5.81944 0.380557 6.2 0.849998 6.2C1.31944 6.2 1.69999 5.81944 1.69999 5.35V3.85Z" fill="black"/>
<path d="M0 8.85C0 8.38056 0.380557 8 0.849998 8C5.72666 8 9.67997 11.9533 9.67997 16.83C9.67997 17.2994 9.29942 17.68 8.82998 17.68C8.36054 17.68 7.97998 17.2994 7.97998 16.83C7.97998 12.8922 4.78778 9.7 0.849998 9.7C0.380557 9.7 0 9.31944 0 8.85Z" fill="black"/>
<path d="M0.853904 12C0.384463 12 0.00390623 12.3806 0.00390623 12.85C0.00390623 13.3194 0.384463 13.7 0.853904 13.7C2.5936 13.7 4.0039 15.1103 4.0039 16.85C4.0039 17.3194 4.38445 17.7 4.85389 17.7C5.32333 17.7 5.70389 17.3194 5.70389 16.85C5.70389 14.1714 3.53248 12 0.853904 12Z" fill="black"/>
<path d="M1.0014 17.6964C1.55231 17.6964 1.9989 17.2498 1.9989 16.6989C1.9989 16.148 1.55231 15.7014 1.0014 15.7014C0.450501 15.7014 0.00390625 16.148 0.00390625 16.6989C0.00390625 17.2498 0.450501 17.6964 1.0014 17.6964Z" fill="black"/>
</g>
</g>
</svg>
