<svg width="24" height="24" viewBox="0 0 24 24" fill="none" xmlns="http://www.w3.org/2000/svg">
<svg x="2.00" y="4.00" width="20.00" height="16.00" viewBox="0 0 20 16" fill="none">
<g id="Fill">
<path d="M12.0327 10.5401C12.1902 10.4401 12.1902 10.2103 12.0327 10.1103L8.89101 8.11527C8.72154 8.00766 8.5 8.12941 8.5 8.33016V12.3202C8.5 12.521 8.72154 12.6427 8.89101 12.5351L12.0327 10.5401Z" fill="black"/>
<path fill-rule="evenodd" clip-rule="evenodd" d="M20 2C20 0.895431 19.1046 0 18 0H2C0.895431 0 0 0.895431 0 2V14C0 15.1046 0.895431 16 2 16H18C19.1046 16 20 15.1046 20 14V2ZM16.5979 1.7H12.7521L9.80208 4.65H13.6479L16.5979 1.7ZM16.0521 4.65H18.3V2.40208L16.0521 4.65ZM10.3479 1.7H7.00208L4.05208 4.65H7.39792L10.3479 1.7ZM2 1.7H4.59792L1.7 4.59792V2C1.7 1.83431 1.83431 1.7 2 1.7ZM1.7 14V6.35H18.3V14C18.3 14.1657 18.1657 14.3 18 14.3H2C1.83431 14.3 1.7 14.1657 1.7 14Z" fill="black"/>
</g>
</svg>
</svg>
