<svg width="24" height="24" viewBox="0 0 24 24" fill="none" xmlns="http://www.w3.org/2000/svg">
<g transform="translate(2.4988, 3.1342)">
<g>
<path d="M1.7 1.86288C1.7 1.77292 1.77292 1.7 1.86288 1.7H14.9305C15.0207 1.7 15.0934 1.77294 15.0934 1.8627L15.0934 3.50038C15.0934 3.96982 15.4739 4.35039 15.9434 4.35039C16.4128 4.35039 16.7934 3.96984 16.7934 3.5004L16.7934 1.86272C16.7934 0.833672 15.9592 0 14.9305 0H1.86288C0.834041 0 0 0.83404 0 1.86288V13.715C0 14.7439 0.834039 15.5779 1.86288 15.5779H5.00041C5.46985 15.5779 5.85041 15.1973 5.85041 14.7279C5.85041 14.2585 5.46985 13.8779 5.00041 13.8779H1.86288C1.77292 13.8779 1.7 13.805 1.7 13.715V1.86288Z" fill="black"/>
<path d="M10.5497 9.27972C10.8817 8.94777 11.4199 8.94778 11.7518 9.27973L12.8998 10.4277L14.0478 9.27973C14.3797 8.94778 14.9179 8.94777 15.2499 9.27972C15.5818 9.61166 15.5818 10.1498 15.2499 10.4818L14.1019 11.6298L15.2523 12.7803C15.5843 13.1122 15.5843 13.6504 15.2523 13.9824C14.9204 14.3143 14.3822 14.3143 14.0502 13.9824L12.8998 12.8319L11.7494 13.9824C11.4174 14.3143 10.8792 14.3143 10.5473 13.9824C10.2154 13.6504 10.2153 13.1122 10.5473 12.7803L11.6977 11.6298L10.5497 10.4818C10.2178 10.1498 10.2178 9.61166 10.5497 9.27972Z" fill="black"/>
<path fill-rule="evenodd" clip-rule="evenodd" d="M12.9015 5.52979C9.53216 5.52979 6.80078 8.26124 6.80078 11.6306C6.80078 15 9.53216 17.7315 12.9015 17.7315C16.2709 17.7315 19.0023 15 19.0023 11.6306C19.0023 8.26124 16.2709 5.52979 12.9015 5.52979ZM8.50078 11.6306C8.50078 9.20009 10.4711 7.22978 12.9015 7.22978C15.332 7.22978 17.3023 9.20009 17.3023 11.6306C17.3023 14.0612 15.332 16.0315 12.9015 16.0315C10.4711 16.0315 8.50078 14.0612 8.50078 11.6306Z" fill="black"/>
</g>
</g>
</svg>
