<svg width="24" height="24" viewBox="0 0 24 24" fill="none" xmlns="http://www.w3.org/2000/svg">
<g transform="translate(2.8628, 2.0001)">
<g>
<path fill-rule="evenodd" clip-rule="evenodd" d="M16.6884 9.71734L16.6865 6.57707L16.6861 6.56374C16.5706 2.82348 13.132 0 9.13529 0C5.17909 0 1.77259 2.76446 1.58912 6.448L1.58153 6.56228L1.58071 9.70732L0.150567 12.6197L0.135059 12.6615C-0.106854 13.3135 -0.0297605 14.0138 0.414699 14.5479C0.840144 15.0591 1.49167 15.2873 2.15665 15.2873H16.1177C16.7823 15.2873 17.4359 15.0646 17.8627 14.5529C18.3093 14.0172 18.3786 13.3179 18.1386 12.6731L18.1231 12.6313L16.6884 9.71734ZM3.28631 6.54664L3.28701 6.53257C3.41619 3.9389 5.88757 1.7 9.13529 1.7C12.414 1.7 14.8982 3.9794 14.9866 6.60437L14.9886 10.1136L16.5559 13.2969C16.5769 13.3651 16.5757 13.4097 16.5732 13.4284C16.5718 13.4389 16.5697 13.4442 16.5687 13.4467C16.5677 13.4488 16.5652 13.4544 16.557 13.4641C16.5407 13.4837 16.4325 13.5873 16.1177 13.5873H2.15665C1.85313 13.5873 1.74214 13.4854 1.72142 13.4605C1.71247 13.4497 1.70895 13.4427 1.70728 13.4389C1.70548 13.4348 1.70311 13.428 1.70154 13.4166C1.69881 13.3968 1.69745 13.3519 1.71841 13.2837L3.2806 10.1024L3.28151 6.61891L3.28631 6.54664Z" fill="black"/>
<path d="M9.14488 19.9998C7.49379 19.9998 6.11905 18.8167 5.82223 17.252H7.58651C7.83687 17.8666 8.44027 18.2998 9.14488 18.2998C9.84949 18.2998 10.4529 17.8666 10.7032 17.252H12.4675C12.1707 18.8167 10.796 19.9998 9.14488 19.9998Z" fill="black"/>
</g>
</g>
</svg>
