<svg width="24" height="24" viewBox="0 0 24 24" fill="none" xmlns="http://www.w3.org/2000/svg">
<g transform="translate(2, 5)">
<path fill-rule="evenodd" clip-rule="evenodd" d="M0 4.8C0 3.11984 0 2.27976 0.326978 1.63803C0.614596 1.07354 1.07353 0.614601 1.63802 0.32698C2.27975 0 3.11982 0 4.79997 0H15.2001C16.8802 0 17.7203 0 18.362 0.32698C18.9265 0.614601 19.3855 1.07354 19.6731 1.63803C20.0001 2.27976 20.0001 3.11984 20.0001 4.8V9.2C20.0001 10.8802 20.0001 11.7202 19.6731 12.362C19.3855 12.9265 18.9265 13.3854 18.362 13.673C17.7203 14 16.8802 14 15.2001 14H4.79997C3.11982 14 2.27975 14 1.63802 13.673C1.07353 13.3854 0.614596 12.9265 0.326978 12.362C0 11.7202 0 10.8802 0 9.2V4.8ZM4.3989 4.39908C4.73084 4.06714 5.26903 4.06714 5.60097 4.39908L7.60096 6.39908C7.76036 6.55849 7.84991 6.77469 7.84991 7.00012C7.84991 7.22556 7.76036 7.44176 7.60096 7.60116L5.60097 9.60116C5.26903 9.93311 4.73084 9.93311 4.3989 9.60116C4.06695 9.26922 4.06695 8.73103 4.3989 8.39908L5.79785 7.00012L4.3989 5.60116C4.06695 5.26922 4.06695 4.73103 4.3989 4.39908ZM15.6009 5.60116C15.9328 5.26922 15.9328 4.73103 15.6009 4.39908C15.269 4.06714 14.7308 4.06714 14.3988 4.39908L12.3988 6.39908C12.2394 6.55849 12.1499 6.77469 12.1499 7.00012C12.1499 7.22556 12.2394 7.44176 12.3988 7.60116L14.3988 9.60116C14.7308 9.93311 15.269 9.93311 15.6009 9.60116C15.9328 9.26922 15.9328 8.73103 15.6009 8.39908L14.202 7.00012L15.6009 5.60116Z" fill="black"/>
</g>
</svg>
