<svg width="24" height="24" viewBox="0 0 24 24" fill="none" xmlns="http://www.w3.org/2000/svg">
<g transform="translate(2.9989, 2.9989)">
<path fill-rule="evenodd" clip-rule="evenodd" d="M5.6322 5.63214L5.63221 0H7.3322L7.3322 5.73214C7.3322 6.6158 6.61585 7.33214 5.7322 7.33214L2.98803e-05 7.33214L3.00217e-05 5.63214L5.6322 5.63214ZM12.37 5.63434L12.37 0.00219684L10.6701 0.00219656L10.67 5.73434C10.67 6.61799 11.3864 7.33434 12.27 7.33434L18.0022 7.33434V5.63434L12.37 5.63434ZM5.63217 12.37H0V10.67H5.73217C6.61583 10.67 7.33217 11.3864 7.33217 12.27L7.33216 18.0022H5.63217L5.63217 12.37ZM10.6701 12.27C10.6701 11.3864 11.3864 10.67 12.2701 10.67H18.0022V12.37H12.3701L12.3701 18.0022H10.6701L10.6701 12.27Z" fill="black"/>
</g>
</svg>
