<svg width="24" height="24" viewBox="0 0 24 24" fill="none" xmlns="http://www.w3.org/2000/svg">
<svg x="2.00" y="2.00" width="20.00" height="20.00" viewBox="0 0 20.0001 20" fill="none">
<g id="Fill">
<path d="M10.6777 14.1191C12.2629 13.9034 13.1444 12.9711 13.1444 11.6999C13.1444 10.1249 11.651 9.62747 10.4065 9.21289C9.5175 8.91674 8.75547 8.66288 8.75547 8.08878C8.75547 7.45545 9.32213 7.15545 10.1555 7.15545C10.911 7.15545 11.5888 7.44434 12.2332 7.97767L13.0555 6.99989C12.4171 6.42726 11.6915 5.98153 10.6777 5.85701V4.44434H9.5888V5.84912C8.12698 6.01183 7.1888 6.89838 7.1888 8.19989C7.1888 9.71803 8.63526 10.2145 9.8674 10.6374C10.7815 10.9511 11.5777 11.2244 11.5777 11.8443C11.5777 12.4888 11.0666 12.8332 9.94436 12.8332C9.12214 12.8332 8.27769 12.5443 7.5888 11.9332L6.85547 13.0443C7.52228 13.7013 8.66506 14.0728 9.5888 14.1509V15.5554H10.6777V14.1191Z" fill="black"/>
<path fill-rule="evenodd" clip-rule="evenodd" d="M20.0001 10C20.0001 15.5228 15.5229 20 10 20C4.47717 20 0 15.5228 0 10C0 4.47715 4.47717 0 10 0C15.5229 0 20.0001 4.47715 20.0001 10ZM18.3001 10C18.3001 14.584 14.584 18.3 10 18.3C5.41604 18.3 1.7 14.584 1.7 10C1.7 5.41604 5.41604 1.7 10 1.7C14.584 1.7 18.3001 5.41604 18.3001 10Z" fill="black"/>
</g>
</svg>
</svg>
