<svg width="24" height="24" viewBox="0 0 24 24" fill="none" xmlns="http://www.w3.org/2000/svg">
<g transform="translate(2.9, 3.15)">
<g>
<path fill-rule="evenodd" clip-rule="evenodd" d="M14.9512 0.248959C14.6192 -0.0829865 14.081 -0.0829864 13.7491 0.248959C13.4171 0.580905 13.4171 1.1191 13.7491 1.45104L15.298 3H12.5578C12.0201 3 11.5091 3.23391 11.1577 3.64082L8.90445 6.24988L10.0276 7.55035L12.4443 4.75196C12.4728 4.71897 12.5142 4.7 12.5578 4.7H15.298L13.7491 6.24896C13.4171 6.5809 13.4171 7.11909 13.7491 7.45104C14.081 7.78299 14.6192 7.78299 14.9512 7.45104L17.9512 4.45104C18.1106 4.29164 18.2001 4.07543 18.2001 3.85C18.2001 3.62457 18.1106 3.40837 17.9512 3.24896L14.9512 0.248959ZM6.65824 11.4518L5.53514 10.1513L2.25623 13.948C2.22774 13.981 2.1863 14 2.14271 14H0.850391C0.380949 14 0.000390649 14.3806 0.000390649 14.85C0.000390649 15.3194 0.380949 15.7 0.850391 15.7H2.14271C2.68036 15.7 3.19143 15.4661 3.54285 15.0592L6.65824 11.4518Z" fill="#0E0F10"/>
<path fill-rule="evenodd" clip-rule="evenodd" d="M13.7487 17.4511C14.0806 17.7831 14.6188 17.7831 14.9508 17.4511L17.9508 14.4511C18.1102 14.2917 18.1997 14.0755 18.1997 13.8501C18.1997 13.6247 18.1102 13.4085 17.9508 13.2491L14.9508 10.2491C14.6188 9.91711 14.0806 9.91711 13.7487 10.2491C13.4167 10.581 13.4167 11.1192 13.7487 11.4511L15.2976 13.0001H12.5574C12.5138 13.0001 12.4724 12.9811 12.4439 12.9481L3.54245 2.64092C3.19104 2.234 2.67997 2.0001 2.14231 2.0001H0.85C0.380558 2.0001 0 2.38066 0 2.8501C0 3.31954 0.380558 3.7001 0.85 3.7001H2.14231C2.18591 3.7001 2.22735 3.71906 2.25584 3.75206L11.1573 14.0593C11.5087 14.4662 12.0198 14.7001 12.5574 14.7001H15.2976L13.7487 16.2491C13.4167 16.581 13.4167 17.1192 13.7487 17.4511Z" fill="black"/>
</g>
</g>
</svg>
