<svg width="24" height="24" viewBox="0 0 24 24" fill="none" xmlns="http://www.w3.org/2000/svg">
<g transform="translate(1.6098, 1.4497)">
<g>
<path d="M15.7342 1.83155C14.3049 0.684357 12.4192 0 10.3982 0C6.22448 0 2.63072 2.91643 2.43717 6.80245L2.42916 6.92301L2.42829 10.2409L1.83136 11.4565L5.02854 9.24312L5.02912 7.00963L5.03286 6.95331L5.03394 6.93178C5.14446 4.71263 7.30804 2.6 10.3982 2.6C11.5742 2.6 12.6152 2.90534 13.46 3.40597L15.7342 1.83155Z" fill="black"/>
<path d="M8.67795 13.5277H17.0814L15.7668 10.8576L15.7655 8.6209L18.3602 6.82458C18.3618 6.85783 18.363 6.89116 18.3641 6.92455L18.3645 6.93862L18.3665 10.2515L19.88 13.3256L19.8964 13.3697C20.1496 14.05 20.0765 14.7878 19.6053 15.3528C19.1551 15.8927 18.4655 16.1277 17.7644 16.1277H4.92238L8.67795 13.5277Z" fill="black"/>
<path d="M6.89579 18.2012C7.2087 19.8522 8.65915 21.1006 10.4012 21.1006C12.1432 21.1006 13.5937 19.8522 13.9066 18.2012H6.89579Z" fill="black"/>
<path d="M20.2201 3.71338C20.8105 3.30471 20.9577 2.49487 20.549 1.90456C20.1404 1.31425 19.3305 1.167 18.7402 1.57568L0.560147 14.1618C-0.0301618 14.5705 -0.177408 15.3803 0.231263 15.9706C0.639934 16.561 1.44977 16.7082 2.04008 16.2995L20.2201 3.71338Z" fill="black"/>
</g>
</g>
</svg>
