<svg width="24" height="24" viewBox="0 0 24 24" fill="none" xmlns="http://www.w3.org/2000/svg">
<svg x="3.00" y="3.00" width="18.00" height="18.00" viewBox="0 0 18.002 18.0004" fill="none">
<g id="Fill">
<path fill-rule="evenodd" clip-rule="evenodd" d="M17.6227 4.14835C18.1259 4.65156 18.1259 5.46742 17.6227 5.97062L6.21053 17.3827C6.04179 17.5515 5.81827 17.6543 5.58034 17.6727L1.38774 17.9961C0.599663 18.0569 -0.0568855 17.4003 0.00391015 16.6123L0.327341 12.4197C0.345696 12.1818 0.448533 11.9583 0.617275 11.7895L12.0295 0.377402C12.5327 -0.125801 13.3485 -0.1258 13.8518 0.377402L17.6227 4.14835ZM16.1297 5.05949L14.4705 6.71864L11.2815 3.52957L12.9406 1.87043L16.1297 5.05949ZM10.0794 4.73165L13.2685 7.92071L5.19149 15.9976L1.73581 16.2642L2.00239 12.8086L10.0794 4.73165Z" fill="black"/>
<path d="M10.002 16.3004C9.53251 16.3004 9.15195 16.6809 9.15195 17.1504C9.15195 17.6198 9.53251 18.0004 10.002 18.0004H17.152C17.6214 18.0004 18.002 17.6198 18.002 17.1504C18.002 16.6809 17.6214 16.3004 17.152 16.3004H10.002Z" fill="black"/>
</g>
</svg>
</svg>
