<svg width="24" height="24" viewBox="0 0 24 24" fill="none" xmlns="http://www.w3.org/2000/svg">
<g transform="translate(1.9488, 3.264)">
<path id="Fill" fill-rule="evenodd" clip-rule="evenodd" d="M10.0738 1.42536C8.69437 0.168926 6.64906 -0.216378 4.90477 0.110869C3.65818 0.344744 2.4275 0.948919 1.50162 1.9765C0.562625 3.01864 0 4.42786 0 6.13836C0 9.4602 2.45185 13.282 8.28592 16.9563C8.51119 17.0982 9.195 17.4686 10.045 17.4719C10.8914 17.4752 11.5488 17.1229 11.7673 16.9858C17.6356 13.302 20.1001 9.46889 20.1001 6.13836C20.1001 2.62356 17.7535 0.601167 15.2309 0.115873C13.489 -0.219209 11.45 0.163576 10.0738 1.42536ZM3.4332 3.7169C2.95318 4.24966 2.6 5.02651 2.6 6.13836C2.6 8.1212 4.11736 11.2582 9.67151 14.7562C9.67047 14.7556 9.67083 14.7558 9.67249 14.7567C9.68223 14.7621 9.73698 14.7926 9.8176 14.8218C9.91211 14.8561 9.99546 14.8717 10.0551 14.8719C10.1204 14.8722 10.1985 14.8571 10.278 14.8291C10.3467 14.8049 10.389 14.7808 10.3891 14.781C10.3891 14.7811 10.3878 14.7819 10.3849 14.7837C15.9743 11.275 17.5001 8.12654 17.5001 6.13836C17.5001 4.04095 16.2141 2.9527 14.7397 2.66906C13.1307 2.35953 11.7158 3.04235 11.2885 4.14237C11.0943 4.64229 10.6131 4.97166 10.0768 4.9717C9.54049 4.97173 9.05921 4.64243 8.86497 4.14254C8.44274 3.05591 7.01575 2.36019 5.3842 2.66629C4.6179 2.81005 3.92634 3.16959 3.4332 3.7169Z" fill="black"/>
</g>
</svg>
