<svg width="24" height="24" viewBox="0 0 24 24" fill="none" xmlns="http://www.w3.org/2000/svg">
<g transform="translate(2, 2)">
<g>
<path d="M9.99802 6.15C10.4675 6.15 10.848 6.53056 10.848 7V9.15H12.9981C13.4675 9.15 13.8481 9.53056 13.8481 10C13.8481 10.4694 13.4675 10.85 12.9981 10.85H10.848V13C10.848 13.4694 10.4675 13.85 9.99802 13.85C9.52858 13.85 9.14802 13.4694 9.14802 13V10.85H6.99803C6.52859 10.85 6.14803 10.4694 6.14803 10C6.14803 9.53056 6.52859 9.15 6.99803 9.15H9.14802V7C9.14802 6.53056 9.52858 6.15 9.99802 6.15Z" fill="black"/>
<path fill-rule="evenodd" clip-rule="evenodd" d="M0 10C0 4.47715 4.47722 0 10 0C15.5229 0 20.0001 4.47715 20.0001 10C20.0001 15.5228 15.5229 20 10 20C4.47722 20 0 15.5228 0 10ZM10 18.3C5.41608 18.3 1.69999 14.5839 1.69999 10C1.69999 5.41605 5.41608 1.7 10 1.7C14.584 1.7 18.3001 5.41605 18.3001 10C18.3001 14.5839 14.584 18.3 10 18.3Z" fill="black"/>
</g>
</g>
</svg>
