<svg width="24" height="24" viewBox="0 0 24 24" fill="none" xmlns="http://www.w3.org/2000/svg">
<g transform="translate(3.6999, 3.7)">
<path d="M16.2194 2.21924C16.727 1.71156 16.727 0.888445 16.2194 0.380762C15.7117 -0.12692 14.8886 -0.126921 14.3809 0.38076L8.30006 6.46155L2.21924 0.38076C1.71156 -0.126921 0.888441 -0.12692 0.38076 0.380763C-0.126921 0.888445 -0.12692 1.71156 0.380763 2.21924L6.46158 8.30003L0.380821 14.3808C-0.126862 14.8884 -0.126864 15.7116 0.380817 16.2192C0.888498 16.7269 1.71161 16.7269 2.2193 16.2192L8.30006 10.1385L14.3808 16.2192C14.8885 16.7269 15.7116 16.7269 16.2193 16.2192C16.727 15.7116 16.727 14.8884 16.2193 14.3808L10.1385 8.30003L16.2194 2.21924Z" fill="black"/>
</g>
</svg>
