<svg width="24" height="24" viewBox="0 0 24 24" fill="none" xmlns="http://www.w3.org/2000/svg">
<g transform="translate(2.25, 3.15)">
<g>
<path d="M3.85 1.7C2.66259 1.7 1.7 2.66259 1.7 3.85V5.35C1.7 5.81944 1.31944 6.2 0.85 6.2C0.380558 6.2 0 5.81944 0 5.35V3.85C0 1.7237 1.7237 0 3.85 0H15.6499C17.7762 0 19.4999 1.7237 19.4999 3.85V13.85C19.4999 15.9763 17.7762 17.7 15.6499 17.7H12.25C11.7805 17.7 11.4 17.3194 11.4 16.85C11.4 16.3806 11.7805 16 12.25 16H15.6499C16.8374 16 17.7999 15.0374 17.7999 13.85V3.85C17.7999 2.66259 16.8374 1.7 15.6499 1.7H3.85Z" fill="black"/>
<path d="M0.85 8C0.380558 8 0 8.38056 0 8.85C0 9.31944 0.380558 9.7 0.85 9.7C4.78777 9.7 7.97998 12.8922 7.97998 16.83C7.97998 17.2994 8.36053 17.68 8.82998 17.68C9.29942 17.68 9.67998 17.2994 9.67998 16.83C9.67998 11.9533 5.72666 8 0.85 8Z" fill="black"/>
<path d="M0.00390613 12.85C0.00390613 12.3806 0.384464 12 0.853906 12C3.53248 12 5.70389 14.1714 5.70389 16.85C5.70389 17.3194 5.32334 17.7 4.85389 17.7C4.38445 17.7 4.00389 17.3194 4.00389 16.85C4.00389 15.1103 2.59359 13.7 0.853906 13.7C0.384464 13.7 0.00390613 13.3194 0.00390613 12.85Z" fill="black"/>
<path d="M5.09595 3.40029C4.15706 3.40028 3.39594 4.16138 3.39592 5.10027L3.3959 6.46636C7.24879 7.4095 10.2805 10.4451 11.2179 14.3003H14.3958C15.3347 14.3003 16.0958 13.5392 16.0958 12.6003V5.10044C16.0958 4.16157 15.3347 3.40046 14.3958 3.40044L5.09595 3.40029Z" fill="black"/>
<path d="M1.00629 17.6971C1.55719 17.6971 2.00378 17.2506 2.00378 16.6996C2.00378 16.1487 1.55719 15.7021 1.00629 15.7021C0.455384 15.7021 0.00878906 16.1487 0.00878906 16.6996C0.00878906 17.2506 0.455384 17.6971 1.00629 17.6971Z" fill="black"/>
</g>
</g>
</svg>
