<svg width="24" height="24" viewBox="0 0 24 24" fill="none" xmlns="http://www.w3.org/2000/svg">
<svg x="5.35" y="2.10" width="13.30" height="19.98" viewBox="0 0 13.3008 19.9814" fill="none">
<g id="Fill">
<path d="M8.65039 15.0518C9.11966 15.052 9.5 15.4321 9.5 15.9014C9.49974 16.3705 9.1195 16.7508 8.65039 16.751H4.65039C4.18111 16.751 3.80104 16.3706 3.80078 15.9014C3.80078 15.4319 4.18095 15.0518 4.65039 15.0518H8.65039Z" fill="black"/>
<path fill-rule="evenodd" clip-rule="evenodd" d="M9.2002 9.8978e-07C9.74523 9.8978e-07 10.2083 -0.000634156 10.5869 0.0302744C10.976 0.0620679 11.3549 0.132047 11.7168 0.316407C12.2624 0.594446 12.7064 1.03838 12.9844 1.58399C13.1686 1.94575 13.2387 2.3249 13.2705 2.71387C13.3014 3.09236 13.3008 3.5558 13.3008 4.10059V15.8818C13.3008 16.4267 13.3014 16.8901 13.2705 17.2686C13.2387 17.6575 13.1687 18.0367 12.9844 18.3984C12.7063 18.9438 12.2622 19.3871 11.7168 19.665C11.3549 19.8494 10.976 19.9194 10.5869 19.9512C10.2083 19.9821 9.74523 19.9814 9.2002 19.9814H4.10059C3.55557 19.9814 3.09245 19.9821 2.71387 19.9512C2.32478 19.9194 1.94586 19.8494 1.58399 19.665C1.03854 19.3871 0.594458 18.9438 0.316407 18.3984C0.132091 18.0367 0.0620935 17.6575 0.0302746 17.2686C-0.000647256 16.8901 4.57877e-07 16.4267 1.12491e-06 15.8818V4.10059C1.12419e-06 3.55579 -0.000592254 3.09237 0.0302746 2.71387C0.0620548 2.3249 0.132195 1.94576 0.316407 1.58399C0.594408 1.03838 1.0384 0.594446 1.58399 0.316407C1.94586 0.13206 2.32478 0.062067 2.71387 0.0302744C3.09245 -0.000630684 3.55557 9.88036e-07 4.10059 9.8978e-07H9.2002ZM4.10059 1.7002C3.52894 1.7002 3.14615 1.70067 2.85254 1.72461C2.57006 1.74769 2.43865 1.78868 2.35547 1.83106C2.18628 1.91734 2.04042 2.0422 1.92969 2.19434L1.83106 2.35547C1.78863 2.43887 1.74764 2.57073 1.72461 2.85254C1.7007 3.14616 1.7002 3.52941 1.7002 4.10059V15.8818C1.7002 16.4535 1.70065 16.8365 1.72461 17.1299C1.74769 17.4119 1.78893 17.5431 1.83106 17.626L1.92969 17.7871C2.04025 17.9389 2.18579 18.0639 2.35547 18.1504C2.43868 18.1928 2.5701 18.2338 2.85254 18.2568C3.14615 18.2808 3.52895 18.2813 4.10059 18.2813H9.2002C9.77188 18.2813 10.1546 18.2808 10.4482 18.2568C10.7307 18.2338 10.8621 18.1928 10.9453 18.1504C11.1718 18.0349 11.3552 17.8507 11.4697 17.626C11.5118 17.5431 11.5531 17.4119 11.5762 17.1299C11.6001 16.8365 11.6006 16.4535 11.6006 15.8818V4.10059C11.6006 3.52941 11.6001 3.14616 11.5762 2.85254L11.5557 2.66699C11.5402 2.56077 11.5213 2.48554 11.501 2.42871L11.4697 2.35547C11.3548 2.13002 11.171 1.94614 10.9453 1.83106C10.8622 1.78869 10.7308 1.74769 10.4482 1.72461C10.1546 1.70066 9.77188 1.7002 9.2002 1.7002H4.10059Z" fill="black"/>
</g>
</svg>
</svg>
