<svg width="24" height="24" viewBox="0 0 24 24" fill="none" xmlns="http://www.w3.org/2000/svg">
<g transform="translate(1.9488, 3.264)">
<path id="Fill" d="M4.90477 0.110869C6.64906 -0.216378 8.69437 0.168926 10.0738 1.42536C11.45 0.163576 13.489 -0.219209 15.2309 0.115873C17.7535 0.601167 20.1001 2.62356 20.1001 6.13836C20.1001 9.46889 17.6356 13.302 11.7673 16.9858C11.5488 17.1229 10.8914 17.4752 10.045 17.4719C9.195 17.4686 8.51119 17.0982 8.28592 16.9563C2.45185 13.282 0 9.4602 0 6.13836C0 4.42786 0.562625 3.01864 1.50162 1.9765C2.4275 0.948919 3.65818 0.344744 4.90477 0.110869Z" fill="black"/>
</g>
</svg>
