<svg width="24" height="24" viewBox="0 0 24 24" fill="none" xmlns="http://www.w3.org/2000/svg">
<g transform="translate(2.7144, 2.7141)">
<path fill-rule="evenodd" clip-rule="evenodd" d="M17.4831 1.0881C16.0323 -0.362698 13.6801 -0.3627 12.2293 1.0881L9.20047 4.11695L8.09579 3.01227C7.58811 2.50459 6.76499 2.50459 6.25731 3.01227C5.74963 3.51995 5.74963 4.34306 6.25731 4.85075L7.2138 5.80724L1.14961 11.8714C-0.383203 13.4042 -0.383202 15.8894 1.14961 17.4222C2.68242 18.955 5.16759 18.955 6.70041 17.4222L12.7646 11.358L13.72 12.3134C14.2277 12.8211 15.0508 12.8211 15.5585 12.3134C16.0662 11.8057 16.0662 10.9826 15.5585 10.4749L14.4543 9.37075L17.4831 6.3419C18.9339 4.8911 18.9339 2.53889 17.4831 1.0881ZM9.05118 7.64682L10.925 9.52065L4.86193 15.5837C4.34448 16.1012 3.50554 16.1012 2.98809 15.5837C2.47064 15.0663 2.47064 14.2273 2.98809 13.7099L9.05118 7.64682Z" fill="black"/>
</g>
</svg>
