<svg width="24" height="24" viewBox="0 0 24 24" fill="none" xmlns="http://www.w3.org/2000/svg">
<g transform="translate(2.0082, 1.7)">
<path d="M3.65688 1.3C3.65688 0.58203 3.07485 0 2.35688 0C1.63891 0 1.05688 0.58203 1.05688 1.3V6.04097C1.05688 6.75894 1.63891 7.34097 2.35688 7.34097H7.09787C7.81584 7.34097 8.39787 6.75894 8.39787 6.04097C8.39787 5.323 7.81584 4.74097 7.09787 4.74097H5.4949C6.74132 3.78403 8.30027 3.21645 9.9918 3.21645C14.0742 3.21645 17.3836 6.52587 17.3836 10.6082C17.3836 14.6906 14.0742 18 9.9918 18C5.90942 18 2.6 14.6906 2.6 10.6082C2.6 9.89026 2.01797 9.30823 1.3 9.30823C0.58203 9.30823 0 9.89026 0 10.6082C0 16.1265 4.47348 20.6 9.9918 20.6C15.5101 20.6 19.9836 16.1265 19.9836 10.6082C19.9836 5.08992 15.5101 0.616455 9.9918 0.616455C7.58675 0.616455 5.38031 1.46684 3.65688 2.88119V1.3Z" fill="black"/>
</g>
</svg>
