<svg width="24" height="24" viewBox="0 0 24 24" fill="none" xmlns="http://www.w3.org/2000/svg">
<g transform="translate(1.9997, 3.8981)">
<g>
<path fill-rule="evenodd" clip-rule="evenodd" d="M2.84996 8.35285C2.84996 7.80057 3.29768 7.35285 3.84996 7.35285H11.85C12.4023 7.35285 12.85 7.80057 12.85 8.35285V12.3529C12.85 12.9051 12.4023 13.3529 11.85 13.3529H3.84996C3.29768 13.3529 2.84996 12.9051 2.84996 12.3529V8.35285Z" fill="black"/>
<path fill-rule="evenodd" clip-rule="evenodd" d="M14.434 0.85C14.434 0.380558 14.8146 -5.96046e-08 15.284 0L19.0414 6.55651e-07C19.306 7.15256e-07 19.547 0.108306 19.7197 0.280986C19.8924 0.453673 20.0007 0.694686 20.0007 0.959366L20.0007 4.71667C20.0007 5.18611 19.6202 5.56667 19.1507 5.56667C18.6813 5.56667 18.3007 5.18611 18.3007 4.71667V2.90208L15.0171 6.18568C14.6852 6.51763 14.147 6.51763 13.8151 6.18568C13.4831 5.85374 13.4831 5.31555 13.8151 4.9836L17.0986 1.7L15.284 1.7C14.8146 1.7 14.434 1.31944 14.434 0.85Z" fill="black"/>
<path fill-rule="evenodd" clip-rule="evenodd" d="M2.78333 1.70383C2.18502 1.70383 1.69999 2.18885 1.69999 2.78716V13.4205C1.69999 14.0188 2.18502 14.5038 2.78332 14.5038H17.217C17.8153 14.5038 18.3003 14.0188 18.3003 13.4205V9.55383C18.3003 9.08439 18.6809 8.70383 19.1503 8.70383C19.6198 8.70383 20.0003 9.08439 20.0003 9.55383V13.4205C20.0003 14.9577 18.7542 16.2038 17.217 16.2038H2.78332C1.24614 16.2038 0 14.9577 0 13.4205V2.78716C0 1.24997 1.24614 0.00382805 2.78333 0.00382805H10.5001C10.9695 0.00382805 11.3501 0.384386 11.3501 0.853828C11.3501 1.32327 10.9695 1.70383 10.5001 1.70383H2.78333Z" fill="black"/>
</g>
</g>
</svg>
