<svg width="24" height="24" viewBox="0 0 24 24" fill="none" xmlns="http://www.w3.org/2000/svg">
<g transform="translate(2.9001, 2.9278)">
<g>
<path fill-rule="evenodd" clip-rule="evenodd" d="M7.991 0C5.38772 0 3.27734 2.11036 3.27734 4.71364C3.27734 6.16633 3.9345 7.46554 4.96775 8.3302C2.04786 9.54474 0 12.4617 0 15.8503C0 16.3197 0.380558 16.7003 0.85 16.7003C1.31944 16.7003 1.7 16.3197 1.7 15.8503C1.7 12.2891 4.53343 9.42754 7.99775 9.42754C8.00626 9.42754 8.01475 9.42741 8.0232 9.42717C10.6117 9.40984 12.7046 7.30616 12.7046 4.71364C12.7046 2.11036 10.5943 0 7.991 0ZM4.97734 4.71364C4.97734 3.04925 6.3266 1.7 7.991 1.7C9.65539 1.7 11.0046 3.04925 11.0046 4.71364C11.0046 6.37802 9.65539 7.72727 7.991 7.72727C6.3266 7.72727 4.97734 6.37802 4.97734 4.71364Z" fill="black"/>
<path fill-rule="evenodd" clip-rule="evenodd" d="M9 13.5443C9 11.0038 11.0594 8.94434 13.5999 8.94434C16.1404 8.94434 18.1998 11.0038 18.1998 13.5443C18.1998 16.0848 16.1404 18.1443 13.5999 18.1443C11.0594 18.1443 9 16.0848 9 13.5443ZM13.5999 10.6443C11.9984 10.6443 10.7 11.9427 10.7 13.5443C10.7 13.8796 10.7569 14.2016 10.8616 14.5012L15.328 11.2153C14.8454 10.8566 14.2474 10.6443 13.5999 10.6443ZM16.3369 12.5836L11.8684 15.8709C12.3517 16.2311 12.9509 16.4443 13.5999 16.4443C15.2015 16.4443 16.4998 15.146 16.4998 13.5443C16.4998 13.2076 16.4424 12.8843 16.3369 12.5836Z" fill="black"/>
</g>
</g>
</svg>
