<svg width="24" height="24" viewBox="0 0 24 24" fill="none" xmlns="http://www.w3.org/2000/svg">
<g transform="translate(3.1501, 3.1501)">
<g>
<path d="M14.374 5.17221C14.706 5.50417 14.706 6.04236 14.374 6.3743C14.042 6.70623 13.5039 6.70621 13.1719 6.37425L9.70011 2.90218L9.70011 10.6965C9.70011 11.1659 9.31955 11.5465 8.85011 11.5465C8.38067 11.5465 8.00012 11.1659 8.00012 10.6965L8.00012 2.90218L4.52831 6.37426C4.19637 6.70621 3.65819 6.70623 3.32623 6.3743C2.99428 6.04236 2.99426 5.50417 3.32619 5.17222L8.24905 0.24898C8.40846 0.0895613 8.62467 0 8.85011 0C9.07556 0 9.29176 0.0895612 9.45117 0.24898L14.374 5.17221Z" fill="black"/>
<path d="M2.34999 15.9998C1.99101 15.9998 1.69999 15.7088 1.69999 15.3498V9.84979C1.69999 9.38035 1.31944 8.99979 0.849996 8.99979C0.380556 8.99979 0 9.38035 0 9.84979V15.3498C0 16.6477 1.05213 17.6998 2.34999 17.6998L15.3499 17.6998C16.6478 17.6998 17.6999 16.6477 17.6999 15.3498V9.84979C17.6999 9.38035 17.3194 8.99979 16.8499 8.99979C16.3805 8.99979 15.9999 9.38035 15.9999 9.84979V15.3498C15.9999 15.7088 15.7089 15.9998 15.3499 15.9998L2.34999 15.9998Z" fill="black"/>
</g>
</g>
</svg>
