<svg width="24" height="24" viewBox="0 0 24 24" fill="none" xmlns="http://www.w3.org/2000/svg">
<svg x="2.00" y="2.00" width="20.00" height="20.00" viewBox="0 0 20 20" fill="none">
<path id="Fill" d="M10 0C15.5229 0 20 4.47715 20 10C20 15.5228 15.5229 20 10 20C4.47714 19.9999 0 15.5228 0 10C0 4.47718 4.47714 5.2055e-05 10 0ZM10 1.7002C5.41601 1.70025 1.7002 5.41608 1.7002 10C1.7002 14.5839 5.41601 18.2998 10 18.2998C14.584 18.2998 18.2998 14.5839 18.2998 10C18.2998 5.41605 14.584 1.7002 10 1.7002ZM9.02148 9.02441C8.75915 9.28809 8.59766 9.65238 8.59766 10.0537C8.5979 10.8588 9.25047 11.5117 10.0557 11.5117C10.457 11.5117 10.8193 11.3482 11.083 11.0859L12.4463 12.4492L5.96777 14.7539C5.57095 14.895 5.18809 14.5121 5.3291 14.1152L7.63379 7.63672L9.02148 9.02441ZM14.1143 5.33008C14.511 5.18926 14.8938 5.57203 14.7529 5.96875L12.4473 12.4482L11.084 11.085C11.3487 10.821 11.5135 10.457 11.5137 10.0537C11.5137 9.24836 10.861 8.59476 10.0557 8.59473C9.65218 8.59475 9.28647 8.75862 9.02246 9.02344L7.63574 7.63672L14.1143 5.33008Z" fill="black"/>
</svg>
</svg>
