<svg width="24" height="24" viewBox="0 0 24 24" fill="none" xmlns="http://www.w3.org/2000/svg">
<g transform="translate(2, 2)">
<g>
<path d="M13.196 11.5482V13.5H6.00192L9.38352 8.98367H6.68051L8.91444 6H11.6175L10.7989 7.09311H13.5019L10.1662 11.5482H13.196Z" fill="black"/>
<path fill-rule="evenodd" clip-rule="evenodd" d="M0 10C0 4.47715 4.47722 0 10 0C15.5229 0 20.0001 4.47715 20.0001 10C20.0001 15.5228 15.5229 20 10 20C4.47722 20 0 15.5228 0 10ZM10 18.3C5.41608 18.3 1.69999 14.5839 1.69999 10C1.69999 5.41606 5.41608 1.7 10 1.7C14.584 1.7 18.3001 5.41606 18.3001 10C18.3001 14.5839 14.584 18.3 10 18.3Z" fill="black"/>
</g>
</g>
</svg>
