<svg width="24" height="24" viewBox="0 0 24 24" fill="none" xmlns="http://www.w3.org/2000/svg">
<g transform="translate(10, 3)">
<g>
<path d="M4 2C4 3.10457 3.10457 4 2 4C0.895431 4 6.11959e-07 3.10457 6.11959e-07 2C6.11959e-07 0.89543 0.895431 0 2 0C3.10457 0 4 0.89543 4 2Z" fill="black"/>
<path d="M4 9C4 10.1046 3.10457 11 2 11C0.895431 11 3.0598e-07 10.1046 3.0598e-07 9C3.0598e-07 7.89543 0.895431 7 2 7C3.10457 7 4 7.89543 4 9Z" fill="black"/>
<path d="M4 16C4 17.1046 3.10457 18 2 18C0.89543 18 0 17.1046 0 16C0 14.8954 0.89543 14 2 14C3.10457 14 4 14.8954 4 16Z" fill="black"/>
</g>
</g>
</svg>
