<svg width="24" height="24" viewBox="0 0 24 24" fill="none" xmlns="http://www.w3.org/2000/svg">
<g transform="translate(1.1504, 4.7788)">
<path fill-rule="evenodd" clip-rule="evenodd" d="M6.01465 3.23438C6.01465 3.70382 6.39482 4.08496 6.86426 4.08496C7.33353 4.08477 7.71387 3.7037 7.71387 3.23438V0H19.4551C20.6946 0 21.6992 1.00464 21.6992 2.24414V5.64648C21.699 6.11567 21.3188 6.49603 20.8496 6.49609C20.4892 6.49624 20.1603 6.80154 20.1602 7.22266C20.1602 7.64388 20.4882 7.95005 20.8486 7.9502C21.3181 7.9502 21.6992 8.33036 21.6992 8.7998V12.1982C21.6992 13.4377 20.6946 14.4424 19.4551 14.4424H7.71289L7.71387 11.207C7.71368 10.7379 7.33342 10.3576 6.86426 10.3574C6.39493 10.3574 6.01483 10.7377 6.01465 11.207L6.01367 14.4424H2.24414C1.00464 14.4424 0 13.4377 0 12.1982V8.7998C0 8.33049 0.380298 7.95038 0.849609 7.9502C1.20994 7.94986 1.53711 7.64374 1.53711 7.22266C1.537 6.80168 1.20988 6.49642 0.849609 6.49609C0.380461 6.49591 0.000263828 6.11557 0 5.64648V2.24414C0 1.00464 1.00464 0 2.24414 0H6.01465V3.23438ZM13.4033 4.74902C13.2186 4.65755 12.9999 4.71167 12.8779 4.86816L12.832 4.94141L12.249 6.11914L10.9473 6.30762C10.8542 6.32116 10.7677 6.36511 10.7021 6.43262C10.5589 6.58052 10.5446 6.80594 10.6562 6.96973L10.7119 7.03516L11.6514 7.94824L11.4297 9.23926C11.4138 9.33148 11.4283 9.42684 11.4717 9.50977C11.5673 9.69238 11.7771 9.77661 11.9678 9.72168L12.0479 9.68945L13.2139 9.0791L14.3809 9.68945C14.4638 9.73291 14.5591 9.74832 14.6514 9.73242C14.8576 9.69677 15.003 9.51854 15.0049 9.31641L14.999 9.23926L14.7764 7.94824L15.7168 7.03516C15.7844 6.96955 15.8283 6.88325 15.8418 6.79004C15.8716 6.58292 15.7473 6.38941 15.5557 6.3252L15.4814 6.30762L14.1797 6.11914L13.5967 4.94141C13.5552 4.85776 13.487 4.79047 13.4033 4.74902ZM6.86426 5.23242C6.39493 5.23242 6.01484 5.61275 6.01465 6.08203V8.35938C6.01465 8.82882 6.39482 9.20996 6.86426 9.20996C7.33353 9.20977 7.71387 8.8287 7.71387 8.35938V6.08203C7.71368 5.61287 7.33342 5.23262 6.86426 5.23242Z" fill="black"/>
</g>
</svg>
