<svg width="24" height="24" viewBox="0 0 24 24" fill="none" xmlns="http://www.w3.org/2000/svg">
<g transform="translate(2, 4.5)">
<path fill-rule="evenodd" clip-rule="evenodd" d="M6.62132 0.87868L0 7.5L6.62132 14.1213C7.18393 14.6839 7.94699 15 8.74264 15H18C19.1046 15 20 14.1046 20 13V2C20 0.895431 19.1046 0 18 0H8.74264C7.94699 0 7.18393 0.316071 6.62132 0.87868ZM9.39896 4.27396C9.73091 3.94201 10.2691 3.94201 10.601 4.27396L12.5 6.17292L14.399 4.27396C14.7309 3.94201 15.2691 3.94201 15.601 4.27396C15.933 4.60591 15.933 5.14409 15.601 5.47604L13.7021 7.375L15.601 9.27396C15.933 9.60591 15.933 10.1441 15.601 10.476C15.2691 10.808 14.7309 10.808 14.399 10.476L12.5 8.57708L10.601 10.476C10.2691 10.808 9.73091 10.808 9.39896 10.476C9.06702 10.1441 9.06702 9.60591 9.39896 9.27396L11.2979 7.375L9.39896 5.47604C9.06702 5.14409 9.06702 4.60591 9.39896 4.27396Z" fill="black"/>
</g>
</svg>
