<svg width="24" height="24" viewBox="0 0 24 24" fill="none" xmlns="http://www.w3.org/2000/svg">
<g transform="translate(2.9989, 2.9989)">
<path fill-rule="evenodd" clip-rule="evenodd" d="M5.1822 5.18214L5.1822 0H7.7822L7.7822 5.73214C7.7822 6.86433 6.86438 7.78214 5.7322 7.78214L2.98429e-05 7.78214L3.00592e-05 5.18214L5.1822 5.18214ZM12.82 5.18434V0.0021967H10.22V5.73434C10.22 6.86652 11.1379 7.78434 12.27 7.78434H18.0022V5.18434L12.82 5.18434ZM5.18217 12.82H0V10.22H5.73217C6.86435 10.22 7.78217 11.1378 7.78217 12.27L7.78217 18.0022H5.18217L5.18217 12.82ZM10.2201 12.27C10.2201 11.1378 11.1379 10.22 12.2701 10.22H18.0022V12.82H12.8201L12.8201 18.0022H10.2201L10.2201 12.27Z" fill="black"/>
</g>
</svg>
