<svg width="24" height="24" viewBox="0 0 24 24" fill="none" xmlns="http://www.w3.org/2000/svg">
<g transform="translate(2, 3.2146)">
<g>
<path fill-rule="evenodd" clip-rule="evenodd" d="M12.8705 0L7.20984 0.000164549C3.39906 0.00019085 0.183485 3.1608 0.00773929 7.20948C-0.176879 11.4661 2.96367 15.1112 7.05502 15.1112H10.2208V15.4429C10.2208 17.2192 12.2655 18.2896 13.6334 17.0075C14.6817 16.0251 16.8202 14.0163 17.6838 13.1762C19.1741 11.726 20.0722 9.61129 19.9956 7.2955C19.8626 3.26271 16.7319 0 12.8705 0ZM7.21076 1.69997L12.8714 1.6998C15.7203 1.69983 18.1914 4.13686 18.2974 7.35151C18.3583 9.19205 17.6442 10.8432 16.4991 11.9576C15.7584 12.6781 14.0484 14.2877 12.9239 15.3429L12.4717 15.767C12.3791 15.8538 12.3184 15.8659 12.2951 15.869C12.2624 15.8735 12.214 15.8699 12.1542 15.841C12.0299 15.781 11.9217 15.6462 11.9217 15.4427V13.411H7.05591C4.06207 13.411 1.55851 10.7074 1.70703 7.28301C1.84595 4.08279 4.36993 1.69999 7.21076 1.69997Z" fill="black"/>
<path fill-rule="evenodd" clip-rule="evenodd" d="M13.8884 8.78326C14.501 8.78326 14.9995 8.28691 14.9995 7.67215C14.9995 7.05738 14.501 6.56104 13.8884 6.56104C13.2759 6.56104 12.7773 7.05738 12.7773 7.67215C12.7773 8.28691 13.2759 8.78326 13.8884 8.78326Z" fill="black"/>
<path fill-rule="evenodd" clip-rule="evenodd" d="M9.99976 8.78326C10.6123 8.78326 11.1109 8.28691 11.1109 7.67215C11.1109 7.05738 10.6123 6.56104 9.99976 6.56104C9.38722 6.56104 8.88864 7.05738 8.88864 7.67215C8.88864 8.28691 9.38722 8.78326 9.99976 8.78326Z" fill="black"/>
<path fill-rule="evenodd" clip-rule="evenodd" d="M6.1111 8.78326C6.72365 8.78326 7.22222 8.28691 7.22222 7.67215C7.22222 7.05738 6.72365 6.56104 6.1111 6.56104C5.49856 6.56104 4.99998 7.05738 4.99998 7.67215C4.99998 8.28691 5.49856 8.78326 6.1111 8.78326Z" fill="black"/>
</g>
</g>
</svg>
