<svg width="24" height="24" viewBox="0 0 24 24" fill="none" xmlns="http://www.w3.org/2000/svg">
<svg x="3.00" y="2.50" width="18.00" height="19.00" viewBox="0 0 19.0001 18" fill="none">
<path id="Fill" fill-rule="evenodd" clip-rule="evenodd" d="M9.49964 0C9.41191 0.000103001 9.32506 0.0175133 9.24402 0.0512371C9.16275 0.085062 9.08892 0.134638 9.02676 0.197126L0.394017 8.85253C0.142517 9.10487 -1.56263e-08 9.44764 0 9.80513C3.24476e-08 10.5474 0.601504 11.151 1.34133 11.151H2.25093V17.3271C2.25093 17.6993 2.55063 18 2.92159 18H8.15909V12.75C8.15909 12.6119 8.27101 12.5 8.40909 12.5L10.591 12.5C10.729 12.5 10.841 12.6119 10.841 12.75V18H16.0785C16.4494 18 16.7491 17.6993 16.7491 17.3271V11.151H17.6587C18.3985 11.151 19.0001 10.5474 19.0001 9.80513C19.0001 9.44764 18.8575 9.10487 18.606 8.85253L9.97329 0.197126C9.91114 0.134638 9.83731 0.085062 9.75603 0.0512352C9.67499 0.0175114 9.58736 0.000102993 9.49964 0ZM10.591 10.8C11.6679 10.8 12.541 11.673 12.541 12.75V16.3H15.0491V9.45096H16.8019L9.50003 2.12994L2.19817 9.45096H3.95093V16.3H6.45908L6.45908 12.75C6.45908 11.673 7.33213 10.8 8.40909 10.8L10.591 10.8Z" fill="black"/>
</svg>
</svg>
