<svg width="24" height="24" viewBox="0 0 24 24" fill="none" xmlns="http://www.w3.org/2000/svg">
<g transform="translate(2.8628, 2.0001)">
<path d="M8.9248 19.1396C8.90876 19.1383 8.89291 19.1355 8.87695 19.1338C8.89291 19.1355 8.90876 19.1383 8.9248 19.1396ZM9.41602 19.1338C9.39813 19.1357 9.38029 19.1381 9.3623 19.1396C9.3803 19.1381 9.39814 19.1357 9.41602 19.1338ZM8.71777 19.1123C8.69056 19.1077 8.66363 19.1022 8.63672 19.0967C8.66363 19.1022 8.69056 19.1077 8.71777 19.1123ZM9.65234 19.0967C9.62543 19.1022 9.59851 19.1077 9.57129 19.1123C9.59851 19.1077 9.62543 19.1022 9.65234 19.0967ZM9.86035 19.0449C9.82896 19.0542 9.79751 19.0632 9.76563 19.0713C9.79751 19.0632 9.82896 19.0542 9.86035 19.0449ZM8.52246 19.0703C8.49228 19.0627 8.46236 19.0546 8.43262 19.0459C8.46236 19.0546 8.49227 19.0627 8.52246 19.0703ZM10.0527 18.9805C10.0257 18.9909 9.99822 19.0003 9.9707 19.0098C9.99822 19.0003 10.0257 18.9909 10.0527 18.9805ZM8.3125 19.0078C8.28725 18.999 8.26218 18.99 8.2373 18.9805C8.26218 18.99 8.28725 18.999 8.3125 19.0078ZM8.12402 18.9336C8.09932 18.9227 8.07409 18.913 8.0498 18.9014C8.07409 18.913 8.09932 18.9227 8.12402 18.9336ZM10.2393 18.9014C10.215 18.913 10.1898 18.9227 10.165 18.9336C10.1898 18.9227 10.215 18.913 10.2393 18.9014ZM7.53711 18.5723C7.52088 18.5589 7.50515 18.545 7.48926 18.5312C7.50514 18.545 7.52088 18.5589 7.53711 18.5723ZM10.7998 18.5312C10.7839 18.545 10.7682 18.5589 10.752 18.5723C10.7682 18.5589 10.7839 18.545 10.7998 18.5312ZM10.9639 18.376C10.9414 18.3992 10.9188 18.422 10.8955 18.4443C10.9188 18.422 10.9415 18.3992 10.9639 18.376ZM7.39063 18.4414C7.37153 18.423 7.35249 18.4047 7.33398 18.3857C7.35248 18.4047 7.37154 18.423 7.39063 18.4414ZM11.0938 18.2314C11.0746 18.2546 11.0551 18.2774 11.0352 18.2998C11.0551 18.2774 11.0746 18.2546 11.0938 18.2314ZM7.24316 18.2871C7.22992 18.272 7.21601 18.2576 7.20313 18.2422C7.21601 18.2576 7.22993 18.272 7.24316 18.2871ZM9.13574 0.849609C12.6619 0.849819 15.5525 3.24763 15.8193 6.29297L15.8369 6.58984L15.8389 9.71777V9.91504L15.9258 10.0928L17.3418 12.9697C17.4925 13.3747 17.4318 13.7428 17.21 14.0088C16.9885 14.2743 16.6075 14.4374 16.1182 14.4375H2.15625C1.67219 14.4374 1.29138 14.2719 1.06836 14.0039C0.844894 13.7353 0.780464 13.3645 0.931641 12.957L0.930664 12.9561L2.34375 10.082L2.43066 9.90527V6.58887L2.4375 6.50391L2.43848 6.49023C2.59484 3.35166 5.53382 0.849609 9.13574 0.849609Z" fill="black" stroke="var(--stroke-0, #0E0F10)" stroke-width="1.7"/>
</g>
</svg>
