<svg width="14" height="14" viewBox="0 0 19.9219 15.6992" fill="none" xmlns="http://www.w3.org/2000/svg">
<path d="M3.84961 7.34961C4.40189 7.34961 4.84961 8.24504 4.84961 9.34961C4.84961 10.4542 4.40189 11.3496 3.84961 11.3496C3.29732 11.3496 2.84961 10.4542 2.84961 9.34961C2.84961 8.24504 3.29732 7.34961 3.84961 7.34961Z" fill="currentColor"/>
<path fill-rule="evenodd" clip-rule="evenodd" d="M8.04102 0C8.48812 0.000139437 8.90176 0.220675 9.15137 0.582031L9.24805 0.746094L10.375 3H16.0723C17.3576 3 18.3337 3.94321 18.9395 5.05371C19.5627 6.19635 19.9219 7.71664 19.9219 9.34961C19.9219 10.9826 19.5627 12.5029 18.9395 13.6455C18.3337 14.756 17.3576 15.6992 16.0723 15.6992H3.84961C2.56431 15.6992 1.58815 14.756 0.982422 13.6455C0.359167 12.5029 0 10.9826 0 9.34961C0 7.71664 0.359167 6.19635 0.982422 5.05371C1.58815 3.94321 2.56431 3 3.84961 3H5.97461L5.45117 1.95312C5.00259 1.05567 5.65494 0.000296936 6.6582 0H8.04102ZM3.84961 4.69922C3.4781 4.69922 2.95462 4.98733 2.47461 5.86719C2.01208 6.71515 1.69922 7.94502 1.69922 9.34961C1.69922 10.7542 2.01208 11.9841 2.47461 12.832C2.95462 13.7119 3.4781 14 3.84961 14C4.22112 14 4.7446 13.7119 5.22461 12.832C5.68713 11.9841 6 10.7542 6 9.34961C6 7.94502 5.68713 6.71515 5.22461 5.86719C4.7446 4.98733 4.22112 4.69922 3.84961 4.69922ZM6.50586 4.69922C6.58029 4.81487 6.65102 4.93312 6.7168 5.05371C6.93785 5.45897 7.12502 5.91194 7.27539 6.40039H8.84961L8.93652 6.4043C9.36512 6.44784 9.69922 6.80991 9.69922 7.25C9.69903 7.68994 9.36502 8.05219 8.93652 8.0957L8.84961 8.09961H7.62695C7.67414 8.5055 7.69922 8.92368 7.69922 9.34961C7.69922 9.74075 7.67858 10.1254 7.63867 10.5H15.3496L15.4365 10.5039C15.8651 10.5474 16.1992 10.9095 16.1992 11.3496C16.1992 11.7897 15.8651 12.1518 15.4365 12.1953L15.3496 12.1992H7.30566C7.15055 12.7258 6.95281 13.2128 6.7168 13.6455C6.65102 13.7661 6.58029 13.8843 6.50586 14H16.0723C16.4438 14 16.9673 13.7119 17.4473 12.832C17.9098 11.9841 18.2227 10.7542 18.2227 9.34961C18.2227 8.91391 18.1891 8.4955 18.1338 8.09961H12.25C11.7807 8.09961 11.4006 7.71927 11.4004 7.25C11.4004 6.78056 11.7806 6.40039 12.25 6.40039H17.6943C17.6174 6.2098 17.5365 6.03082 17.4473 5.86719C16.9673 4.98733 16.4438 4.69922 16.0723 4.69922H6.50586ZM7.875 3H8.47461L7.82422 1.69922H7.22461L7.875 3Z" fill="currentColor"/>
</svg>
