<svg width="24" height="24" viewBox="0 0 24 24" fill="none" xmlns="http://www.w3.org/2000/svg">
<g transform="translate(3.1501, 2.8975)">
<g>
<path d="M3.45102 1.45104C3.78297 1.1191 3.78297 0.580905 3.45102 0.248959C3.11908 -0.0829864 2.58089 -0.0829864 2.24895 0.248959L0.248958 2.24896C-0.082986 2.5809 -0.082986 3.1191 0.248958 3.45104C0.580902 3.78299 1.11909 3.78299 1.45103 3.45104L3.45102 1.45104Z" fill="black"/>
<path d="M14.2489 0.248959C14.5808 -0.0829864 15.119 -0.0829864 15.451 0.248959L17.451 2.24896C17.7829 2.5809 17.7829 3.1191 17.451 3.45104C17.119 3.78299 16.5808 3.78299 16.2489 3.45104L14.2489 1.45104C13.9169 1.1191 13.9169 0.580905 14.2489 0.248959Z" fill="black"/>
<path d="M9.698 5.6C9.698 5.13056 9.31745 4.75 8.84801 4.75C8.37857 4.75 7.99801 5.13056 7.99801 5.6V10.2468L10.4196 12.6704C10.7514 13.0024 11.2896 13.0027 11.6217 12.6708C11.9538 12.339 11.954 11.8008 11.6222 11.4688L9.698 9.54304V5.6Z" fill="black"/>
<path fill-rule="evenodd" clip-rule="evenodd" d="M14.0181 16.2612C12.607 17.4078 10.8075 18.0951 8.84754 18.0951C6.8881 18.0951 5.08908 17.4082 3.67812 16.2621L1.98423 17.956C1.65229 18.288 1.1141 18.288 0.782159 17.956C0.450215 17.6241 0.450215 17.0859 0.782159 16.7539L2.47598 15.0601C1.32962 13.649 0.642575 11.8498 0.642575 9.89006C0.642575 5.35856 4.31606 1.68506 8.84754 1.68506C13.379 1.68506 17.0525 5.35856 17.0525 9.89006C17.0525 11.8492 16.3658 13.6481 15.22 15.0589L16.915 16.7539C17.247 17.0859 17.247 17.6241 16.915 17.956C16.5831 18.288 16.0449 18.288 15.7129 17.956L14.0181 16.2612ZM15.3525 9.89006C15.3525 13.4827 12.4401 16.3951 8.84754 16.3951C5.25494 16.3951 2.34257 13.4827 2.34257 9.89006C2.34257 6.29745 5.25494 3.38506 8.84754 3.38506C12.4401 3.38506 15.3525 6.29745 15.3525 9.89006Z" fill="black"/>
</g>
</g>
</svg>
