<svg width="24" height="24" viewBox="0 0 24 24" fill="none" xmlns="http://www.w3.org/2000/svg">
<svg x="2.15" y="3.00" width="19.73" height="17.73" viewBox="0 0 19.7276 17.7326" fill="none">
<path id="Fill" d="M8.7539 0.424013C9.39636 -0.142064 10.3603 -0.141261 11.0029 0.425966L19.2851 7.73944C20.1823 8.53193 19.6241 10.0117 18.4277 10.0129L16.8467 10.0139V16.2238C16.8467 17.0572 16.1713 17.7325 15.3379 17.7326H12.8467C12.2944 17.7325 11.8467 17.2848 11.8467 16.7326V13.4728C11.8466 12.3683 10.9512 11.4728 9.84667 11.4728C8.74218 11.4729 7.84671 12.3683 7.84667 13.4728V16.7326C7.84667 17.2849 7.39895 17.7326 6.84667 17.7326H4.35546C3.52221 17.7324 2.84667 17.0571 2.84667 16.2238V10.0236L1.30468 10.0256C0.105996 10.0264 -0.456257 8.54247 0.442372 7.75019L8.7539 0.424013Z" fill="black"/>
</svg>
</svg>
