<svg width="24" height="24" viewBox="0 0 24 24" fill="none" xmlns="http://www.w3.org/2000/svg">
<g transform="translate(2, 2)">
<path fill-rule="evenodd" clip-rule="evenodd" d="M20.0001 10C20.0001 15.5229 15.5229 20 10 20C4.47717 20 0 15.5229 0 10C0 4.47716 4.47717 0 10 0C15.5229 0 20.0001 4.47716 20.0001 10ZM14.2305 16.0723C13.0315 16.9092 11.5731 17.4 10 17.4C5.91308 17.4 2.59999 14.0869 2.59999 10C2.59999 8.42696 3.09081 6.96856 3.92768 5.76958L14.2305 16.0723ZM16.0696 14.2345L5.76555 3.9305C6.96529 3.09193 8.42521 2.6 10 2.6C14.087 2.6 17.4001 5.91311 17.4001 10C17.4001 11.5748 16.9081 13.0347 16.0696 14.2345Z" fill="black"/>
</g>
</svg>
