<svg width="24" height="24" viewBox="0 0 24 24" fill="none" xmlns="http://www.w3.org/2000/svg">
<svg x="3.00" y="4.50" width="18.00" height="15.10" viewBox="0 0 18 15.1" fill="none">
<g id="Fill">
<path d="M0 9C0 4.02944 4.02944 0 9 0C13.9706 0 18 4.02944 18 9V11.4L17.9991 12.2568C17.9991 13.4402 17.0397 14.3996 15.8562 14.3996H15.7223C15.4264 14.3996 15.1866 14.1598 15.1866 13.8639V9.53533C15.1866 9.23946 15.4264 8.99961 15.7223 8.99961H16.2004V8.91437C16.2004 4.93792 12.9769 1.71437 9.0004 1.71437C5.02395 1.71437 1.8004 4.93792 1.8004 8.91437V8.99961H2.27716C2.57302 8.99961 2.81287 9.23946 2.81287 9.53533V13.9639C2.81287 14.2598 2.57302 14.4996 2.27716 14.4996H2.14322C0.959757 14.4996 0.000370026 13.5402 0.000370026 12.3568L0 9Z" fill="black"/>
<path d="M4.5 8.4C4.96944 8.4 5.35 8.78056 5.35 9.25V14.25C5.35 14.7194 4.96944 15.1 4.5 15.1C4.03056 15.1 3.65 14.7194 3.65 14.25V9.25C3.65 8.78056 4.03056 8.4 4.5 8.4Z" fill="black"/>
<path d="M14.35 9.25C14.35 8.78056 13.9694 8.4 13.5 8.4C13.0306 8.4 12.65 8.78056 12.65 9.25V14.25C12.65 14.7194 13.0306 15.1 13.5 15.1C13.9694 15.1 14.35 14.7194 14.35 14.25V9.25Z" fill="black"/>
</g>
</svg>
</svg>
