<svg width="24" height="24" viewBox="0 0 24 24" fill="none" xmlns="http://www.w3.org/2000/svg">
<g transform="translate(3.0743, 3.075)">
<path fill-rule="evenodd" clip-rule="evenodd" d="M12.5581 13.7588C11.235 14.8199 9.55527 15.4546 7.72731 15.4546C3.45963 15.4546 0 11.9949 0 7.72729C0 3.45962 3.45963 0 7.72731 0C11.995 0 15.4546 3.45962 15.4546 7.72729C15.4546 9.55456 14.8204 11.2337 13.76 12.5566L17.6025 16.399C17.9344 16.7309 17.9344 17.2691 17.6025 17.6011C17.2705 17.933 16.7323 17.933 16.4004 17.6011L12.5581 13.7588ZM13.7546 7.72729C13.7546 11.0561 11.0561 13.7546 7.72731 13.7546C4.3985 13.7546 1.69999 11.0561 1.69999 7.72729C1.69999 4.39852 4.3985 1.7 7.72731 1.7C11.0561 1.7 13.7546 4.39852 13.7546 7.72729Z" fill="black"/>
</g>
</svg>
