<svg width="24" height="24" viewBox="0 0 24 24" fill="none" xmlns="http://www.w3.org/2000/svg">
<g transform="translate(2.4047, 2.4004)">
<g>
<path d="M12.3775 2.9306C12.3344 2.80123 12.3681 2.65861 12.4645 2.56219L14.921 0.105834C15.1308 -0.103925 15.49 0.0158183 15.5319 0.309489L15.9124 2.97301C15.935 3.13141 16.0595 3.25587 16.2179 3.27849L18.8812 3.65876C19.1749 3.70069 19.2947 4.05992 19.0849 4.26969L16.6284 6.72628C16.532 6.8227 16.3894 6.85637 16.26 6.81327L14.2495 6.14334L9.94909 10.4437C9.61714 10.7757 9.07895 10.7757 8.74701 10.4437C8.41506 10.1118 8.41506 9.5736 8.74701 9.24165L13.0477 4.941L12.3775 2.9306Z" fill="black"/>
<path d="M1.7 9.84792C1.7 5.62222 5.12563 2.1966 9.35136 2.1966C9.8208 2.1966 10.2014 1.81604 10.2014 1.3466C10.2014 0.877156 9.8208 0.496599 9.35136 0.496599C4.18675 0.496599 0 4.68333 0 9.84792C0 15.0125 4.18675 19.1992 9.35136 19.1992C14.516 19.1992 18.7027 15.0125 18.7027 9.84792C18.7027 9.37848 18.3222 8.99792 17.8527 8.99792C17.3833 8.99792 17.0027 9.37848 17.0027 9.84792C17.0027 14.0736 13.5771 17.4992 9.35136 17.4992C5.12563 17.4992 1.7 14.0736 1.7 9.84792Z" fill="black"/>
<path d="M5.2 9.84855C5.2 7.55657 7.05802 5.69855 9.35002 5.69855C9.81946 5.69855 10.2 5.31799 10.2 4.84855C10.2 4.37911 9.81946 3.99855 9.35002 3.99855C6.11915 3.99855 3.5 6.61768 3.5 9.84855C3.5 13.0794 6.11915 15.6986 9.35002 15.6986C12.5809 15.6986 15.2 13.0794 15.2 9.84855C15.2 9.37911 14.8195 8.99855 14.35 8.99855C13.8806 8.99855 13.5 9.37911 13.5 9.84855C13.5 12.1405 11.642 13.9986 9.35002 13.9986C7.05802 13.9986 5.2 12.1405 5.2 9.84855Z" fill="black"/>
</g>
</g>
</svg>
