<svg width="24" height="24" viewBox="0 0 24 24" fill="none" xmlns="http://www.w3.org/2000/svg">
<g transform="translate(2, 2)">
<g>
<path d="M9.99818 5.70001C10.7162 5.70001 11.2982 6.28204 11.2982 7.00001V8.70003H12.9988C13.7168 8.70003 14.2988 9.28206 14.2988 10C14.2988 10.718 13.7168 11.3 12.9988 11.3H11.2982V13C11.2982 13.718 10.7162 14.3 9.99818 14.3C9.28021 14.3 8.69818 13.718 8.69818 13V11.3H6.99879C6.28082 11.3 5.69879 10.718 5.69879 10C5.69879 9.28206 6.28082 8.70003 6.99879 8.70003H8.69818V7.00001C8.69818 6.28204 9.28021 5.70001 9.99818 5.70001Z" fill="black"/>
<path fill-rule="evenodd" clip-rule="evenodd" d="M0 10C0 4.47715 4.47719 0 10 0C15.5229 0 20.0001 4.47715 20.0001 10C20.0001 15.5228 15.5229 20 10 20C4.47719 20 0 15.5228 0 10ZM10 17.4C5.91312 17.4 2.6 14.0869 2.6 10C2.6 5.9131 5.91312 2.6 10 2.6C14.087 2.6 17.4001 5.9131 17.4001 10C17.4001 14.0869 14.087 17.4 10 17.4Z" fill="black"/>
</g>
</g>
</svg>
