<svg width="24" height="24" viewBox="0 0 24 24" fill="none" xmlns="http://www.w3.org/2000/svg">
<g transform="translate(4, 2)">
<g>
<path d="M4.14999 13.5C4.14999 13.0306 4.53054 12.65 4.99998 12.65H11C11.4694 12.65 11.85 13.0306 11.85 13.5C11.85 13.9694 11.4694 14.35 11 14.35H4.99998C4.53054 14.35 4.14999 13.9694 4.14999 13.5Z" fill="black"/>
<path d="M4.99998 8.65C4.53054 8.65 4.14999 9.03056 4.14999 9.5C4.14999 9.96944 4.53054 10.35 4.99998 10.35H8.99997C9.46941 10.35 9.84997 9.96944 9.84997 9.5C9.84997 9.03056 9.46941 8.65 8.99997 8.65H4.99998Z" fill="black"/>
<path fill-rule="evenodd" clip-rule="evenodd" d="M3.99999 20H12C14.2091 20 15.9999 18.2091 15.9999 16V6.41421C15.9999 6.149 15.8946 5.89464 15.7071 5.70711L10.2929 0.292893C10.1053 0.105357 9.85097 0 9.58575 0H3.99999C1.79085 0 0 1.79086 0 4V16C0 18.2091 1.79085 20 3.99999 20ZM12 18.3H3.99999C2.72974 18.3 1.69999 17.2703 1.69999 16V4C1.69999 2.72975 2.72974 1.7 3.99999 1.7H9.14997V5C9.14997 6.02173 9.97824 6.85 11 6.85H14.2999V16C14.2999 17.2703 13.2702 18.3 12 18.3ZM12.7458 5.15L10.85 3.25416V5C10.85 5.08284 10.9171 5.15 11 5.15H12.7458Z" fill="black"/>
</g>
</g>
</svg>
