<svg width="24" height="24" viewBox="0 0 24 24" fill="none" xmlns="http://www.w3.org/2000/svg">
<svg x="2.20" y="2.60" width="19.60" height="18.80" viewBox="0 0 19.5996 18.7998" fill="none">
<g id="Fill">
<path id="Vector" d="M9.79883 0C13.6648 1.28855e-07 16.7988 3.13401 16.7988 7V7.00488C20.5868 7.20839 20.5324 14.5 16.6357 14.5C14.9435 14.5 15.1035 12.8211 15.1035 10.75C15.1035 10.5637 15.1022 10.3864 15.1016 10.2178C15.1006 10.2174 15.0996 10.2171 15.0986 10.2168V7C15.0986 4.07289 12.7259 1.7002 9.79883 1.7002C6.87172 1.7002 4.49902 4.07289 4.49902 7V12.8574C4.49927 14.6913 5.93327 16.1891 7.74121 16.293C8.03086 15.8179 8.55325 15.5 9.15039 15.5H10.3496C11.2609 15.5 12 16.2391 12 17.1504C11.9998 18.0615 11.2607 18.7998 10.3496 18.7998H9.15039C8.54803 18.7998 8.02243 18.4762 7.73438 17.9941L7.67676 17.9932C5.52562 17.884 3.72397 16.4528 3.06641 14.4961C3.03298 14.4975 2.99886 14.5 2.96387 14.5C-0.932147 14.5 -0.987156 7.21076 2.79883 7.00488V7C2.79883 3.13401 5.93284 0 9.79883 0Z" fill="black"/>
</g>
</svg>
</svg>
