<svg width="24" height="24" viewBox="0 0 24 24" fill="none" xmlns="http://www.w3.org/2000/svg">
<g transform="translate(5, 3)">
<path fill-rule="evenodd" clip-rule="evenodd" d="M1.70001 1.7V15.7296L5.59707 12.6717C6.42201 12.0244 7.57806 12.0244 8.403 12.6717L12.3001 15.7296V1.7H1.70001ZM12.8334 0H1.16667C0.522337 0 0 0.537941 0 1.20152V16.7984C0 17.0615 0.0838457 17.3173 0.238664 17.5266C0.629159 18.0544 1.3612 18.1563 1.87373 17.7541L6.64651 14.0091C6.85534 13.8452 7.14473 13.8452 7.35356 14.0091L12.1263 17.7541C12.3295 17.9136 12.5779 17.9999 12.8334 17.9999C13.4777 17.9999 14.0001 17.462 14.0001 16.7984V1.20152C14.0001 0.537941 13.4777 0 12.8334 0Z" fill="black"/>
</g>
</svg>
