<svg width="24" height="24" viewBox="0 0 24 24" fill="none" xmlns="http://www.w3.org/2000/svg">
<g transform="translate(1.9, 2.5938)">
<g>
<path d="M0 3.85C0 1.7237 1.7237 0 3.85 0H16.3501C18.4764 0 20.2001 1.7237 20.2001 3.85V12.7125C20.2001 13.182 19.8195 13.5625 19.3501 13.5625C18.8806 13.5625 18.5001 13.182 18.5001 12.7125V3.85C18.5001 2.66259 17.5375 1.7 16.3501 1.7H3.85C2.66259 1.7 1.7 2.66259 1.7 3.85V13.575C1.7 14.7624 2.66259 15.725 3.85 15.725H7.10003C7.56947 15.725 7.95003 16.1056 7.95003 16.575C7.95003 17.0444 7.56947 17.425 7.10003 17.425H3.85C1.7237 17.425 0 15.7013 0 13.575V3.85Z" fill="black"/>
<path d="M12.5272 7.8819C12.7701 8.0263 12.7701 8.38731 12.5272 8.53171L8.15583 11.131C7.91297 11.2754 7.6094 11.0949 7.6094 10.806L7.6094 5.60756C7.6094 5.31876 7.91297 5.13826 8.15583 5.28266L12.5272 7.8819Z" fill="black"/>
<path d="M14.7 10.4623C14.7 9.99284 14.3194 9.61228 13.85 9.61228C13.3806 9.61228 13 9.99284 13 10.4623V10.7199C12.7224 10.8008 12.4467 10.9336 12.1903 11.1378C11.639 11.5772 11.3401 12.2623 11.4311 12.9679C11.5246 13.6923 12.008 14.3087 12.7593 14.664C12.9695 14.7635 13.2458 14.8464 13.4647 14.9121L13.536 14.9335C13.8001 15.0133 14.0433 15.0902 14.2589 15.1858C14.7272 15.3933 14.75 15.5384 14.75 15.6236C14.75 15.7491 14.6808 15.9495 14.2719 16.0599C13.8618 16.1706 13.219 16.1259 12.5272 15.7238C12.1213 15.4879 11.6011 15.6256 11.3651 16.0315C11.1292 16.4373 11.267 16.9576 11.6728 17.1935C12.1074 17.4461 12.5569 17.62 13 17.7178V17.9623C13 18.4317 13.3806 18.8123 13.85 18.8123C14.3194 18.8123 14.7 18.4317 14.7 17.9623V17.7052C14.705 17.7038 14.71 17.7025 14.715 17.7012C15.6272 17.4549 16.45 16.7391 16.45 15.6236C16.45 14.4678 15.5568 13.9015 14.9477 13.6316C14.6247 13.4884 14.2888 13.3851 14.0279 13.3062C13.7304 13.2163 13.5749 13.1693 13.4862 13.1273C13.1753 12.9802 13.1254 12.8147 13.1171 12.7503C13.1064 12.6673 13.1372 12.5571 13.2498 12.4674C13.4109 12.3389 13.666 12.2779 14.0323 12.3317C14.3966 12.3852 14.7443 12.5373 14.9314 12.655C15.3288 12.905 15.8535 12.7856 16.1035 12.3883C16.3535 11.9909 16.2341 11.4661 15.8368 11.2161C15.5554 11.0391 15.1536 10.8534 14.7 10.7355V10.4623Z" fill="black"/>
</g>
</g>
</svg>
