<svg width="24" height="24" viewBox="0 0 24 24" fill="none" xmlns="http://www.w3.org/2000/svg">
<g transform="translate(2.4, 3.7128)">
<path id="Fill" fill-rule="evenodd" clip-rule="evenodd" d="M4.53774 0.104222C6.32565 -0.231206 8.3844 0.235085 9.62486 1.61832C10.8626 0.228834 12.9133 -0.234074 14.6958 0.10884C17.0371 0.559227 19.2 2.41992 19.2 5.68939C19.2 8.78757 16.898 12.5021 11.078 16.1556C10.8965 16.2695 10.3242 16.5757 9.5967 16.5728C8.86692 16.57 8.26785 16.2474 8.07573 16.1264C2.29011 12.4827 0 8.77945 0 5.68939C0 4.08251 0.526375 2.78275 1.38593 1.82878C2.23691 0.884326 3.37428 0.322498 4.53774 0.104222ZM1.69999 5.68939C1.69999 4.47394 2.08941 3.58765 2.64888 2.96674C3.21691 2.33631 4.00178 1.93443 4.85121 1.77507C6.50476 1.46485 8.09588 2.08719 8.72243 3.28417L7.55494 6.97171C7.32648 7.69324 7.86511 8.42883 8.62194 8.42883H9.92812L8.80989 14.5791C3.34469 11.0925 1.69999 7.88115 1.69999 5.68939ZM10.5573 14.4718C15.8887 11.0269 17.5001 7.85875 17.5001 5.68939C17.5001 3.34669 16.0305 2.09677 14.3747 1.77823C12.6643 1.4492 11.0152 2.13427 10.4509 3.45249C10.4469 3.46814 10.4424 3.48378 10.4375 3.49937L9.415 6.72883H10.624C11.3223 6.72883 11.8501 7.36123 11.7252 8.04827L10.5573 14.4718Z" fill="black"/>
</g>
</svg>
