<svg width="24" height="24" viewBox="0 0 24 24" fill="none" xmlns="http://www.w3.org/2000/svg">
<g transform="translate(2.9464, 3)">
<g>
<path d="M10.5275 1.39647L10.5662 1.83169L8.01051 4.41042C7.95002 4.41128 7.88941 4.41379 7.82873 4.41797L4.06748 4.6767C2.55823 4.78053 1.88664 6.61386 2.94874 7.67596L10.4604 15.1876C11.5444 16.2715 13.3842 15.5408 13.4517 14.0208L13.6192 10.2472L16.2922 7.55012L16.7204 7.58661C17.916 7.68851 18.5661 6.24401 17.7302 5.40815L12.7003 0.378306C11.8501 -0.471955 10.4225 0.216641 10.5275 1.39647Z" fill="black"/>
<path d="M0.256164 17.7424C0.514367 18.004 0.961757 18.1167 1.35281 17.8372L1.36286 17.83L6.01278 14.0409L4.98746 13.0112L3.95993 11.9837L0.170805 16.6335L0.163624 16.6436C-0.115936 17.0346 -0.00544614 17.4842 0.256164 17.7424Z" fill="black"/>
</g>
</g>
</svg>
