<svg width="24" height="24" viewBox="0 0 24 24" fill="none" xmlns="http://www.w3.org/2000/svg">
<g transform="translate(1.5, 1.5)">
<g>
<path fill-rule="evenodd" clip-rule="evenodd" d="M10.4986 5.68039C7.83654 5.68039 5.67854 7.83838 5.67854 10.5004C5.67854 13.1624 7.83654 15.3204 10.4986 15.3204C13.1606 15.3204 15.3186 13.1624 15.3186 10.5004C15.3186 7.83838 13.1606 5.68039 10.4986 5.68039ZM3.97853 10.5004C3.97853 6.89949 6.89765 3.98039 10.4986 3.98039C14.0995 3.98039 17.0186 6.89949 17.0186 10.5004C17.0186 14.1013 14.0995 17.0204 10.4986 17.0204C6.89765 17.0204 3.97853 14.1013 3.97853 10.5004Z" fill="black"/>
<path fill-rule="evenodd" clip-rule="evenodd" d="M21.0001 10.4C21.0001 10.8694 20.6195 11.25 20.1501 11.25H19.1162C18.6467 11.25 18.2662 10.8694 18.2662 10.4C18.2662 9.93056 18.6467 9.55 19.1162 9.55H20.1501C20.6195 9.55 21.0001 9.93056 21.0001 10.4ZM2.73394 10.4C2.73394 10.8694 2.35338 11.25 1.88394 11.25L0.850004 11.25C0.38056 11.25 -2.052e-08 10.8694 0 10.4C2.05201e-08 9.93056 0.38056 9.55 0.850004 9.55L1.88394 9.55C2.35338 9.55 2.73394 9.93056 2.73394 10.4Z" fill="black"/>
<path fill-rule="evenodd" clip-rule="evenodd" d="M17.8937 17.8956C17.5618 18.2275 17.0236 18.2275 16.6916 17.8956L15.9605 17.1645C15.6286 16.8325 15.6286 16.2943 15.9605 15.9624C16.2925 15.6304 16.8307 15.6304 17.1626 15.9624L17.8937 16.6935C18.2257 17.0254 18.2257 17.5636 17.8937 17.8956ZM4.97758 4.97951C4.64563 5.31146 4.10744 5.31146 3.77549 4.97951L3.04439 4.24841C2.71244 3.91647 2.71244 3.37827 3.04439 3.04633C3.37634 2.71438 3.91453 2.71438 4.24648 3.04633L4.97758 3.77743C5.30953 4.10937 5.30953 4.64756 4.97758 4.97951Z" fill="black"/>
<path fill-rule="evenodd" clip-rule="evenodd" d="M10.4 21C9.9306 21 9.55005 20.6194 9.55005 20.15V19.1161C9.55005 18.6466 9.93061 18.2661 10.4001 18.2661C10.8695 18.2661 11.2501 18.6466 11.2501 19.1161V20.15C11.2501 20.6194 10.8695 21 10.4 21ZM10.4001 2.73393C9.93061 2.73393 9.55005 2.35337 9.55005 1.88393L9.55005 0.85C9.55005 0.380558 9.93061 -4.10399e-08 10.4001 0C10.8695 4.104e-08 11.2501 0.380558 11.2501 0.85L11.2501 1.88393C11.2501 2.35337 10.8695 2.73393 10.4001 2.73393Z" fill="black"/>
<path fill-rule="evenodd" clip-rule="evenodd" d="M2.90639 17.8956C2.57445 17.5636 2.57445 17.0254 2.90639 16.6935L3.6375 15.9624C3.96944 15.6304 4.50764 15.6304 4.83958 15.9624C5.17153 16.2943 5.17153 16.8325 4.83958 17.1645L4.10848 17.8956C3.77653 18.2275 3.23834 18.2275 2.90639 17.8956ZM15.8225 4.97951C15.4906 4.64756 15.4906 4.10937 15.8225 3.77743L16.5536 3.04633C16.8856 2.71438 17.4238 2.71438 17.7557 3.04633C18.0877 3.37828 18.0877 3.91647 17.7557 4.24841L17.0246 4.97951C16.6927 5.31145 16.1545 5.31145 15.8225 4.97951Z" fill="black"/>
</g>
</g>
</svg>
