<svg width="24" height="24" viewBox="0 0 24 24" fill="none" xmlns="http://www.w3.org/2000/svg">
<g transform="translate(3, 2.9996)">
<g>
<path fill-rule="evenodd" clip-rule="evenodd" d="M0 1.96385C0 0.879246 0.879243 0 1.96384 0H5.89172C6.97632 0 7.85557 0.879248 7.85557 1.96385V5.89144C7.85557 6.97605 6.97632 7.8553 5.89172 7.8553H1.96384C0.879243 7.8553 0 6.97605 0 5.89144V1.96385ZM1.96384 1.7H5.89172C6.03744 1.7 6.15558 1.81813 6.15558 1.96385V5.89144C6.15558 6.03716 6.03745 6.1553 5.89172 6.1553H1.96384C1.81812 6.1553 1.69999 6.03716 1.69999 5.89144V1.96385C1.69999 1.81813 1.81812 1.7 1.96384 1.7Z" fill="black"/>
<path fill-rule="evenodd" clip-rule="evenodd" d="M10.1445 1.96385C10.1445 0.879246 11.0237 0 12.1083 0H16.0362C17.1208 0 18 0.879248 18 1.96385V5.89144C18 6.97605 17.1208 7.8553 16.0362 7.8553H12.1083C11.0237 7.8553 10.1445 6.97605 10.1445 5.89144V1.96385ZM12.1083 1.7H16.0362C16.1819 1.7 16.3001 1.81813 16.3001 1.96385V5.89144C16.3001 6.03716 16.1819 6.1553 16.0362 6.1553H12.1083C11.9626 6.1553 11.8445 6.03716 11.8445 5.89144V1.96385C11.8445 1.81813 11.9626 1.7 12.1083 1.7Z" fill="black"/>
<path fill-rule="evenodd" clip-rule="evenodd" d="M12.1083 10.1455C11.0237 10.1455 10.1445 11.0248 10.1445 12.1094V16.0369C10.1445 17.1216 11.0237 18.0008 12.1083 18.0008H16.0362C17.1208 18.0008 18 17.1216 18 16.037V12.1094C18 11.0248 17.1208 10.1455 16.0362 10.1455H12.1083ZM16.0362 11.8455H12.1083C11.9626 11.8455 11.8445 11.9636 11.8445 12.1094V16.0369C11.8445 16.1827 11.9626 16.3008 12.1083 16.3008H16.0362C16.1819 16.3008 16.3001 16.1827 16.3001 16.037V12.1094C16.3001 11.9636 16.1819 11.8455 16.0362 11.8455Z" fill="black"/>
<path fill-rule="evenodd" clip-rule="evenodd" d="M0 12.1094C0 11.0248 0.879243 10.1455 1.96384 10.1455H5.89172C6.97632 10.1455 7.85557 11.0248 7.85557 12.1094V16.037C7.85557 17.1216 6.97632 18.0008 5.89172 18.0008H1.96384C0.879243 18.0008 0 17.1216 0 16.0369V12.1094ZM1.96384 11.8455H5.89172C6.03744 11.8455 6.15558 11.9636 6.15558 12.1094V16.037C6.15558 16.1827 6.03745 16.3008 5.89172 16.3008H1.96384C1.81812 16.3008 1.69999 16.1827 1.69999 16.0369V12.1094C1.69999 11.9636 1.81812 11.8455 1.96384 11.8455Z" fill="black"/>
</g>
</g>
</svg>
