<svg width="24" height="24" viewBox="0 0 24 24" fill="none" xmlns="http://www.w3.org/2000/svg">
<g transform="translate(3, 3)">
<g>
<path d="M8.09414 7.2321e-05C5.62025 0.000114464 3.61474 2.00663 3.6147 4.48176L3.61468 5.25263C3.61468 5.35796 3.70002 5.44334 3.80529 5.44334L8.05089 5.44326C10.5248 5.44322 12.5303 3.4367 12.5303 0.961574L12.5303 0.190704C12.5304 0.0853792 12.445 -1.79371e-06 12.3397 0L8.09414 7.2321e-05Z" fill="black"/>
<path fill-rule="evenodd" clip-rule="evenodd" d="M0.381253 6.83092C0.170709 6.83093 2.8473e-05 7.00169 2.68953e-05 7.21234L2.06765e-10 10.801C-2.98013e-05 14.7769 3.22146 18 7.1954 18C10.1681 18 12.7197 16.1964 13.8168 13.6233L14.5979 13.6233C16.4768 13.6233 18 12.1026 18.0001 10.2268C18.0001 8.35108 16.477 6.83051 14.5981 6.83056L0.381253 6.83092ZM14.598 8.744L14.3909 8.74401L14.3909 10.8009C14.3909 11.1088 14.3716 11.4121 14.3341 11.7099L14.5979 11.7098C15.4183 11.7098 16.0834 11.0459 16.0834 10.2269C16.0834 9.4079 15.4184 8.74398 14.598 8.744Z" fill="black"/>
</g>
</g>
</svg>
