<svg width="24" height="24" viewBox="0 0 24 24" fill="none" xmlns="http://www.w3.org/2000/svg">
<g transform="translate(2, 4.617)">
<g>
<path fill-rule="evenodd" clip-rule="evenodd" d="M9.99878 3.81641C8.06972 3.81641 6.5059 5.38021 6.5059 7.30926C6.5059 9.23832 8.06972 10.8021 9.99878 10.8021C11.9278 10.8021 13.4917 9.23832 13.4917 7.30926C13.4917 5.38021 11.9278 3.81641 9.99878 3.81641ZM8.20591 7.30926C8.20591 6.3191 9.00861 5.51641 9.99878 5.51641C10.989 5.51641 11.7917 6.3191 11.7917 7.30926C11.7917 8.29943 10.989 9.10212 9.99878 9.10212C9.00861 9.10212 8.20591 8.29943 8.20591 7.30926Z" fill="black"/>
<path fill-rule="evenodd" clip-rule="evenodd" d="M10.0002 14.7661C5.17025 14.7661 1.0234 11.7525 0.0234196 7.58121C-0.00780654 7.45095 -0.00780654 7.31516 0.0234196 7.1849C1.02339 3.01361 5.16994 0 9.99993 0C14.8299 0 18.9767 3.01358 19.9767 7.1849C20.0079 7.31516 20.0079 7.45095 19.9767 7.58121C18.9767 11.7525 14.8302 14.7661 10.0002 14.7661ZM9.99993 1.7C5.91681 1.7 2.602 4.18498 1.72743 7.38306C2.602 10.5811 5.91706 13.0661 10.0002 13.0661C14.0833 13.0661 17.3981 10.5811 18.2727 7.38306C17.3981 4.18501 14.0831 1.7 9.99993 1.7Z" fill="black"/>
</g>
</g>
</svg>
