<svg width="24" height="24" viewBox="0 0 24 24" fill="none" xmlns="http://www.w3.org/2000/svg">
<g transform="translate(2.6999, 4.5464)">
<g>
<path d="M2.60001 1.3C2.60001 0.58203 2.01798 0 1.3 0C0.582032 0 0 0.58203 0 1.3V13.6072C0 14.3252 0.582031 14.9072 1.3 14.9072C2.01797 14.9072 2.60001 14.3252 2.60001 13.6072L2.60001 1.3Z" fill="black"/>
<path d="M13.2961 13.2958C12.7884 13.8034 11.9653 13.8034 11.4577 13.2957C10.95 12.788 10.95 11.9649 11.4577 11.4572L14.1615 8.75362L7.4537 8.75362C6.73573 8.75362 6.1537 8.17159 6.1537 7.45362C6.1537 6.73565 6.73573 6.15362 7.4537 6.15362L14.1615 6.15362L11.4577 3.45C10.95 2.94233 10.95 2.11922 11.4577 1.61152C11.9653 1.10382 12.7884 1.10379 13.2961 1.61146L18.2194 6.53435C18.4632 6.77815 18.6002 7.10882 18.6002 7.45362C18.6002 7.79841 18.4632 8.12908 18.2194 8.37288L13.2961 13.2958Z" fill="black"/>
</g>
</g>
</svg>
