<svg width="24" height="24" viewBox="0 0 24 24" fill="none" xmlns="http://www.w3.org/2000/svg">
<svg x="3.38" y="3.00" width="17.23" height="18.00" viewBox="0 0 17.2344 17.9995" fill="none">
<path id="Fill" fill-rule="evenodd" clip-rule="evenodd" d="M5.46618 8.99963C4.30489 8.07468 3.56056 6.64851 3.56056 5.04848C3.56056 2.26028 5.82085 0 8.60906 0C11.3973 0 13.6576 2.26028 13.6576 5.04848C13.6576 6.64601 12.9156 8.07022 11.7574 8.99529C14.9692 10.2721 17.2344 13.4493 17.2344 17.1495C17.2344 17.619 16.8539 17.9995 16.3844 17.9995C15.915 17.9995 15.5344 17.619 15.5344 17.1495C15.5344 13.257 12.4502 10.1233 8.66593 10.0967C8.647 10.0969 8.62804 10.097 8.60906 10.097C8.59241 10.097 8.57578 10.0969 8.55916 10.0967C4.7792 10.1285 1.70001 13.2602 1.70001 17.1495C1.70001 17.619 1.31945 17.9995 0.850003 17.9995C0.380559 17.9995 0 17.619 0 17.1495C0 13.4535 2.26017 10.2792 5.46618 8.99963ZM5.26056 5.04848C5.26056 3.19917 6.75974 1.7 8.60906 1.7C10.4584 1.7 11.9576 3.19917 11.9576 5.04848C11.9576 6.8808 10.4858 8.36937 8.65998 8.39659C8.64573 8.39652 8.63148 8.39648 8.61722 8.39648C8.59905 8.39648 8.5809 8.39654 8.56275 8.39666C6.73477 8.37188 5.26056 6.88234 5.26056 5.04848Z" fill="black"/>
</svg>
</svg>
