<svg width="24" height="24" viewBox="0 0 24 24" fill="none" xmlns="http://www.w3.org/2000/svg">
<g transform="translate(1.9996, 4.4695)">
<g>
<path fill-rule="evenodd" clip-rule="evenodd" d="M1 3.53353H3.81941L9.35938 0.148268C10.0257 -0.258915 10.8808 0.220655 10.8808 1.00157V14.0595C10.8808 14.8402 10.0262 15.3198 9.35982 14.913L3.82291 11.5335H1C0.447716 11.5335 0 11.0858 0 10.5335V4.53353C0 3.98125 0.447715 3.53353 1 3.53353Z" fill="black"/>
<path d="M13.0497 4.17962C13.3817 3.84768 13.9199 3.84768 14.2518 4.17962L16.4004 6.32818L18.549 4.17962C18.8809 3.84768 19.4191 3.84768 19.751 4.17962C20.083 4.51157 20.083 5.04976 19.751 5.38171L17.6025 7.53026L19.7518 9.67962C20.0838 10.0116 20.0838 10.5498 19.7518 10.8817C19.4199 11.2136 18.8817 11.2136 18.5498 10.8817L16.4004 8.73234L14.251 10.8817C13.9191 11.2136 13.3809 11.2136 13.0489 10.8817C12.717 10.5498 12.717 10.0116 13.0489 9.67962L15.1983 7.53026L13.0497 5.38171C12.7178 5.04976 12.7178 4.51157 13.0497 4.17962Z" fill="black"/>
</g>
</g>
</svg>
