<svg width="24" height="24" viewBox="0 0 24 24" fill="none" xmlns="http://www.w3.org/2000/svg">
<svg x="3.00" y="3.63" width="18.97" height="16.74" viewBox="0 0 18.9699 16.741" fill="none">
<g id="Fill">
<path fill-rule="evenodd" clip-rule="evenodd" d="M2.14403 0.260613C1.25172 -0.388338 0 0.249069 0 1.35241V15.3886C0 16.492 1.25172 17.1294 2.14403 16.4804L11.7939 9.46232C12.5352 8.92319 12.5352 7.81785 11.7939 7.27873L2.14403 0.260613ZM1.7 14.7013V2.03973L10.4048 8.37052L1.7 14.7013Z" fill="black"/>
<path d="M10.5101 1.02123C10.1304 0.745118 9.59884 0.829056 9.32273 1.20871C9.04662 1.58837 9.13056 2.11997 9.51021 2.39608L17.0022 7.8448C17.3591 8.10437 17.3591 8.63658 17.0022 8.89615L9.51021 14.3449C9.13056 14.621 9.04662 15.1526 9.32273 15.5322C9.59884 15.9119 10.1304 15.9958 10.5101 15.7197L18.0021 10.271C19.2925 9.33253 19.2925 7.40841 18.0021 6.46994L10.5101 1.02123Z" fill="black"/>
</g>
</svg>
</svg>
