<svg width="24" height="24" viewBox="0 0 24 24" fill="none" xmlns="http://www.w3.org/2000/svg">
<svg x="2.00" y="3.69" width="20.00" height="16.63" viewBox="0 0 19.9972 16.6296" fill="none">
<g id="Fill">
<path d="M10.6355 7.86588C10.9372 8.04005 10.9372 8.4755 10.6355 8.64967L6.90216 10.805C6.60048 10.9792 6.22339 10.7615 6.22339 10.4131V6.10242C6.22339 5.75408 6.60048 5.53636 6.90216 5.71053L10.6355 7.86588Z" fill="black"/>
<path fill-rule="evenodd" clip-rule="evenodd" d="M0 4.52517C0 2.02599 2.026 0 4.52519 0H11.3134C13.5104 0 15.3417 1.56567 15.7524 3.64211L18.885 2.62641C19.1438 2.54252 19.427 2.58751 19.647 2.74746C19.867 2.9074 19.9972 3.16297 19.9972 3.43497V13.2483C19.9972 13.5203 19.867 13.7759 19.647 13.9359C19.427 14.0958 19.1438 14.1408 18.885 14.0569L15.7422 13.0379C15.312 15.0892 13.4925 16.6296 11.3134 16.6296H4.52519C2.026 16.6296 0 14.6036 0 12.1044V4.52517ZM4.52519 1.7H11.3134C12.8737 1.7 14.1385 2.96487 14.1385 4.52517V12.1044C14.1385 13.6647 12.8737 14.9296 11.3134 14.9296H4.52519C2.96488 14.9296 1.70001 13.6647 1.70001 12.1044V4.52517C1.70001 2.96487 2.96488 1.7 4.52519 1.7ZM15.87 11.2922V5.39112L18.2972 4.60413V12.0792L15.87 11.2922Z" fill="black"/>
</g>
</svg>
</svg>
