<svg width="24" height="24" viewBox="0 0 24 24" fill="none" xmlns="http://www.w3.org/2000/svg">
<g transform="translate(3, 3)">
<g>
<path d="M1.69999 3.85C1.69999 2.66259 2.66257 1.7 3.84997 1.7H5.67318C6.14262 1.7 6.52318 1.31944 6.52318 0.85C6.52318 0.380558 6.14262 0 5.67318 0H3.84997C1.72369 0 0 1.7237 0 3.85V14.15C0 16.2763 1.72369 18 3.84997 18H14.1501C16.2763 18 18 16.2763 18 14.15V11.6754C18 11.206 17.6195 10.8254 17.15 10.8254C16.6806 10.8254 16.3001 11.206 16.3001 11.6754V14.15C16.3001 15.3374 15.3375 16.3 14.1501 16.3H3.84997C2.66257 16.3 1.69999 15.3374 1.69999 14.15V3.85Z" fill="black"/>
<path d="M10.8009 1.70195L15.1505 1.70195L9.08333 8.00351C8.75773 8.34169 8.76792 8.87978 9.10609 9.20538C9.44427 9.53098 9.98236 9.52078 10.308 9.18261L16.2988 2.9603V6.79587C16.2988 7.26531 16.6794 7.64587 17.1488 7.64587C17.6183 7.64587 17.9988 7.26531 17.9988 6.79587V0.851953C17.9988 0.626519 17.9093 0.410318 17.7499 0.250912C17.5905 0.0915063 17.3743 0.00195301 17.1488 0.00195301L10.8009 0.00195348C10.3314 0.00195348 9.95089 0.382511 9.95089 0.851953C9.95089 1.3214 10.3314 1.70195 10.8009 1.70195Z" fill="black"/>
</g>
</g>
</svg>
