<svg width="24" height="24" viewBox="0 0 24 24" fill="none" xmlns="http://www.w3.org/2000/svg">
<svg x="2.90" y="5.00" width="18.31" height="13.73" viewBox="0 0 18.3145 13.7275" fill="none">
<g id="Fill">
<path d="M6 13.7275C4.26708 13.7275 1.46648 13.5781 0.625 13.4287C0.141486 13.3427 0.00551119 12.9306 0 12.7295C0.363738 7.83376 3.97093 6.74965 5.99902 6.76074L6 13.7275Z" fill="black"/>
<path d="M6.00195 6.76074C8.03003 6.74971 11.6361 7.83322 12 12.7285C11.9947 12.9294 11.8598 13.3427 11.376 13.4287C10.5347 13.5781 7.73305 13.7275 6 13.7275L6.00195 6.76074Z" fill="black"/>
<path d="M13.4023 7.5332C15.0629 7.52402 18.0164 8.41577 18.3145 12.4434C18.31 12.6087 18.1995 12.9487 17.8037 13.0195C17.1176 13.1419 14.8403 13.2626 13.4199 13.2637C13.4706 13.077 13.4954 12.9056 13.499 12.7686L13.502 12.6924L13.4961 12.6172C13.4752 12.3355 13.4418 12.0634 13.4023 11.7998V7.5332Z" fill="black"/>
<path d="M13.4004 11.791C13.1483 10.1188 12.5352 8.80978 11.7031 7.81543C12.3137 7.60633 12.9128 7.53151 13.4004 7.53418V11.791Z" fill="black"/>
<path d="M13.4023 1.7998C14.783 1.7998 15.9022 2.91921 15.9023 4.2998C15.9023 5.68049 14.783 6.7998 13.4023 6.7998C12.0216 6.7998 10.9024 5.68049 10.9023 4.2998C10.9025 2.91921 12.0217 1.7998 13.4023 1.7998Z" fill="black"/>
<path d="M5.94727 0C7.60412 0 8.94727 1.34315 8.94727 3C8.94727 4.65685 7.60412 6 5.94727 6C4.29041 6 2.94727 4.65685 2.94727 3C2.94727 1.34315 4.29041 0 5.94727 0Z" fill="black"/>
</g>
</svg>
</svg>
