<svg width="24" height="24" viewBox="0 0 24 24" fill="none" xmlns="http://www.w3.org/2000/svg">
<g transform="translate(3.1196, 2.9)">
<g>
<path d="M11.1586 6.35635C11.8489 6.35635 12.4086 5.7967 12.4086 5.10635C12.4086 4.41599 11.8489 3.85635 11.1586 3.85635C10.4682 3.85635 9.90856 4.41599 9.90856 5.10635C9.90856 5.7967 10.4682 6.35635 11.1586 6.35635Z" fill="black"/>
<path fill-rule="evenodd" clip-rule="evenodd" d="M11.2732 0C7.69024 0 4.78565 2.90461 4.78565 6.48762C4.78565 7.40555 4.97676 8.28047 5.32168 9.07342L0.720734 13.6744C-0.240244 14.6354 -0.240245 16.1934 0.720734 17.1544C1.68171 18.1154 3.23977 18.1154 4.20075 17.1544L4.42137 16.9338L5.43869 17.9511C5.77063 18.283 6.30882 18.283 6.64076 17.9511C6.97271 17.6191 6.97271 17.081 6.64076 16.749L5.62345 15.7317L6.67069 14.6844L7.68807 15.7018C8.02001 16.0338 8.5582 16.0338 8.89015 15.7018C9.22209 15.3699 9.22209 14.8317 8.89015 14.4997L7.87277 13.4824L8.84846 12.5067C9.59831 12.809 10.4171 12.9752 11.2732 12.9752C14.8562 12.9752 17.7608 10.0706 17.7608 6.48762C17.7608 2.9046 14.8562 0 11.2732 0ZM6.48564 6.48762C6.48564 3.84349 8.62912 1.7 11.2732 1.7C13.9174 1.7 16.0608 3.84349 16.0608 6.48762C16.0608 9.13174 13.9174 11.2752 11.2732 11.2752C10.4728 11.2752 9.7206 11.0795 9.05945 10.734C8.73022 10.5619 8.32739 10.6236 8.06472 10.8862L2.99867 15.9523C2.70158 16.2494 2.2199 16.2494 1.92281 15.9523C1.62572 15.6552 1.62572 15.1735 1.92281 14.8765L6.95491 9.84434C7.22425 9.575 7.28153 9.15936 7.09507 8.82721C6.70715 8.13619 6.48564 7.33905 6.48564 6.48762Z" fill="black"/>
</g>
</g>
</svg>
