<svg width="24" height="24" viewBox="0 0 24 24" fill="none" xmlns="http://www.w3.org/2000/svg">
<g transform="translate(2, 3.6494)">
<path fill-rule="evenodd" clip-rule="evenodd" d="M4.11471 1.7C2.78109 1.7 1.69999 2.78111 1.69999 4.11471V12.5865C1.69999 13.9077 2.78363 15.0013 4.11472 15.0013H11.5324C12.866 15.0013 13.9471 13.9201 13.9471 12.5865C13.9471 12.1171 14.3277 11.7365 14.7971 11.7365C15.0747 11.7365 15.3213 11.8696 15.4764 12.0755L17.0523 13.2416C17.5629 13.6194 18.3001 13.2474 18.3001 12.6127V4.08851C18.3001 3.44616 17.5687 3.07751 17.0523 3.45962L15.4764 4.62575C15.3213 4.83161 15.0747 4.96471 14.7971 4.96471C14.3277 4.96471 13.9471 4.58415 13.9471 4.11471C13.9471 2.78111 12.866 1.7 11.5324 1.7H4.11471ZM15.3586 2.59811C14.7548 1.07618 13.2693 0 11.5324 0H4.11471C1.84223 0 0 1.84221 0 4.11471V12.5865C0 14.8415 1.8397 16.7013 4.11472 16.7013H11.5324C13.2693 16.7013 14.7548 15.6251 15.3586 14.1031L16.0412 14.6082C17.6854 15.8249 20.0001 14.6287 20.0001 12.6127V4.08851C20.0001 2.05031 17.6796 0.880706 16.0412 2.09305L16.5468 2.77633L16.0412 2.09305L15.3586 2.59811Z" fill="black"/>
</g>
</svg>
