<svg width="24" height="24" viewBox="0 0 24 24" fill="none" xmlns="http://www.w3.org/2000/svg">
<g transform="translate(2.0082, 1.7)">
<path d="M18.9267 1.3C18.9267 0.58203 18.3447 0 17.6267 0C16.9088 0 16.3267 0.58203 16.3267 1.3V2.88121C14.6033 1.46683 12.3969 0.61644 9.99179 0.61644C4.47349 0.61644 0 5.0899 0 10.6082C0 16.1265 4.47349 20.6 9.99179 20.6C15.5101 20.6 19.9836 16.1265 19.9836 10.6082C19.9836 9.89024 19.4016 9.30821 18.6836 9.30821C17.9656 9.30821 17.3836 9.89024 17.3836 10.6082C17.3836 14.6906 14.0742 18 9.99179 18C5.9094 18 2.59999 14.6906 2.59999 10.6082C2.59999 6.52586 5.9094 3.21644 9.99179 3.21644C11.6833 3.21644 13.2423 3.78403 14.4887 4.74097H12.8858C12.1678 4.74097 11.5858 5.323 11.5858 6.04097C11.5858 6.75894 12.1678 7.34097 12.8858 7.34097H17.6267C18.3447 7.34097 18.9267 6.75894 18.9267 6.04097V1.3Z" fill="black"/>
</g>
</svg>
