<svg width="24" height="24" viewBox="0 0 24 24" fill="none" xmlns="http://www.w3.org/2000/svg">
<g transform="translate(3, 3.5001)">
<g>
<path d="M7.49996 11.7749C7.49996 11.2226 7.94767 10.7749 8.49995 10.7749H9.49995C10.0522 10.7749 10.4999 11.2226 10.4999 11.7749V12.7749C10.4999 13.3272 10.0522 13.7749 9.49995 13.7749H8.49995C7.94767 13.7749 7.49996 13.3272 7.49996 12.7749V11.7749Z" fill="black"/>
<path fill-rule="evenodd" clip-rule="evenodd" d="M1.79166 0.995139C2.11032 0.383568 2.74268 0 3.43229 0H14.5676C15.2572 0 15.8896 0.383567 16.2082 0.995139L17.7151 3.88711C17.9022 4.24619 17.9999 4.64512 17.9999 5.05003V7.3998C17.9999 8.42153 17.1716 9.24981 16.1499 9.24981H16.1003V15.1498C16.1003 16.1715 15.272 16.9998 14.2503 16.9998H3.75037C2.72865 16.9998 1.90038 16.1715 1.90038 15.1498V9.24981H1.84999C0.828268 9.24981 0 8.42153 0 7.3998V5.05003C0 4.64512 0.0976972 4.2462 0.284798 3.88711L1.79166 0.995139ZM14.4003 15.1498V9.24981H13.2206C12.7419 9.24981 12.2972 9.06597 11.9636 8.75719C11.63 9.06597 11.1852 9.24981 10.7066 9.24981H7.29334C6.81466 9.24981 6.36993 9.06597 6.03633 8.75719C5.70273 9.06597 5.258 9.24981 4.77932 9.24981H3.60037V15.1498C3.60037 15.2326 3.66753 15.2998 3.75037 15.2998H14.2503C14.3332 15.2998 14.4003 15.2326 14.4003 15.1498ZM16.1499 7.5498H13.2206C13.153 7.5498 13.0937 7.5046 13.0759 7.4394L12.7834 6.37073C12.6823 6.00129 12.3466 5.74512 11.9636 5.74512C11.5805 5.74512 11.2448 6.00129 11.1437 6.37073L10.8512 7.4394C10.8334 7.5046 10.7741 7.5498 10.7066 7.5498H7.29334C7.22575 7.5498 7.16651 7.5046 7.14866 7.4394L6.85617 6.37073C6.75506 6.00129 6.41935 5.74512 6.03633 5.74512C5.65331 5.74512 5.3176 6.00129 5.21649 6.37073L4.92399 7.4394C4.90615 7.5046 4.84691 7.5498 4.77932 7.5498H1.84999C1.76715 7.5498 1.69999 7.48265 1.69999 7.3998V5.05003C1.69999 4.91864 1.73169 4.78918 1.79241 4.67266L3.29927 1.78069C3.3251 1.7311 3.37638 1.7 3.43229 1.7H14.5676C14.6235 1.7 14.6748 1.7311 14.7006 1.78069L16.2075 4.67266C16.2682 4.78918 16.2999 4.91864 16.2999 5.05003V7.3998C16.2999 7.48265 16.2328 7.5498 16.1499 7.5498Z" fill="black"/>
</g>
</g>
</svg>
