<svg width="24" height="24" viewBox="0 0 24 24" fill="none" xmlns="http://www.w3.org/2000/svg">
<g transform="translate(2.5, 3.0749)">
<g>
<path d="M5.49998 10.355C5.49998 10.7692 5.16419 11.105 4.74998 11.105C4.33576 11.105 3.99997 10.7692 3.99997 10.355C3.99997 9.94077 4.33576 9.60498 4.74998 9.60498C5.16419 9.60498 5.49998 9.94077 5.49998 10.355Z" fill="black"/>
<path d="M9.49994 11.105C9.91416 11.105 10.2499 10.7692 10.2499 10.355C10.2499 9.94077 9.91416 9.60498 9.49994 9.60498C9.08573 9.60498 8.74994 9.94077 8.74994 10.355C8.74994 10.7692 9.08573 11.105 9.49994 11.105Z" fill="black"/>
<path d="M14.9999 10.355C14.9999 10.7692 14.6641 11.105 14.2499 11.105C13.8357 11.105 13.4999 10.7692 13.4999 10.355C13.4999 9.94077 13.8357 9.60498 14.2499 9.60498C14.6641 9.60498 14.9999 9.94077 14.9999 10.355Z" fill="black"/>
<path d="M4.74998 14.355C5.16419 14.355 5.49998 14.0192 5.49998 13.605C5.49998 13.1908 5.16419 12.855 4.74998 12.855C4.33576 12.855 3.99997 13.1908 3.99997 13.605C3.99997 14.0192 4.33576 14.355 4.74998 14.355Z" fill="black"/>
<path d="M10.2499 13.605C10.2499 14.0192 9.91416 14.355 9.49994 14.355C9.08573 14.355 8.74994 14.0192 8.74994 13.605C8.74994 13.1908 9.08573 12.855 9.49994 12.855C9.91416 12.855 10.2499 13.1908 10.2499 13.605Z" fill="black"/>
<path d="M14.2499 14.355C14.6641 14.355 14.9999 14.0192 14.9999 13.605C14.9999 13.1908 14.6641 12.855 14.2499 12.855C13.8357 12.855 13.4999 13.1908 13.4999 13.605C13.4999 14.0192 13.8357 14.355 14.2499 14.355Z" fill="black"/>
<path fill-rule="evenodd" clip-rule="evenodd" d="M5.50035 0C5.96979 0 6.35035 0.380558 6.35035 0.85V1.8501H12.6503V0.85C12.6503 0.380558 13.0309 0 13.5003 0C13.9697 0 14.3503 0.380558 14.3503 0.85V1.8501H15.0001C17.2092 1.8501 19.0001 3.64096 19.0001 5.8501V13.8501C19.0001 16.0592 17.2092 17.8501 15.0001 17.8501H3.99997C1.79085 17.8501 0 16.0592 0 13.8501V5.8501C0 3.64096 1.79085 1.8501 3.99997 1.8501H4.65036V0.85C4.65036 0.380558 5.03091 0 5.50035 0ZM12.6503 3.5501V4.35C12.6503 4.81944 13.0309 5.2 13.5003 5.2C13.9697 5.2 14.3503 4.81944 14.3503 4.35V3.5501H15.0001C16.2703 3.5501 17.3001 4.57984 17.3001 5.8501V6H1.69999V5.8501C1.69999 4.57984 2.72973 3.5501 3.99997 3.5501H4.65036V4.35C4.65036 4.81944 5.03091 5.2 5.50035 5.2C5.96979 5.2 6.35035 4.81944 6.35035 4.35V3.5501H12.6503ZM1.69999 7.7V13.8501C1.69999 15.1204 2.72973 16.1501 3.99997 16.1501H15.0001C16.2703 16.1501 17.3001 15.1204 17.3001 13.8501V7.7H1.69999Z" fill="black"/>
</g>
</g>
</svg>
