<svg width="24" height="24" viewBox="0 0 24 24" fill="none" xmlns="http://www.w3.org/2000/svg">
<g transform="translate(2.9959, 3.2488)">
<path fill-rule="evenodd" clip-rule="evenodd" d="M17.6372 2.2816C18.5592 4.25873 17.7038 6.6089 15.7267 7.53086L15.7018 7.54236L13.1085 8.75161L15.6997 9.95992C15.7081 9.96373 15.7164 9.96758 15.7247 9.97145C17.7018 10.8934 18.5572 13.2436 17.6353 15.2207C16.7133 17.1978 14.3632 18.0532 12.386 17.1313C10.4089 16.2093 9.55352 13.8592 10.4755 11.882C10.6758 11.4523 10.9437 11.0756 11.2605 10.7586L10.0325 10.186L1.85166 14.0008C1.20096 14.3042 0.427488 14.0227 0.124062 13.372C-0.179364 12.7213 0.102158 11.9478 0.75286 11.6444L6.95643 8.75161L0.750907 5.85791C0.100205 5.55448 -0.181317 4.78101 0.122109 4.13031C0.425535 3.4796 1.19901 3.19808 1.84971 3.50151L10.0325 7.31722L11.2624 6.74369C10.9456 6.42669 10.6778 6.04998 10.4774 5.62028C9.55547 3.64315 10.4109 1.29298 12.388 0.371027C14.3651 -0.550925 16.7153 0.304468 17.6372 2.2816ZM14.9779 3.52169C15.2149 4.0301 14.995 4.63442 14.4866 4.87149C13.9782 5.10856 13.3739 4.88861 13.1368 4.3802C12.8997 3.87178 13.1197 3.26746 13.6281 3.03039C14.1365 2.79333 14.7408 3.01328 14.9779 3.52169ZM14.4846 12.6308C14.993 12.8679 15.213 13.4722 14.9759 13.9806C14.7388 14.489 14.1345 14.709 13.6261 14.4719C13.1177 14.2348 12.8978 13.6305 13.1348 13.1221C13.3719 12.6137 13.9762 12.3938 14.4846 12.6308Z" fill="black"/>
</g>
</svg>
