<svg width="24" height="24" viewBox="0 0 24 24" fill="none" xmlns="http://www.w3.org/2000/svg">
<g transform="translate(3.1644, 3.1641)">
<path fill-rule="evenodd" clip-rule="evenodd" d="M16.7149 0.956296C15.4399 -0.318764 13.3726 -0.318766 12.0975 0.956295L8.75047 4.30334L7.32759 2.88047C6.99564 2.54852 6.45745 2.54852 6.12551 2.88047C5.79356 3.21241 5.79356 3.7506 6.12551 4.08255L7.4002 5.35724L1.01781 11.7396C-0.339268 13.0967 -0.339269 15.2969 1.01781 16.654C2.37488 18.0111 4.57513 18.0111 5.93221 16.654L12.3146 10.2716L13.5882 11.5452C13.9201 11.8772 14.4583 11.8772 14.7903 11.5452C15.1222 11.2133 15.1222 10.6751 14.7903 10.3431L13.3679 8.92075L16.7149 5.5737C17.99 4.29864 17.99 2.23136 16.7149 0.956296ZM8.60118 6.56042L11.1114 9.07065L4.73013 15.4519C4.03694 16.1451 2.91307 16.1451 2.21989 15.4519C1.52671 14.7587 1.52671 13.6349 2.21989 12.9417L8.60118 6.56042ZM12.1658 7.71867L15.5129 4.37162C16.124 3.76045 16.124 2.76955 15.5129 2.15838C14.9017 1.5472 13.9108 1.5472 13.2996 2.15838L9.95255 5.50542L12.1658 7.71867Z" fill="black"/>
</g>
</svg>
