<svg width="24" height="24" viewBox="0 0 24 24" fill="none" xmlns="http://www.w3.org/2000/svg">
<g transform="translate(2, 2)">
<g>
<path fill-rule="evenodd" clip-rule="evenodd" d="M18.3001 10C18.3001 5.41605 14.584 1.7 10 1.7C5.41603 1.7 1.69999 5.41605 1.69999 10C1.69999 14.5839 5.41603 18.3 10 18.3C14.584 18.3 18.3001 14.5839 18.3001 10ZM20.0001 10C20.0001 4.47715 15.5229 0 10 0C4.47717 0 0 4.47715 0 10C0 15.5228 4.47717 20 10 20C15.5229 20 20.0001 15.5228 20.0001 10Z" fill="black"/>
<path d="M9.00199 8.75006C9.00199 8.47392 9.22584 8.25006 9.50199 8.25006H10.502C10.7781 8.25006 11.002 8.47392 11.002 8.75006V14.7501C11.002 15.0262 10.7781 15.2501 10.502 15.2501H9.50199C9.22584 15.2501 9.00199 15.0262 9.00199 14.7501V8.75006Z" fill="black"/>
<path d="M9.00199 5.75006C9.00199 5.19778 9.44971 4.75006 10.002 4.75006C10.5543 4.75006 11.002 5.19778 11.002 5.75006C11.002 6.30235 10.5543 6.75006 10.002 6.75006C9.44971 6.75006 9.00199 6.30235 9.00199 5.75006Z" fill="black"/>
</g>
</g>
</svg>
