<svg width="24" height="24" viewBox="0 0 24 24" fill="none" xmlns="http://www.w3.org/2000/svg">
<g transform="translate(3.1501, 2.8975)">
<g>
<path d="M3.45103 0.248959C3.78298 0.580905 3.78298 1.1191 3.45103 1.45104L1.45104 3.45104C1.11909 3.78299 0.580903 3.78299 0.248959 3.45104C-0.0829862 3.1191 -0.0829862 2.5809 0.248959 2.24896L2.24895 0.248959C2.5809 -0.0829864 3.11909 -0.0829864 3.45103 0.248959Z" fill="black"/>
<path d="M14.2489 0.248959C14.5809 -0.0829864 15.1191 -0.0829864 15.451 0.248959L17.451 2.24896C17.7829 2.5809 17.7829 3.1191 17.451 3.45104C17.119 3.78299 16.5809 3.78299 16.2489 3.45104L14.2489 1.45104C13.917 1.1191 13.917 0.580905 14.2489 0.248959Z" fill="black"/>
<path fill-rule="evenodd" clip-rule="evenodd" d="M17.0525 9.89006C17.0525 11.8492 16.3659 13.6481 15.2201 15.0589L16.9151 16.7539C17.247 17.0859 17.247 17.6241 16.9151 17.956C16.5831 18.288 16.0449 18.288 15.713 17.956L14.0181 16.2612C12.607 17.4078 10.8075 18.0951 8.84755 18.0951C6.88811 18.0951 5.08909 17.4082 3.67812 16.2621L1.98424 17.956C1.65229 18.288 1.11411 18.288 0.78216 17.956C0.450215 17.6241 0.450215 17.0859 0.78216 16.7539L2.47599 15.0601C1.32962 13.649 0.642576 11.8498 0.642576 9.89006C0.642576 5.35856 4.31607 1.68506 8.84755 1.68506C13.379 1.68506 17.0525 5.35856 17.0525 9.89006ZM9.69763 5.59961C9.69763 5.13017 9.31707 4.74961 8.84763 4.74961C8.37819 4.74961 7.99763 5.13017 7.99763 5.59961V10.2464L10.4193 12.67C10.7511 13.002 11.2893 13.0023 11.6213 12.6705C11.9534 12.3386 11.9536 11.8004 11.6218 11.4684L9.69763 9.54265V5.59961Z" fill="black"/>
</g>
</g>
</svg>
