<svg width="24" height="24" viewBox="0 0 24 24" fill="none" xmlns="http://www.w3.org/2000/svg">
<g transform="translate(2, 4.5)">
<g>
<path d="M0 1C0 0.447715 0.447715 0 1 0H14C14.5523 0 15 0.447715 15 1V2C15 2.55228 14.5523 3 14 3H1C0.447715 3 0 2.55228 0 2V1Z" fill="black"/>
<path d="M17 1C17 0.447715 17.4477 0 18 0H19C19.5523 0 20 0.447715 20 1V2C20 2.55228 19.5523 3 19 3H18C17.4477 3 17 2.55228 17 2V1Z" fill="black"/>
<path d="M2.80381e-06 7.0001C2.80381e-06 6.44781 0.447718 6.0001 1 6.0001H14C14.5523 6.0001 15 6.44781 15 7.0001V8.0001C15 8.55238 14.5523 9.0001 14 9.0001H1C0.447718 9.0001 2.80381e-06 8.55238 2.80381e-06 8.0001V7.0001Z" fill="black"/>
<path d="M17 7C17 6.44772 17.4477 6 18 6H19C19.5523 6 20 6.44772 20 7V8C20 8.55228 19.5523 9 19 9H18C17.4477 9 17 8.55228 17 8V7Z" fill="black"/>
<path d="M2.80381e-06 13.0001C2.80381e-06 12.4478 0.447718 12.0001 1 12.0001H14C14.5523 12.0001 15 12.4478 15 13.0001V14.0001C15 14.5524 14.5523 15.0001 14 15.0001H1C0.447718 15.0001 2.80381e-06 14.5524 2.80381e-06 14.0001V13.0001Z" fill="black"/>
<path d="M17 13C17 12.4477 17.4477 12 18 12H19C19.5523 12 20 12.4477 20 13V14C20 14.5523 19.5523 15 19 15H18C17.4477 15 17 14.5523 17 14V13Z" fill="black"/>
</g>
</g>
</svg>
