<svg width="24" height="24" viewBox="0 0 24 24" fill="none" xmlns="http://www.w3.org/2000/svg">
<g transform="translate(2, 3.2146)">
<path fill-rule="evenodd" clip-rule="evenodd" d="M12.8703 0L7.20976 0.000164549C3.39902 0.00019085 0.183483 3.1608 0.00773921 7.20948C-0.176877 11.4661 2.96364 15.1112 7.05495 15.1112H10.2207V15.4429C10.2207 17.2192 12.2654 18.2896 13.6332 17.0075C14.6815 16.0251 16.82 14.0163 17.6836 13.1762C19.1739 11.726 20.072 9.61129 19.9954 7.2955C19.8624 3.26271 16.7317 0 12.8703 0ZM14.9995 7.67215C14.9995 8.28691 14.501 8.78326 13.8884 8.78326C13.2759 8.78326 12.7773 8.28691 12.7773 7.67215C12.7773 7.05738 13.2759 6.56104 13.8884 6.56104C14.501 6.56104 14.9995 7.05738 14.9995 7.67215ZM9.99975 8.78326C10.6123 8.78326 11.1109 8.28691 11.1109 7.67215C11.1109 7.05738 10.6123 6.56104 9.99975 6.56104C9.38721 6.56104 8.88863 7.05738 8.88863 7.67215C8.88863 8.28691 9.38721 8.78326 9.99975 8.78326ZM7.22221 7.67215C7.22221 8.28691 6.72364 8.78326 6.1111 8.78326C5.49855 8.78326 4.99998 8.28691 4.99998 7.67215C4.99998 7.05738 5.49855 6.56104 6.1111 6.56104C6.72364 6.56104 7.22221 7.05738 7.22221 7.67215Z" fill="black"/>
</g>
</svg>
