<svg width="24" height="24" viewBox="0 0 24 24" fill="none" xmlns="http://www.w3.org/2000/svg">
<g transform="translate(1.9997, 3.8978)">
<g>
<path fill-rule="evenodd" clip-rule="evenodd" d="M2.84996 8.35343C2.84996 7.80114 3.29767 7.35343 3.84995 7.35343H11.85C12.4023 7.35343 12.85 7.80114 12.85 8.35343V12.3534C12.85 12.9057 12.4023 13.3534 11.85 13.3534H3.84995C3.29767 13.3534 2.84996 12.9057 2.84996 12.3534V8.35343Z" fill="black"/>
<path fill-rule="evenodd" clip-rule="evenodd" d="M19.1327 5.58464C19.1327 6.05408 18.7522 6.43464 18.2827 6.43464H14.5254C14.2608 6.43464 14.0197 6.32634 13.8471 6.15365C13.6744 5.98097 13.5661 5.73996 13.5661 5.47527V1.71797C13.5661 1.24853 13.9466 0.867975 14.4161 0.867975C14.8855 0.867975 15.2661 1.24853 15.2661 1.71797V3.53256L18.5496 0.248959C18.8816 -0.0829864 19.4198 -0.0829864 19.7517 0.248959C20.0837 0.580905 20.0837 1.11909 19.7517 1.45104L16.4681 4.73464H18.2827C18.7522 4.73464 19.1327 5.1152 19.1327 5.58464Z" fill="black"/>
<path fill-rule="evenodd" clip-rule="evenodd" d="M2.78332 1.7044C2.18501 1.7044 1.69999 2.18943 1.69999 2.78773V13.4211C1.69999 14.0194 2.18501 14.5044 2.78332 14.5044H17.217C17.8153 14.5044 18.3003 14.0194 18.3003 13.4211V9.5544C18.3003 9.08496 18.6808 8.7044 19.1503 8.7044C19.6197 8.7044 20.0003 9.08496 20.0003 9.5544V13.4211C20.0003 14.9583 18.7542 16.2044 17.217 16.2044H2.78332C1.24613 16.2044 0 14.9583 0 13.4211V2.78773C0 1.25054 1.24614 0.00440156 2.78332 0.00440156H10.5C10.9695 0.00440156 11.35 0.38496 11.35 0.854402C11.35 1.32384 10.9695 1.7044 10.5 1.7044H2.78332Z" fill="black"/>
</g>
</g>
</svg>
