<svg width="24" height="24" viewBox="0 0 24 24" fill="none" xmlns="http://www.w3.org/2000/svg">
<svg x="2.00" y="4.00" width="20.00" height="16.00" viewBox="0 0 20 16" fill="none">
<g id="Union">
<path d="M8.60645 4.77539C8.98748 4.61323 9.42851 4.79094 9.59082 5.17188L11.9082 10.6162C12.0704 10.9973 11.8927 11.4383 11.5117 11.6006C11.1307 11.7627 10.6896 11.5851 10.5273 11.2041L8.21094 5.75977C8.04879 5.37877 8.22559 4.93773 8.60645 4.77539Z" fill="black"/>
<path d="M6.06152 4.96973C6.35432 4.67699 6.82917 4.67717 7.12207 4.96973C7.41494 5.2626 7.41491 5.73738 7.12207 6.03027L5.00098 8.15234L7.12207 10.2734C7.41496 10.5663 7.41496 11.0411 7.12207 11.334C6.82916 11.6267 6.35437 11.6268 6.06152 11.334L3.48047 8.75293C3.14889 8.42105 3.14889 7.88266 3.48047 7.55078L6.06152 4.96973Z" fill="black"/>
<path d="M12.8818 4.96973C13.1747 4.67685 13.6495 4.67687 13.9424 4.96973L16.5234 7.55078C16.855 7.88266 16.855 8.42008 16.5234 8.75195L13.9424 11.334C13.6495 11.6264 13.1746 11.6266 12.8818 11.334C12.5889 11.0411 12.5889 10.5654 12.8818 10.2725L15.0029 8.15137L12.8818 6.03027C12.589 5.73743 12.5891 5.26262 12.8818 4.96973Z" fill="black"/>
<path fill-rule="evenodd" clip-rule="evenodd" d="M17 0C18.6569 0 20 1.34315 20 3V13C20 14.6051 18.7394 15.9158 17.1543 15.9961L17 16H3L2.8457 15.9961C1.26055 15.9158 0 14.6051 0 13V3C0 1.34315 1.34315 6.44256e-08 3 0H17ZM3 1.7002C2.28203 1.7002 1.7002 2.28203 1.7002 3V13C1.7002 13.718 2.28203 14.2998 3 14.2998H17C17.718 14.2998 18.2998 13.718 18.2998 13V3C18.2998 2.28203 17.718 1.7002 17 1.7002H3Z" fill="black"/>
</g>
</svg>
</svg>
