<svg width="24" height="24" viewBox="0 0 24 24" fill="none" xmlns="http://www.w3.org/2000/svg">
<g transform="translate(2.4581, 2.4582)">
<g>
<path d="M9.54188 1.7C7.31259 1.7 5.30043 2.62962 3.87179 4.12464H5.90143C6.37088 4.12464 6.75143 4.5052 6.75143 4.97464C6.75143 5.44408 6.37088 5.82464 5.90143 5.82464H1.90665C1.4372 5.82464 1.05665 5.44408 1.05665 4.97464V0.981348C1.05665 0.511906 1.4372 0.131348 1.90665 0.131348C2.37609 0.131348 2.75665 0.511906 2.75665 0.981348V2.83312C4.48557 1.08478 6.88705 0 9.54188 0C14.8117 0 19.0838 4.27199 19.0838 9.54177C19.0838 14.8116 14.8117 19.0835 9.54188 19.0835C4.27205 19.0835 0 14.8116 0 9.54177C0 9.07233 0.38056 8.69177 0.850004 8.69177C1.31945 8.69177 1.70001 9.07233 1.70001 9.54177C1.70001 13.8727 5.21093 17.3835 9.54188 17.3835C13.8728 17.3835 17.3838 13.8727 17.3838 9.54177C17.3838 5.21089 13.8728 1.7 9.54188 1.7Z" fill="black"/>
<path d="M11.8113 9.69005C12.1177 9.51315 12.1177 9.07098 11.8113 8.89408L8.02018 6.70485C7.71379 6.52793 7.33078 6.74904 7.33078 7.10284V11.4813C7.33078 11.8351 7.71379 12.0562 8.02018 11.8793L11.8113 9.69005Z" fill="black"/>
</g>
</g>
</svg>
