<svg width="24" height="24" viewBox="0 0 24 24" fill="none" xmlns="http://www.w3.org/2000/svg">
<svg x="2.00" y="4.00" width="20.00" height="16.63" viewBox="0 0 19.9971 16.6299" fill="none">
<path id="Fill" d="M11.3135 0C13.51 5.11832e-05 15.3407 1.56564 15.752 3.6416L18.8848 2.62695L18.9824 2.60156C19.213 2.55611 19.454 2.60809 19.6465 2.74805C19.8665 2.90799 19.9971 3.16357 19.9971 3.43555V13.249C19.997 13.5209 19.8664 13.7766 19.6465 13.9365C19.4266 14.0963 19.1434 14.1414 18.8848 14.0576L15.7412 13.0381C15.3108 15.0892 13.4925 16.6298 11.3135 16.6299H4.52539C2.02621 16.6299 0 14.6037 0 12.1045V4.52539C0.000144823 2.02633 2.0263 0 4.52539 0H11.3135ZM6.90234 5.71094C6.60068 5.53687 6.22363 5.75521 6.22363 6.10352V10.4141C6.22376 10.7623 6.60072 10.9798 6.90234 10.8057L10.6357 8.65039C10.9373 8.47618 10.9374 8.04036 10.6357 7.86621L6.90234 5.71094Z" fill="black"/>
</svg>
</svg>
