<svg width="24" height="24" viewBox="0 0 24 24" fill="none" xmlns="http://www.w3.org/2000/svg">
<svg x="2.84" y="1.95" width="18.33" height="20.09" viewBox="0 0 18.325 20.0859" fill="none">
<g id="Fill">
<path d="M5.83598 9.26679L4.4125 10.8634L7.92476 14.8011L13.9125 8.08514L12.489 6.48855L7.92476 11.6079L5.83598 9.26679Z" fill="black"/>
<path fill-rule="evenodd" clip-rule="evenodd" d="M10.652 0.37323C9.7698 -0.120897 8.69502 -0.124607 7.80943 0.363419L1.51405 3.83265C0.580073 4.34734 0 5.32933 0 6.39573V13.5912C0 14.645 0.566602 15.6175 1.4834 16.1371L7.77861 19.7054C8.68013 20.2164 9.78468 20.2125 10.6826 19.6952L16.8594 16.1367C17.7662 15.6143 18.325 14.6474 18.325 13.6009V6.38608C18.325 5.32691 17.7527 4.3504 16.8286 3.83281L10.652 0.37323ZM8.62992 1.85231C9.00107 1.64778 9.45152 1.64933 9.82125 1.85642L15.9979 5.316C16.3852 5.53293 16.625 5.94218 16.625 6.38608V13.6009C16.625 14.0395 16.3908 14.4447 16.0108 14.6637L9.83397 18.2222C9.45765 18.439 8.99473 18.4406 8.6169 18.2264L2.3217 14.6582C1.93746 14.4404 1.7 14.0328 1.7 13.5912V6.39573C1.7 5.9488 1.94311 5.53725 2.33454 5.32154L8.62992 1.85231Z" fill="black"/>
</g>
</svg>
</svg>
