<svg width="24" height="24" viewBox="0 0 24 24" fill="none" xmlns="http://www.w3.org/2000/svg">
<g transform="translate(4.0937, 2.9499)">
<g>
<path d="M8.7562 11.2602C8.7562 10.7907 8.37565 10.4102 7.90621 10.4102C7.43677 10.4102 7.05621 10.7907 7.05621 11.2602V13.0102C7.05621 13.4796 7.43677 13.8602 7.90621 13.8602C8.37565 13.8602 8.7562 13.4796 8.7562 13.0102V11.2602Z" fill="black"/>
<path fill-rule="evenodd" clip-rule="evenodd" d="M2.41561 5.48968C2.41561 2.45781 4.87341 0 7.90526 0C10.9371 0 13.3949 2.45781 13.3949 5.48968V6.35063C14.7982 6.80648 15.8126 8.12481 15.8126 9.68008V14.6001C15.8126 16.5331 14.2456 18.1001 12.3126 18.1001H3.49998C1.56699 18.1001 0 16.5331 0 14.6001V9.68008C0 8.12558 1.01341 6.80778 2.41561 6.3513V5.48968ZM11.6949 5.48968V6.18008H4.1156V5.48968C4.1156 3.3967 5.81229 1.7 7.90526 1.7C9.99823 1.7 11.6949 3.3967 11.6949 5.48968ZM12.3126 7.88008H3.49998C2.50588 7.88008 1.69999 8.68597 1.69999 9.68008V14.6001C1.69999 15.5942 2.50587 16.4001 3.49998 16.4001H12.3126C13.3067 16.4001 14.1126 15.5942 14.1126 14.6001V9.68008C14.1126 8.68596 13.3067 7.88008 12.3126 7.88008Z" fill="black"/>
</g>
</g>
</svg>
