<svg width="24" height="24" viewBox="0 0 24 24" fill="none" xmlns="http://www.w3.org/2000/svg">
<g transform="translate(2.0549, 3)">
<g>
<path d="M8.45433 11.7847C8.45433 12.4712 8.18719 13.0278 7.85766 13.0278C7.52813 13.0278 7.26099 12.4712 7.26099 11.7847C7.26099 11.0981 7.52813 10.5416 7.85766 10.5416C8.18719 10.5416 8.45433 11.0981 8.45433 11.7847Z" fill="black"/>
<path d="M12.0345 13.0278C12.364 13.0278 12.6311 12.4712 12.6311 11.7847C12.6311 11.0981 12.364 10.5416 12.0345 10.5416C11.7049 10.5416 11.4378 11.0981 11.4378 11.7847C11.4378 12.4712 11.7049 13.0278 12.0345 13.0278Z" fill="black"/>
<path fill-rule="evenodd" clip-rule="evenodd" d="M11.4374 1.2431C11.4374 1.72025 11.1148 2.13461 10.6415 2.34298V3.80278C14.015 4.03427 16.828 5.93211 17.9154 8.51623C19.0432 8.79912 19.8903 9.9991 19.8903 11.4365C19.8903 13.0842 18.7772 14.4199 17.4042 14.4199C17.3646 14.4199 17.3252 14.4188 17.2861 14.4166C15.8294 16.5575 13.0874 18 9.94487 18C6.80235 18 4.06037 16.5575 2.60364 14.4166C2.5647 14.4188 2.52552 14.4199 2.48613 14.4199C1.11308 14.4199 0 13.0842 0 11.4365C0 9.99936 0.846763 8.79956 1.97424 8.51637C3.06168 5.93192 5.87518 4.0339 9.24924 3.80271V2.34265C8.7763 2.13417 8.45405 1.71999 8.45405 1.2431C8.45405 0.556553 9.1219 0 9.94573 0C10.7696 0 11.4374 0.556553 11.4374 1.2431ZM9.94482 14.8175C13.5148 14.8175 16.4088 13.4596 16.4088 11.7844C16.4088 10.1092 13.5148 8.75124 9.94482 8.75124C6.37488 8.75124 3.48087 10.1092 3.48087 11.7844C3.48087 13.4596 6.37488 14.8175 9.94482 14.8175Z" fill="black"/>
</g>
</g>
</svg>
