<svg width="24" height="24" viewBox="0 0 24 24" fill="none" xmlns="http://www.w3.org/2000/svg">
<g transform="translate(1.9488, 3.264)">
<path id="Fill" fill-rule="evenodd" clip-rule="evenodd" d="M4.90477 0.110868C6.64905 -0.216376 8.69436 0.168923 10.0738 1.42535C11.4499 0.163573 13.489 -0.219207 15.2308 0.115872C17.7535 0.60116 20.1001 2.62353 20.1001 6.13832C20.1001 9.46882 17.6356 13.3019 11.7673 16.9856C11.5487 17.1228 10.8913 17.4751 10.0449 17.4717C9.19499 17.4684 8.51119 17.098 8.28591 16.9561C2.45185 13.2819 0 9.46013 0 6.13832C0 4.42783 0.562626 3.01861 1.50162 1.97648C2.4275 0.948908 3.65818 0.34474 4.90477 0.110868ZM2.6 6.13832C2.6 5.02648 2.95317 4.24964 3.43319 3.71689C3.92633 3.16959 4.61789 2.81005 5.38419 2.66628C6.82985 2.39506 8.1149 2.91038 8.68269 3.78723L7.57543 7.28451C7.25514 8.29613 8.01031 9.32748 9.07145 9.32748H9.83842L8.93783 14.2807C3.98235 10.9749 2.6 8.03087 2.6 6.13832ZM11.6395 13.9558C16.2068 10.7827 17.5001 7.96877 17.5001 6.13832C17.5001 4.04094 16.2141 2.9527 14.7397 2.66906C13.1733 2.36773 11.7908 3.00688 11.3245 4.05586C11.3218 4.0652 11.3189 4.07453 11.316 4.08385L10.479 6.72748H11.0735C12.0525 6.72748 12.7926 7.61416 12.6174 8.57743L11.6395 13.9558Z" fill="black"/>
</g>
</svg>
