<svg width="24" height="24" viewBox="0 0 24 24" fill="none" xmlns="http://www.w3.org/2000/svg">
<g transform="translate(4.0004, 4.4695)">
<g>
<path fill-rule="evenodd" clip-rule="evenodd" d="M4.29772 5.23353H1.7V9.83353H4.30075L9.18082 12.8121V2.24966L4.29772 5.23353ZM1 3.53353H3.81943L9.3594 0.148269C10.0258 -0.258915 10.8808 0.220654 10.8808 1.00157V14.0595C10.8808 14.8402 10.0262 15.3198 9.35984 14.913L3.82293 11.5335H1C0.447716 11.5335 0 11.0858 0 10.5335V4.53353C0 3.98124 0.447716 3.53353 1 3.53353Z" fill="black"/>
<path fill-rule="evenodd" clip-rule="evenodd" d="M13.0103 3.22025C13.3423 2.8883 13.8804 2.8883 14.2124 3.22025C15.3154 4.3232 15.9991 5.84937 15.9991 7.5336C15.9991 9.21783 15.3154 10.744 14.2124 11.847C13.8804 12.1789 13.3423 12.1789 13.0103 11.847C12.6784 11.515 12.6784 10.9768 13.0103 10.6449C13.8075 9.84769 14.299 8.74886 14.299 7.5336C14.299 6.31834 13.8075 5.21951 13.0103 4.42233C12.6784 4.09039 12.6784 3.5522 13.0103 3.22025Z" fill="black"/>
</g>
</g>
</svg>
