<svg width="24" height="24" viewBox="0 0 24 24" fill="none" xmlns="http://www.w3.org/2000/svg">
<svg x="2.00" y="2.00" width="20.00" height="20.00" viewBox="0 0 20.0002 20" fill="none">
<g id="Fill">
<path id="Union" d="M10 0C15.5229 0 20 4.47715 20 10C20 15.3937 15.7298 19.7875 10.3857 19.9902L10.3828 19.9951C10.3805 19.9936 10.3783 19.9917 10.376 19.9902C10.2512 19.9948 10.1259 20 10 20C4.47714 19.9999 0 15.5228 0 10C1.26833e-07 4.56373 4.33799 0.143199 9.74121 0.00585938L9.74219 0.00488281L9.74414 0.00585938C9.82919 0.00372212 9.91444 8.05498e-07 10 0ZM2.64746 13.8496C3.75047 15.952 5.72739 17.521 8.09668 18.0771C6.97792 16.8728 6.10473 15.4371 5.55566 13.8496H2.64746ZM14.6113 13.8496C14.0945 15.3985 13.269 16.8053 12.209 17.999C14.4423 17.3837 16.2973 15.8609 17.3525 13.8496H14.6113ZM7.37305 13.8496C7.98599 15.3347 8.93728 16.644 10.1318 17.6826C11.2939 16.6351 12.2153 15.3271 12.8027 13.8496H7.37305ZM1.9834 7.84961C1.79986 8.53559 1.7002 9.25612 1.7002 10C1.7002 10.7439 1.79986 11.4644 1.9834 12.1504H5.10645C4.97235 11.4335 4.90042 10.6943 4.90039 9.93848C4.90041 9.22597 4.96451 8.52784 5.08398 7.84961H1.9834ZM15.0186 7.84961C15.1527 8.5667 15.2246 9.30649 15.2246 10.0625C15.2246 10.7748 15.1605 11.4723 15.041 12.1504H18.0166C18.2001 11.4644 18.2998 10.7439 18.2998 10C18.2998 9.25612 18.2001 8.53559 18.0166 7.84961H15.0186ZM6.81348 7.84961C6.67398 8.52398 6.59963 9.22281 6.59961 9.93848C6.59964 10.6979 6.68326 11.4379 6.83984 12.1504H13.3115C13.451 11.476 13.5254 10.7772 13.5254 10.0615C13.5254 9.30209 13.4417 8.56212 13.2852 7.84961H6.81348ZM7.9541 1.95508C5.64787 2.53976 3.72836 4.09014 2.64746 6.15039H5.51367C6.03691 4.58221 6.87498 3.15828 7.9541 1.95508ZM12.0605 1.95801C13.1638 3.15514 14.0256 4.5783 14.5693 6.15039H17.3525C16.2739 4.09443 14.3604 2.54548 12.0605 1.95801ZM9.99219 2.31641C8.83013 3.36396 7.90965 4.67293 7.32227 6.15039H12.752C12.1388 4.6649 11.1872 3.35519 9.99219 2.31641Z" fill="black"/>
</g>
</svg>
</svg>
