<svg width="24" height="24" viewBox="0 0 24 24" fill="none" xmlns="http://www.w3.org/2000/svg">
<g transform="translate(2, 2)">
<g>
<path d="M13.7838 11.2346C14.0964 11.5849 14.0658 12.1222 13.7155 12.4348C11.8467 14.1023 9.95032 14.1265 8.5396 13.693C7.85478 13.4826 7.29541 13.1699 6.90953 12.9134C6.71525 12.7843 6.56117 12.6668 6.45304 12.5793C6.39887 12.5354 6.35595 12.4988 6.32498 12.4717L6.26828 12.4207C5.92578 12.0996 5.90838 11.5617 6.22942 11.2192C6.54967 10.8776 7.08572 10.8594 7.42833 11.178L7.52276 11.258C7.59526 11.3167 7.70643 11.4018 7.85063 11.4977C8.14171 11.6912 8.55218 11.9185 9.03893 12.068C9.97133 12.3545 11.225 12.3787 12.5837 11.1663C12.9339 10.8538 13.4713 10.8843 13.7838 11.2346Z" fill="black"/>
<path d="M6.84957 7.66167C6.84957 7.21345 7.21293 6.8501 7.66115 6.8501H7.83801C8.28623 6.8501 8.64958 7.21345 8.64958 7.66167V8.73853C8.64958 9.18674 8.28623 9.5501 7.83801 9.5501H7.66115C7.21293 9.5501 6.84957 9.18674 6.84957 8.73853V7.66167Z" fill="black"/>
<path d="M11.3495 7.66167C11.3495 7.21345 11.7128 6.8501 12.1611 6.8501H12.3379C12.7861 6.8501 13.1495 7.21345 13.1495 7.66167V8.73853C13.1495 9.18674 12.7861 9.5501 12.3379 9.5501H12.1611C11.7128 9.5501 11.3495 9.18674 11.3495 8.73853V7.66167Z" fill="black"/>
<path fill-rule="evenodd" clip-rule="evenodd" d="M10 20C15.5229 20 20.0001 15.5228 20.0001 10C20.0001 4.47715 15.5229 0 10 0C4.47717 0 0 4.47715 0 10C0 15.5228 4.47717 20 10 20ZM10 18.3C14.5841 18.3 18.3001 14.5839 18.3001 10C18.3001 5.41605 14.5841 1.7 10 1.7C5.41604 1.7 1.69999 5.41605 1.69999 10C1.69999 14.5839 5.41604 18.3 10 18.3Z" fill="black"/>
</g>
</g>
</svg>
