<svg width="24" height="24" viewBox="0 0 24 24" fill="none" xmlns="http://www.w3.org/2000/svg">
<g transform="translate(2, 2)">
<g>
<path d="M8.48462 6.1955C8.27685 5.88384 7.88955 5.74492 7.53106 5.85346C7.17256 5.96201 6.92737 6.29243 6.92737 6.66699V9.15H6.66604C6.1966 9.15 5.81604 9.53056 5.81604 10C5.81604 10.4694 6.1966 10.85 6.66604 10.85H6.92737V13.3337C6.92737 13.8031 7.30793 14.1837 7.77737 14.1837C8.24682 14.1837 8.62738 13.8031 8.62738 13.3337V9.47435L11.5146 13.8052C11.7224 14.1168 12.1097 14.2557 12.4682 14.1472C12.8266 14.0386 13.0718 13.7082 13.0718 13.3337V10.85H13.3338C13.8033 10.85 14.1838 10.4694 14.1838 10C14.1838 9.53056 13.8033 9.15 13.3338 9.15H13.0718V6.66699C13.0718 6.19755 12.6913 5.81699 12.2218 5.81699C11.7524 5.81699 11.3718 6.19755 11.3718 6.66699V10.5263L8.48462 6.1955Z" fill="black"/>
<path fill-rule="evenodd" clip-rule="evenodd" d="M20.0001 10C20.0001 15.5228 15.5229 20 10 20C4.47717 20 0 15.5228 0 10C0 4.47715 4.47717 0 10 0C15.5229 0 20.0001 4.47715 20.0001 10ZM18.3001 10C18.3001 14.584 14.584 18.3 10 18.3C5.41606 18.3 1.70001 14.584 1.70001 10C1.70001 5.41604 5.41606 1.7 10 1.7C14.584 1.7 18.3001 5.41604 18.3001 10Z" fill="black"/>
</g>
</g>
</svg>
