<svg width="24" height="24" viewBox="0 0 24 24" fill="none" xmlns="http://www.w3.org/2000/svg">
<svg x="2.15" y="2.15" width="19.70" height="19.70" viewBox="0 0 19.6992 19.6992" fill="none">
<path id="Vector" d="M18 9.84961C18 5.34849 14.3507 1.69922 9.84961 1.69922C5.34849 1.69922 1.69922 5.34849 1.69922 9.84961C1.69922 14.3507 5.34849 18 9.84961 18C14.3507 18 18 14.3507 18 9.84961ZM19.6992 9.84961C19.6992 15.2896 15.2896 19.6992 9.84961 19.6992C4.4096 19.6992 0 15.2896 0 9.84961C0 4.4096 4.4096 0 9.84961 0C15.2896 0 19.6992 4.4096 19.6992 9.84961Z" fill="black"/>
</svg>
<svg x="7.15" y="7.15" width="9.70" height="9.70" viewBox="0 0 9.69903 9.69902" fill="none">
<path id="Union" d="M8.24896 0.248959C8.5809 -0.0829811 9.11818 -0.0829717 9.45013 0.248959C9.78194 0.580915 9.78203 1.11823 9.45013 1.45013L6.05072 4.84954L9.45013 8.24896C9.78195 8.58091 9.78203 9.11823 9.45013 9.45013C9.11823 9.78202 8.58091 9.78194 8.24896 9.45013L4.84954 6.05072L1.45013 9.45013C1.11823 9.78203 0.580913 9.78194 0.248959 9.45013C-0.0829847 9.11819 -0.0829826 8.5809 0.248959 8.24896L3.64837 4.84954L0.248959 1.45013C-0.0829865 1.11819 -0.082986 0.580905 0.248959 0.248959C0.580904 -0.0829865 1.11818 -0.082986 1.45013 0.248959L4.84954 3.64837L8.24896 0.248959Z" fill="black"/>
</svg>
</svg>
