<svg width="24" height="24" viewBox="0 0 24 24" fill="none" xmlns="http://www.w3.org/2000/svg">
<g transform="translate(3, 2)">
<g>
<path d="M9.41821 1.5L6.40002 1.5C5.25516 1.5 4.48673 1.50117 3.89497 1.54952C3.32072 1.59643 3.04615 1.6802 2.86503 1.77248C2.39463 2.01217 2.01217 2.39462 1.77249 2.86502C1.6802 3.04615 1.59644 3.32071 1.54952 3.89496C1.50117 4.48671 1.5 5.25514 1.5 6.4V11.6C1.5 12.7449 1.50117 13.5133 1.54952 14.105C1.59644 14.6793 1.6802 14.9539 1.77249 15.135C1.81416 15.2168 1.86015 15.2959 1.91016 15.3721C1.91019 16.1379 1.91163 16.8007 1.95649 17.3498C1.95904 17.381 1.96176 17.4122 1.96465 17.4434C1.31243 17.0579 0.78149 16.4941 0.435975 15.816C3.8743e-07 14.9603 3.25321e-07 13.8402 2.27398e-07 11.6L0 6.4C-9.78302e-08 4.15979 -1.49014e-07 3.03968 0.435975 2.18404C0.81947 1.43139 1.43139 0.819468 2.18404 0.435974C3.03969 2.98023e-07 4.1598 2.29941e-07 6.40002 1.32019e-07L9.41821 0C11.6584 -9.78299e-08 12.7785 -1.49012e-07 13.6342 0.435974C14.3036 0.777065 14.8617 1.29886 15.2468 1.93966C14.6973 1.90035 14.0395 1.90037 13.2835 1.90039H13.1753C13.1037 1.85414 13.0296 1.81143 12.9532 1.77248C12.7721 1.6802 12.4975 1.59643 11.9233 1.54951C11.3315 1.50117 10.5631 1.5 9.41821 1.5Z" fill="black"/>
<path fill-rule="evenodd" clip-rule="evenodd" d="M3.50001 8.3C3.50001 6.61984 3.50001 5.77976 3.82699 5.13803C4.11461 4.57354 4.57356 4.1146 5.13804 3.82698C5.77978 3.5 6.61986 3.5 8.30003 3.5L13.2 3.5C14.8802 3.5 15.7203 3.5 16.362 3.82698C16.9265 4.1146 17.3855 4.57354 17.6731 5.13803C18.0001 5.77976 18.0001 6.61984 18.0001 8.3V15.2C18.0001 16.8802 18.0001 17.7202 17.6731 18.362C17.3855 18.9265 16.9265 19.3854 16.362 19.673C15.7203 20 14.8802 20 13.2 20H8.30003C6.61986 20 5.77978 20 5.13804 19.673C4.57356 19.3854 4.11461 18.9265 3.82699 18.362C3.50001 17.7202 3.50001 16.8802 3.50001 15.2L3.50001 8.3ZM8.30002 5.2L13.2 5.2C14.0682 5.2 14.617 5.20132 15.032 5.23523C15.4271 5.26751 15.549 5.32066 15.5902 5.34169C15.8348 5.46633 16.0337 5.6652 16.1584 5.90981C16.1794 5.95108 16.2325 6.07291 16.2648 6.46804C16.2987 6.88301 16.3 7.43187 16.3 8.3L16.3 15.2C16.3 16.0681 16.2987 16.617 16.2648 17.032C16.2325 17.4271 16.1794 17.5489 16.1584 17.5902C16.0337 17.8348 15.8348 18.0337 15.5902 18.1583C15.549 18.1793 15.4271 18.2325 15.032 18.2648C14.617 18.2987 14.0682 18.3 13.2 18.3H8.30003C7.43189 18.3 6.88303 18.2987 6.46806 18.2648C6.07293 18.2325 5.9511 18.1793 5.90983 18.1583C5.66522 18.0337 5.46634 17.8348 5.34171 17.5902C5.32068 17.5489 5.26753 17.4271 5.23524 17.032C5.20134 16.617 5.20002 16.0681 5.20002 15.2V8.3C5.20002 7.43187 5.20134 6.88301 5.23524 6.46804C5.26753 6.07291 5.32068 5.95109 5.34171 5.90981C5.46634 5.6652 5.66522 5.46633 5.90983 5.34169C5.9511 5.32066 6.07293 5.26751 6.46806 5.23523C6.88303 5.20132 7.43189 5.2 8.30002 5.2Z" fill="black"/>
</g>
</g>
</svg>
