<svg width="24" height="24" viewBox="0 0 24 24" fill="none" xmlns="http://www.w3.org/2000/svg">
<g transform="translate(2.2704, 3.0)">
<g id="Fill">
<path d="M13.2099 13.3649C14.1738 13.6983 15.1804 13.3173 15.4582 12.5141C15.736 11.7109 15.1798 10.7895 14.2159 10.4561C13.252 10.1228 12.2454 10.5037 11.9676 11.3069C11.6899 12.1102 12.246 13.0316 13.2099 13.3649Z" fill="black"/>
<path d="M11.9441 3.25256C11.9601 3.62997 11.2447 3.96666 10.3464 4.00458C9.44802 4.0425 8.70684 3.7673 8.69091 3.38989C8.67498 3.01249 9.39033 2.6758 10.2887 2.63788C11.187 2.59995 11.9282 2.87516 11.9441 3.25256Z" fill="black"/>
<path fill-rule="evenodd" clip-rule="evenodd" d="M12.9524 0.0284942C7.91458 -0.282603 2.96361 2.02579 0.737876 3.43735C0.260039 3.7404 0 4.26159 0 4.79412V12.8735C0 14.0676 0.854609 15.0905 2.02964 15.3028L16.7547 17.964C18.1046 18.208 19.3502 17.1807 19.3677 15.8091L19.4583 8.71586C19.4651 8.17686 19.2954 7.65041 18.975 7.21693L14.1442 0.681671C13.8687 0.308971 13.4383 0.0584997 12.9524 0.0284942ZM17.7547 8.98441L5.79368 6.51247C5.78384 6.5968 5.76488 6.68089 5.73624 6.76372C5.49586 7.45877 4.66421 7.802 3.8787 7.53034C3.14011 7.27491 2.7053 6.5668 2.85582 5.90532L1.69999 5.66645V12.8735C1.69999 13.2453 1.96608 13.5638 2.33197 13.6299L5.26916 14.1608C5.66115 13.531 6.52201 13.2523 7.34078 13.5355C7.95191 13.7468 8.38811 14.2188 8.53644 14.7512L17.057 16.2911C17.3726 16.3482 17.6638 16.108 17.6678 15.7874L17.7547 8.98441ZM2.8675 4.17181L16.7273 7.03616L12.7995 1.72238C9.02892 1.5036 5.22606 2.93027 2.8675 4.17181Z" fill="black"/>
</g>
</g>
</svg>
