<svg width="24" height="24" viewBox="0 0 24 24" fill="none" xmlns="http://www.w3.org/2000/svg">
<g transform="translate(3, 3.0749)">
<g>
<path fill-rule="evenodd" clip-rule="evenodd" d="M8.71551 3.75733C7.81634 3.19535 6.65001 3.84179 6.65001 4.90212V8.09788C6.65001 9.15821 7.81635 9.80465 8.71551 9.24267L11.2721 7.6448C12.1181 7.11605 12.1181 5.88395 11.2721 5.3552L8.71551 3.75733ZM8.35001 7.46639V5.53361L9.89624 6.5L8.35001 7.46639Z" fill="black"/>
<path fill-rule="evenodd" clip-rule="evenodd" d="M4.50001 0C2.56701 0 1 1.567 1 3.5V11.4998C0.392777 11.9559 0 12.6821 0 13.5V14.5C0 15.3284 0.671574 16 1.5 16H4.04968L3.73974 16.6199C3.5298 17.0397 3.69999 17.5503 4.11987 17.7603C4.53976 17.9702 5.05033 17.8 5.26027 17.3801L5.95034 16H12.5497L13.2398 17.3801C13.4497 17.8 13.9603 17.9702 14.3802 17.7603C14.8 17.5503 14.9702 17.0397 14.7603 16.6199L14.4504 16H16.5C17.3285 16 18 15.3284 18 14.5V13.5C18 12.6821 17.6073 11.9559 17 11.4998V3.5C17 1.567 15.433 0 13.5 0H4.50001ZM13.5 1.7H4.50001C3.50589 1.7 2.7 2.50589 2.7 3.5V10.8H15.3V3.5C15.3 2.50589 14.4941 1.7 13.5 1.7ZM15.5 12.7H2.5C2.05818 12.7 1.7 13.0582 1.7 13.5V14.3H16.3V13.5C16.3 13.0582 15.9419 12.7 15.5 12.7Z" fill="black"/>
</g>
</g>
</svg>
