<svg width="24" height="24" viewBox="0 0 24 24" fill="none" xmlns="http://www.w3.org/2000/svg">
<g transform="translate(3, 2.9996)">
<path d="M0 1.96385C0 0.879246 0.879243 0 1.96384 0H5.89172C6.97632 0 7.85557 0.879248 7.85557 1.96385V5.89144C7.85557 6.97605 6.97632 7.8553 5.89172 7.8553H1.96384C0.879243 7.8553 0 6.97605 0 5.89144V1.96385Z" fill="black"/>
<path d="M10.1445 1.96385C10.1445 0.879246 11.0237 0 12.1083 0H16.0362C17.1208 0 18 0.879248 18 1.96385V5.89144C18 6.97605 17.1208 7.8553 16.0362 7.8553H12.1083C11.0237 7.8553 10.1445 6.97605 10.1445 5.89144V1.96385Z" fill="black"/>
<path d="M10.1445 12.1094C10.1445 11.0248 11.0237 10.1455 12.1083 10.1455H16.0362C17.1208 10.1455 18 11.0248 18 12.1094V16.037C18 17.1216 17.1208 18.0008 16.0362 18.0008H12.1083C11.0237 18.0008 10.1445 17.1216 10.1445 16.0369V12.1094Z" fill="black"/>
<path d="M0 12.1094C0 11.0248 0.879243 10.1455 1.96384 10.1455H5.89172C6.97632 10.1455 7.85557 11.0248 7.85557 12.1094V16.037C7.85557 17.1216 6.97632 18.0008 5.89172 18.0008H1.96384C0.879243 18.0008 0 17.1216 0 16.0369V12.1094Z" fill="black"/>
</g>
</svg>
