<svg width="24" height="24" viewBox="0 0 24 24" fill="none" xmlns="http://www.w3.org/2000/svg">
<svg x="2.00" y="3.50" width="20.00" height="17.00" viewBox="0 0 20 17" fill="none">
<g id="Fill">
<path d="M10.0004 7.0999C8.53684 7.0999 7.35039 8.28635 7.35039 9.7499C7.35039 11.2135 8.53684 12.3999 10.0004 12.3999C11.4639 12.3999 12.6504 11.2135 12.6504 9.7499C12.6504 8.28635 11.4639 7.0999 10.0004 7.0999Z" fill="black"/>
<path fill-rule="evenodd" clip-rule="evenodd" d="M14.5412 2.5L14.077 1.23009C13.8063 0.491265 13.1032 0 12.3164 0H7.71477C6.93536 0 6.23722 0.482178 5.96125 1.2111L5.4725 2.5H3.125C1.39911 2.5 0 3.89911 0 5.625V13.875C0 15.6009 1.39911 17 3.125 17H16.875C18.6009 17 20 15.6009 20 13.875V5.625C20 3.89911 18.6009 2.5 16.875 2.5H14.5412ZM5.65039 9.7499C5.65039 7.34746 7.59795 5.3999 10.0004 5.3999C12.4028 5.3999 14.3504 7.34746 14.3504 9.7499C14.3504 12.1523 12.4028 14.0999 10.0004 14.0999C7.59795 14.0999 5.65039 12.1523 5.65039 9.7499Z" fill="black"/>
</g>
</svg>
</svg>
