<svg width="24" height="24" viewBox="0 0 24 24" fill="none" xmlns="http://www.w3.org/2000/svg">
<g transform="translate(2, 2.2057)">
<path d="M9.11426 0.187833C9.67813 -0.0625948 10.3219 -0.0626273 10.8857 0.187833L18.7041 3.66342C19.4919 4.0136 19.9999 4.79447 20 5.65658V13.932C20 14.7942 19.492 15.5759 18.7041 15.9261L10.8857 19.4007C10.3218 19.6513 9.6782 19.6512 9.11426 19.4007L1.2959 15.9261C0.507986 15.5759 0 14.7942 0 13.932V5.65658C8.22719e-05 4.79444 0.508049 4.01358 1.2959 3.66342L9.11426 0.187833ZM1.9873 5.21615C1.81341 5.29344 1.7013 5.4663 1.70117 5.65658V5.92416L9.15234 9.23568V17.557L9.80566 17.847C9.93022 17.9023 10.0727 17.9024 10.1973 17.847L10.8525 17.556V13.2962L13.2529 12.2288V13.5794C13.253 13.818 13.4987 13.9778 13.7168 13.8812L15.9922 12.8695C16.1507 12.7988 16.2528 12.6417 16.2529 12.4681V10.8958L18.3008 9.98568V8.12533L10.8525 11.4359V9.23568L18.3008 5.92514V5.65658C18.3007 5.4663 18.1885 5.29344 18.0146 5.21615L16.8623 4.70443L10.0029 7.75326L3.1416 4.70346L1.9873 5.21615Z" fill="black"/>
</g>
</svg>
