<svg width="24" height="24" viewBox="0 0 24 24" fill="none" xmlns="http://www.w3.org/2000/svg">
<g transform="translate(3, 3.325)">
<g>
<path fill-rule="evenodd" clip-rule="evenodd" d="M0 3.00824C0 1.34683 1.34683 0 3.00822 0H14.9918C16.6532 0 18.0001 1.34683 18.0001 3.00824V10.0275C18.0001 11.6889 16.6532 13.0357 14.9918 13.0357H3.00822C1.34683 13.0357 0 11.6889 0 10.0275V3.00824ZM3.00822 1.7H14.9918C15.7144 1.7 16.3001 2.28572 16.3001 3.00824V10.0275C16.3001 10.75 15.7144 11.3357 14.9918 11.3357H3.00822C2.28571 11.3357 1.69999 10.75 1.69999 10.0275V3.00824C1.69999 2.28572 2.28571 1.7 3.00822 1.7Z" fill="black"/>
<path d="M5.44333 15.65C4.97389 15.65 4.59333 16.0306 4.59333 16.5C4.59333 16.9694 4.97389 17.35 5.44333 17.35H13.4653C13.9348 17.35 14.3153 16.9694 14.3153 16.5C14.3153 16.0306 13.9348 15.65 13.4653 15.65H5.44333Z" fill="black"/>
</g>
</g>
</svg>
