<svg width="24" height="24" viewBox="0 0 24 24" fill="none" xmlns="http://www.w3.org/2000/svg">
<g transform="translate(4, 3)">
<path fill-rule="evenodd" clip-rule="evenodd" d="M5.15001 0C3.20677 0 2.00648 2.11993 3.00627 3.78624L3.27933 4.24133H3.00001C1.34315 4.24133 0 5.58448 0 7.24134V15C0 16.6568 1.34315 18 3.00001 18H13.0001C14.6569 18 16.0001 16.6568 16.0001 15V7.24133C16.0001 5.58448 14.6569 4.24133 13.0001 4.24133H12.7207L12.9938 3.78624C13.9936 2.11993 12.7933 0 10.8501 0H10.751C9.87284 0 9.05907 0.460746 8.60726 1.21376L8.04926 2.14376C8.03221 2.17217 8.01581 2.20072 8.00004 2.22938C7.98426 2.20072 7.96785 2.17217 7.95081 2.14376L7.3928 1.21376C6.94099 0.460747 6.12722 0 5.24906 0H5.15001ZM5.24906 1.7H5.15001C4.52817 1.7 4.14408 2.37838 4.46401 2.9116L5.02202 3.8416C5.1666 4.08256 5.427 4.23 5.70801 4.23H5.80706C6.4289 4.23 6.81299 3.55162 6.49306 3.0184L5.93506 2.0884C5.79048 1.84744 5.53007 1.7 5.24906 1.7ZM1.70001 15V11.9711L7.15003 11.9711V16.3H3.00001C2.28204 16.3 1.70001 15.718 1.70001 15ZM8.85004 16.3H13.0001C13.718 16.3 14.3001 15.7179 14.3001 15V11.9711L8.85004 11.9711V16.3ZM8.85004 10.2711H14.3001V7.24133C14.3001 6.52336 13.718 5.94133 13.0001 5.94133H8.85004V10.2711ZM7.15003 5.94133H3.00001C2.28204 5.94133 1.70001 6.52336 1.70001 7.24134V10.2711H7.15003V5.94133ZM10.751 1.7H10.8501C11.4719 1.7 11.856 2.37838 11.5361 2.9116L10.978 3.8416C10.8335 4.08256 10.5731 4.23 10.2921 4.23H10.193C9.57116 4.23 9.18707 3.55162 9.50701 3.0184L10.065 2.0884C10.2096 1.84744 10.47 1.7 10.751 1.7Z" fill="black"/>
</g>
</svg>
