<svg width="24" height="24" viewBox="0 0 24 24" fill="none" xmlns="http://www.w3.org/2000/svg">
<g transform="translate(2.5, 2.5)">
<path d="M10.3497 0.85C10.3497 0.380558 9.96909 0 9.49965 0C9.0302 0 8.64964 0.380558 8.64964 0.85V8.6499H0.850003C0.38056 8.6499 0 9.03046 0 9.4999C0 9.96934 0.38056 10.3499 0.850003 10.3499H8.64964V18.15C8.64964 18.6194 9.0302 19 9.49965 19C9.96909 19 10.3497 18.6194 10.3497 18.15V10.3499H18.1501C18.6195 10.3499 19.0001 9.96934 19.0001 9.4999C19.0001 9.03046 18.6195 8.6499 18.1501 8.6499H10.3497V0.85Z" fill="black"/>
</g>
</svg>
