<svg width="24" height="24" viewBox="0 0 24 24" fill="none" xmlns="http://www.w3.org/2000/svg">
<g transform="translate(2.2704, 3.3096)">
<g id="Fill">
<path d="M18.5094 6.25368L13.707 0.267292C13.5932 0.125553 13.4253 0.0374611 13.2439 0.0280178C12.8818 0.00917773 12.5173 0 12.1504 0C8.21404 0 4.53321 1.09039 1.39173 2.98444L18.5094 6.25368ZM10.9664 1.36738C11.97 1.36738 12.7824 1.72044 12.7824 2.15543C12.7824 2.59042 11.969 2.94348 10.9664 2.94348C9.96375 2.94348 9.14936 2.59042 9.14936 2.15543C9.14936 1.72044 9.96277 1.36738 10.9664 1.36738Z" fill="black"/>
<path d="M6.20494 5.90741C6.19714 6.01372 6.1708 6.12295 6.12496 6.23316C5.83432 6.93344 4.78391 7.3021 3.98513 7.00756C3.27315 6.7452 2.86547 6.15319 2.91814 5.54167C2.92594 5.45487 2.94349 5.37099 2.97178 5.29004L0.135568 4.74777C0.0770497 5.74063 0 7.34014 0 8.88503C0 10.4428 0.0548572 11.9885 0.163854 13.5188C0.184614 13.8103 0.399909 14.0502 0.686929 14.105L4.98184 14.9248C5.09587 14.9466 5.19947 14.8525 5.2228 14.7388C5.35837 14.0863 6.26541 13.7235 7.24852 13.9283C8.23066 14.1332 8.91728 14.8286 8.78172 15.481C8.76397 15.5653 8.81084 15.6564 8.89544 15.6726L18.6882 17.543C19.088 17.6193 19.4585 17.3129 19.4585 16.9059V8.43834L6.20494 5.90741ZM17.0212 12.6253C16.7042 13.4924 15.6274 13.8406 14.6112 13.3997C13.589 12.9569 13.0156 11.8841 13.3364 11.0073C13.6573 10.1305 14.7487 9.78914 15.7669 10.2417C16.7793 10.6923 17.3391 11.7583 17.0212 12.6253Z" fill="black"/>
</g>
</g>
</svg>
