<svg width="24" height="24" viewBox="0 0 24 24" fill="none" xmlns="http://www.w3.org/2000/svg">
<g transform="translate(2.0013, 3.831)">
<path fill-rule="evenodd" clip-rule="evenodd" d="M9.56419 1.6168C9.56428 0.183869 11.2587 -0.493818 12.2845 0.407623L19.4483 6.70316C20.1783 7.34463 20.1809 8.4723 19.4536 9.11705L12.2898 15.4681C11.2656 16.3761 9.56428 15.7 9.56419 14.2636V14.2636L9.56399 12.8825C9.33957 12.9256 9.10118 12.9784 8.85004 13.0423L8.59011 13.1112C6.83497 13.5952 5.10135 14.4745 3.43342 15.9075L3.40106 15.9353L3.36609 15.9597C2.63215 16.4721 1.69371 16.4451 0.909076 15.9926L0.88336 15.9778L0.858741 15.9612C-0.116389 15.3042 -0.0987794 14.2097 0.128119 13.5474C1.41804 9.78202 3.6844 7.02104 6.53639 5.14557C7.53402 4.48953 8.53681 3.98833 9.49999 3.62143C9.52147 3.61325 9.54278 3.60519 9.56392 3.59724L9.56419 1.6168V1.6168ZM11.2642 1.77411L11.2638 4.81716L10.5764 5.04125C10.4349 5.08847 10.2773 5.14449 10.1051 5.21008C9.25585 5.53359 8.36351 5.97869 7.47043 6.56598C4.93124 8.23575 2.90332 10.6919 1.73636 14.0983C1.69556 14.2174 1.68979 14.3285 1.70585 14.4045C1.71314 14.4389 1.72414 14.4635 1.73638 14.4822C1.74581 14.4966 1.761 14.5154 1.78832 14.5367C2.05908 14.6824 2.25677 14.6462 2.36815 14.5816C4.21388 13.0062 6.15806 12.0177 8.14255 11.4712L8.15042 11.469L8.4265 11.3959C9.07952 11.2295 9.66999 11.1263 10.1821 11.0704L10.1875 11.0698L11.2637 10.9593L11.2642 14.1055L18.2494 7.91275L11.2642 1.77411Z" fill="black"/>
</g>
</svg>
