<svg width="24" height="24" viewBox="0 0 24 24" fill="none" xmlns="http://www.w3.org/2000/svg">
<g transform="translate(1.9985, 3.1397)">
<g>
<path d="M17.7999 3.85C17.7999 2.66259 16.8374 1.7 15.6499 1.7H3.85C2.66259 1.7 1.7 2.66259 1.7 3.85V13.85C1.7 15.0374 2.66259 16 3.85 16H4.38823C4.85767 16 5.23823 16.3806 5.23823 16.85C5.23823 17.3194 4.85767 17.7 4.38823 17.7H3.85C1.72371 17.7 0 15.9763 0 13.85V3.85C0 1.7237 1.72371 0 3.85 0H15.6499C17.7762 0 19.4999 1.7237 19.4999 3.85V4.09805C19.4999 4.56749 19.1194 4.94805 18.6499 4.94805C18.1805 4.94805 17.7999 4.56749 17.7999 4.09805V3.85Z" fill="black"/>
<path d="M9.67045 12.6975C10.2227 12.6975 10.6705 12.2509 10.6705 11.7C10.6705 11.1491 10.2227 10.7025 9.67045 10.7025C9.11817 10.7025 8.67045 11.1491 8.67045 11.7C8.67045 12.2509 9.11817 12.6975 9.67045 12.6975Z" fill="black"/>
<path d="M12.6705 12.6975C13.2227 12.6975 13.6705 12.2509 13.6705 11.7C13.6705 11.1491 13.2227 10.7025 12.6705 10.7025C12.1182 10.7025 11.6705 11.1491 11.6705 11.7C11.6705 12.2509 12.1182 12.6975 12.6705 12.6975Z" fill="black"/>
<path d="M16.6705 11.7C16.6705 12.2509 16.2227 12.6975 15.6705 12.6975C15.1182 12.6975 14.6705 12.2509 14.6705 11.7C14.6705 11.1491 15.1182 10.7025 15.6705 10.7025C16.2227 10.7025 16.6705 11.1491 16.6705 11.7Z" fill="black"/>
<path fill-rule="evenodd" clip-rule="evenodd" d="M19.4953 11.7001C19.4953 12.7067 19.2133 13.6554 18.715 14.4885L19.8819 16.4333C20.0826 16.7678 20.0299 17.1959 19.7541 17.4717C19.4783 17.7475 19.0502 17.8002 18.7157 17.5995L16.8215 16.463C15.6714 17.2389 14.2321 17.7001 12.6703 17.7001C8.90092 17.7001 5.84526 15.0138 5.84526 11.7001C5.84526 8.38639 8.90092 5.7001 12.6703 5.7001C16.4396 5.7001 19.4953 8.38639 19.4953 11.7001ZM17.7953 11.7001C17.7953 13.8758 15.7131 16.0001 12.6703 16.0001C9.62741 16.0001 7.54526 13.8758 7.54526 11.7001C7.54526 9.52444 9.62741 7.4001 12.6703 7.4001C15.7131 7.4001 17.7953 9.52444 17.7953 11.7001Z" fill="black"/>
</g>
</g>
</svg>
