<svg width="24" height="24" viewBox="0 0 24 24" fill="none" xmlns="http://www.w3.org/2000/svg">
<svg x="2.91" y="2.91" width="18.18" height="18.19" viewBox="0 0 18.1854 18.1872" fill="none">
<g id="Fill">
<path d="M9.90588 1.42053C11.7999 -0.473511 14.8708 -0.473511 16.7648 1.42053C18.6589 3.31457 18.6589 6.38543 16.7648 8.27947L14.5745 10.4698C14.6092 9.74685 14.5247 9.01927 14.3211 8.319L15.5627 7.07739C16.7929 5.84723 16.7929 3.85277 15.5627 2.62261C14.3326 1.39246 12.3381 1.39246 11.108 2.62261L7.92598 5.80459C6.69583 7.03475 6.69583 9.02921 7.92598 10.2594C8.0464 10.3798 8.17414 10.4884 8.30776 10.5852L7.09576 11.7972C6.96752 11.6929 6.84337 11.5809 6.7239 11.4614C4.82986 9.56741 4.82986 6.49656 6.7239 4.60251L9.90588 1.42053Z" fill="black"/>
<path d="M8.27947 16.7667C6.38543 18.6607 3.31457 18.6607 1.42053 16.7667C-0.47351 14.8726 -0.473511 11.8018 1.42053 9.90774L3.61109 7.71718C3.57646 8.44006 3.66097 9.16759 3.86463 9.8678L2.62261 11.1098C1.39246 12.34 1.39246 14.3344 2.62261 15.5646C3.85277 16.7947 5.84723 16.7947 7.07739 15.5646L10.2594 12.3826C11.4895 11.1525 11.4895 9.15799 10.2594 7.92784C10.1389 7.80733 10.011 7.69863 9.87727 7.60173L11.0893 6.38971C11.2176 6.49418 11.3419 6.60619 11.4614 6.72576C13.3555 8.6198 13.3555 11.6907 11.4614 13.5847L8.27947 16.7667Z" fill="black"/>
</g>
</svg>
</svg>
