<svg width="24" height="24" viewBox="0 0 24 24" fill="none" xmlns="http://www.w3.org/2000/svg">
<g transform="translate(4.1495, 4.15)">
<path d="M15.4511 1.45104C15.783 1.1191 15.783 0.580908 15.4511 0.248961C15.1191 -0.0829854 14.5809 -0.0829874 14.249 0.248957L7.85046 6.64748L1.45192 0.248957C1.11997 -0.0829874 0.581784 -0.0829854 0.249841 0.248962C-0.0821019 0.580908 -0.0820999 1.1191 0.249845 1.45104L6.64838 7.84956L0.248961 14.249C-0.0829851 14.5809 -0.0829871 15.1191 0.248956 15.451C0.580899 15.783 1.11909 15.783 1.45103 15.451L7.85046 9.05163L14.2499 15.451C14.5818 15.783 15.12 15.783 15.452 15.451C15.7839 15.1191 15.7839 14.5809 15.452 14.249L9.05254 7.84956L15.4511 1.45104Z" fill="black"/>
</g>
</svg>
