<svg width="24" height="24" viewBox="0 0 24 24" fill="none" xmlns="http://www.w3.org/2000/svg">
<g transform="translate(3, 3.5001)">
<g>
<path d="M1.79166 0.995139C2.11032 0.383568 2.74269 0 3.43229 0H14.5676C15.2572 0 15.8896 0.383567 16.2083 0.995139L17.7151 3.88711C17.9022 4.24619 17.9999 4.64512 17.9999 5.05003V7.3998C17.9999 7.45017 17.9979 7.50006 17.9939 7.54941H13.2202C13.1526 7.54941 13.0934 7.50421 13.0755 7.43901L12.783 6.37034C12.6819 6.0009 12.3462 5.74473 11.9632 5.74473C11.5802 5.74473 11.2445 6.0009 11.1433 6.37034L10.8508 7.43901C10.833 7.50421 10.7738 7.54941 10.7062 7.54941H7.29296C7.22536 7.54941 7.16612 7.50421 7.14828 7.43901L6.85579 6.37034C6.75467 6.0009 6.41896 5.74473 6.03594 5.74473C5.65292 5.74473 5.31721 6.0009 5.2161 6.37034L4.92361 7.43901C4.90576 7.50421 4.84652 7.54941 4.77893 7.54941H0.00596186C0.00201263 7.50006 0 7.45017 0 7.3998V5.05003C0 4.64512 0.0976972 4.2462 0.284798 3.88711L1.79166 0.995139Z" fill="black"/>
<path fill-rule="evenodd" clip-rule="evenodd" d="M13.2202 9.24941H16.1883C16.1821 9.24954 16.1758 9.24964 16.1695 9.2497C16.163 9.24977 16.1565 9.24981 16.1499 9.24981H16.1003V15.1498C16.1003 16.1715 15.272 16.9998 14.2503 16.9998H3.75037C2.72865 16.9998 1.90038 16.1715 1.90038 15.1498V9.24981H1.84999C1.83715 9.24981 1.82435 9.24967 1.81157 9.24941H4.77893C5.25761 9.24941 5.70234 9.06558 6.03594 8.7568C6.36955 9.06558 6.81428 9.24941 7.29296 9.24941H10.7062C11.1849 9.24941 11.6296 9.06558 11.9632 8.7568C12.2968 9.06558 12.7415 9.24941 13.2202 9.24941ZM7.49996 11.7764C7.49996 11.2241 7.94768 10.7764 8.49996 10.7764H9.49995C10.0522 10.7764 10.4999 11.2241 10.4999 11.7764V12.7764C10.4999 13.3287 10.0522 13.7764 9.49995 13.7764H8.49996C7.94768 13.7764 7.49996 13.3287 7.49996 12.7764V11.7764Z" fill="black"/>
</g>
</g>
</svg>
