<svg width="24" height="24" viewBox="0 0 24 24" fill="none" xmlns="http://www.w3.org/2000/svg">
<g transform="translate(2.4581, 2.4582)">
<g>
<path d="M9.54185 1.7C7.31257 1.7 5.30041 2.62962 3.87178 4.12464H5.90141C6.37086 4.12464 6.75141 4.5052 6.75141 4.97464C6.75141 5.44408 6.37086 5.82464 5.90141 5.82464H1.90664C1.4372 5.82464 1.05664 5.44408 1.05664 4.97464V0.981348C1.05664 0.511906 1.4372 0.131348 1.90664 0.131348C2.37609 0.131348 2.75664 0.511906 2.75664 0.981348V2.83312C4.48556 1.08478 6.88702 0 9.54185 0C14.8117 0 19.0837 4.27199 19.0837 9.54177C19.0837 14.8116 14.8117 19.0835 9.54185 19.0835C4.27204 19.0835 0 14.8116 0 9.54177C0 9.07233 0.380558 8.69177 0.850001 8.69177C1.31944 8.69177 1.7 9.07233 1.7 9.54177C1.7 13.8727 5.21091 17.3835 9.54185 17.3835C13.8728 17.3835 17.3837 13.8727 17.3837 9.54177C17.3837 5.21089 13.8728 1.7 9.54185 1.7Z" fill="black"/>
<path d="M10.7815 5.79824C10.7815 5.3288 10.401 4.94824 9.93151 4.94824C9.46207 4.94824 9.08151 5.3288 9.08151 5.79824V9.9232L6.90242 11.9218C6.55646 12.2391 6.53323 12.7768 6.85055 13.1228C7.16786 13.4687 7.70555 13.492 8.05151 13.1747L10.7815 10.6707V5.79824Z" fill="black"/>
</g>
</g>
</svg>
