<svg width="24" height="24" viewBox="0 0 24 24" fill="none" xmlns="http://www.w3.org/2000/svg">
<g transform="translate(1.55, 3.1994)">
<path fill-rule="evenodd" clip-rule="evenodd" d="M4.56472 2.6C3.47962 2.6 2.59999 3.47964 2.59999 4.56471V13.0365C2.59999 14.1105 3.4835 15.0013 4.56473 15.0013H11.9824C13.0675 15.0013 13.9472 14.1216 13.9472 13.0365C13.9472 12.3186 14.5292 11.7365 15.2472 11.7365C15.6458 11.7365 16.0025 11.916 16.241 12.1984L17.7701 13.3299C17.8761 13.4084 17.9943 13.4164 18.114 13.3556C18.2365 13.2934 18.3001 13.1895 18.3001 13.0627V4.53851C18.3001 4.26565 17.9894 4.10901 17.7701 4.27135L16.241 5.40281C16.0025 5.68529 15.6458 5.86471 15.2472 5.86471C14.5292 5.86471 13.9472 5.28268 13.9472 4.56471C13.9472 3.47964 13.0675 2.6 11.9824 2.6H4.56472ZM15.9809 2.36088C15.2034 0.953294 13.7042 0 11.9824 0H4.56472C2.04371 0 0 2.04368 0 4.56471V13.0365C0 15.5387 2.03983 17.6012 4.56473 17.6012H11.9824C13.7042 17.6012 15.2034 16.648 15.9809 15.2404L16.2235 15.4199C18.1679 16.8587 20.9001 15.4443 20.9001 13.0627V4.53851C20.9001 2.13082 18.159 0.7492 16.2235 2.18131L15.9809 2.36088Z" fill="black"/>
</g>
</svg>
