<svg width="24" height="24" viewBox="0 0 24 24" fill="none" xmlns="http://www.w3.org/2000/svg">
<g transform="translate(2.6696, 2.45)">
<g>
<path d="M11.6082 7.46826C12.6641 7.46826 13.52 6.61233 13.52 5.55649C13.52 4.50065 12.6641 3.64473 11.6082 3.64473C10.5524 3.64473 9.69648 4.50065 9.69648 5.55649C9.69648 6.61233 10.5524 7.46826 11.6082 7.46826Z" fill="black"/>
<path fill-rule="evenodd" clip-rule="evenodd" d="M11.7232 0C7.89171 0 4.78565 3.10608 4.78565 6.93762C4.78565 7.8096 4.94709 8.64585 5.24206 9.41664L0.852535 13.8062C-0.284178 14.9429 -0.284179 16.7859 0.852535 17.9226C1.95654 19.0266 3.72676 19.0584 4.8691 18.0179L5.57049 18.7193C6.07817 19.227 6.90128 19.227 7.40897 18.7193C7.91665 18.2116 7.91665 17.3885 7.40897 16.8808L6.70985 16.1817L7.1207 15.7708L7.81987 16.47C8.32755 16.9777 9.15067 16.9777 9.65835 16.47C10.166 15.9623 10.166 15.1392 9.65835 14.6315L8.95917 13.9324L9.41125 13.4803C10.1354 13.7362 10.914 13.8752 11.7232 13.8752C15.5548 13.8752 18.6608 10.7692 18.6608 6.93762C18.6608 3.10608 15.5548 0 11.7232 0ZM7.38565 6.93762C7.38565 4.54201 9.32766 2.6 11.7232 2.6C14.1188 2.6 16.0608 4.54201 16.0608 6.93762C16.0608 9.33322 14.1188 11.2752 11.7232 11.2752C10.9971 11.2752 10.3162 11.0978 9.71788 10.7851C9.21435 10.522 8.59826 10.6163 8.19652 11.0181L3.13047 16.0841C3.00912 16.2055 2.81237 16.2055 2.69102 16.0841C2.56966 15.9628 2.56966 15.766 2.69102 15.6447L7.72312 10.6125C8.13505 10.2006 8.22265 9.56492 7.93748 9.05693C7.58635 8.43144 7.38565 7.70993 7.38565 6.93762Z" fill="black"/>
</g>
</g>
</svg>
