<svg width="24" height="24" viewBox="0 0 24 24" fill="none" xmlns="http://www.w3.org/2000/svg">
<g transform="translate(2, 2)">
<g>
<path d="M13.5718 10.5771C13.9844 10.339 13.9844 9.74355 13.5718 9.5054L8.42809 6.53581C8.01559 6.29767 7.49998 6.59537 7.49998 7.07167V13.0108C7.49998 13.4871 8.01559 13.7848 8.42809 13.5467L13.5718 10.5771Z" fill="black"/>
<path fill-rule="evenodd" clip-rule="evenodd" d="M20.0001 10C20.0001 15.5228 15.5229 20 10.0001 20C4.47718 20 0 15.5228 0 10C0 4.47715 4.47718 0 10.0001 0C15.5229 0 20.0001 4.47715 20.0001 10ZM18.3001 10C18.3001 14.584 14.5841 18.3 10.0001 18.3C5.41605 18.3 1.7 14.584 1.7 10C1.7 5.41605 5.41605 1.7 10.0001 1.7C14.5841 1.7 18.3001 5.41605 18.3001 10Z" fill="black"/>
</g>
</g>
</svg>
