<svg width="24" height="24" viewBox="0 0 24 24" fill="none" xmlns="http://www.w3.org/2000/svg">
<g transform="translate(2.4, 3.7128)">
<path id="Fill" fill-rule="evenodd" clip-rule="evenodd" d="M9.62487 1.61833C8.38441 0.235088 6.32566 -0.231209 4.53775 0.104224C3.37428 0.322502 2.23691 0.884335 1.38593 1.82879C0.526375 2.78277 0 4.08254 0 5.68943C0 8.77952 2.29011 12.4828 8.07574 16.1266C8.26785 16.2476 8.86693 16.5701 9.59671 16.573C10.3242 16.5758 10.8965 16.2696 11.078 16.1557C16.8981 12.5022 19.2001 8.78763 19.2001 5.68943C19.2001 2.41994 17.0371 0.559232 14.6958 0.108841C12.9133 -0.234077 10.8626 0.228838 9.62487 1.61833ZM2.64888 2.96675C2.08942 3.58767 1.69999 4.47397 1.69999 5.68943C1.69999 7.90402 3.37909 11.1595 8.98169 14.6881C8.99944 14.6993 9.08715 14.7498 9.21418 14.7959C9.34133 14.842 9.47733 14.8725 9.60336 14.873C9.73309 14.8735 9.86326 14.8448 9.97746 14.8046C10.0331 14.785 10.0804 14.7643 10.1163 14.7467C10.1341 14.738 10.1485 14.7305 10.1589 14.7247C10.1696 14.7188 10.1747 14.7155 10.1742 14.7159C15.8119 11.1769 17.5001 7.90994 17.5001 5.68943C17.5001 3.3467 16.0306 2.09677 14.3747 1.77823C12.6308 1.44276 10.9508 2.16144 10.419 3.53052C10.2921 3.85739 9.97742 4.07274 9.62676 4.07277C9.2761 4.07279 8.96142 3.85748 8.83442 3.53063C8.30733 2.17413 6.61477 1.44421 4.85121 1.77507C4.00179 1.93443 3.21692 2.33632 2.64888 2.96675Z" fill="black"/>
</g>
</svg>
