<svg width="24" height="24" viewBox="0 0 24 24" fill="none" xmlns="http://www.w3.org/2000/svg">
<g transform="translate(2.999, 3)">
<g>
<path fill-rule="evenodd" clip-rule="evenodd" d="M8.4078 0C7.35524 0 6.50197 0.853267 6.50197 1.90582V16.0942C6.50197 17.1467 7.35524 18 8.4078 18H9.59616C10.6487 18 11.502 17.1467 11.502 16.0942V1.90582C11.502 0.853266 10.6487 0 9.59616 0H8.4078ZM9.59616 1.7H8.4078C8.29413 1.7 8.20198 1.79215 8.20198 1.90582V16.0942C8.20198 16.2078 8.29413 16.3 8.4078 16.3H9.59616C9.70983 16.3 9.80198 16.2078 9.80198 16.0942V1.90582C9.80198 1.79215 9.70983 1.7 9.59616 1.7Z" fill="black"/>
<path fill-rule="evenodd" clip-rule="evenodd" d="M1.90583 6.5C0.853268 6.5 0 7.35327 0 8.40582V16.0942C0 17.1467 0.853269 18 1.90583 18H3.09409C4.14665 18 4.99991 17.1467 4.99991 16.0942V8.40582C4.99991 7.35327 4.14665 6.5 3.09409 6.5H1.90583ZM3.09409 8.2H1.90583C1.79215 8.2 1.70001 8.29215 1.70001 8.40582V16.0942C1.70001 16.2078 1.79216 16.3 1.90583 16.3H3.09409C3.20776 16.3 3.29991 16.2079 3.29991 16.0942V8.40582C3.29991 8.29215 3.20776 8.2 3.09409 8.2Z" fill="black"/>
<path fill-rule="evenodd" clip-rule="evenodd" d="M13.002 10.4058C13.002 9.35327 13.8553 8.5 14.9078 8.5H16.0962C17.1487 8.5 18.002 9.35327 18.002 10.4058V16.0942C18.002 17.1467 17.1487 18 16.0962 18H14.9078C13.8553 18 13.002 17.1467 13.002 16.0942V10.4058ZM14.9078 10.2H16.0962C16.2099 10.2 16.302 10.2921 16.302 10.4058V16.0942C16.302 16.2078 16.2099 16.3 16.0962 16.3H14.9078C14.7941 16.3 14.702 16.2078 14.702 16.0942V10.4058C14.702 10.2921 14.7941 10.2 14.9078 10.2Z" fill="black"/>
</g>
</g>
</svg>
