<svg width="24" height="24" viewBox="0 0 24 24" fill="none" xmlns="http://www.w3.org/2000/svg">
<svg x="2.00" y="3.69" width="20.00" height="16.63" viewBox="0 0 19.9973 16.6296" fill="none">
<g id="Fill">
<path d="M7.91927 9.80229C8.38872 9.80229 8.76927 9.42173 8.76927 8.95228V4.70231C8.76927 4.23287 8.38872 3.85231 7.91928 3.85231C7.44983 3.85231 7.06928 4.23287 7.06928 4.70231L7.06927 8.95228C7.06927 9.42173 7.44983 9.80229 7.91927 9.80229Z" fill="black"/>
<path d="M8.76921 11.9273C8.76921 12.3967 8.38865 12.7773 7.91921 12.7773C7.44978 12.7773 7.06921 12.3967 7.06921 11.9273C7.06921 11.4578 7.44978 11.0773 7.91921 11.0773C8.38865 11.0773 8.76921 11.4578 8.76921 11.9273Z" fill="black"/>
<path fill-rule="evenodd" clip-rule="evenodd" d="M0 4.52517C0 2.02599 2.02599 0 4.52517 0H11.3134C13.5104 0 15.3417 1.56572 15.7524 3.64222L18.8851 2.6265C19.1439 2.54261 19.4271 2.5876 19.6471 2.74755C19.8671 2.90749 19.9973 3.16306 19.9973 3.43506V13.2484C19.9973 13.5204 19.8671 13.776 19.6471 13.9359C19.4271 14.0959 19.1439 14.1409 18.8851 14.057L15.7421 13.0379C15.3119 15.0892 13.4925 16.6296 11.3134 16.6296H4.52517C2.02599 16.6296 0 14.6036 0 12.1044V4.52517ZM4.52517 1.7H11.3134C12.8737 1.7 14.1385 2.96487 14.1385 4.52517V12.1044C14.1385 13.6647 12.8737 14.9296 11.3134 14.9296H4.52517C2.96487 14.9296 1.7 13.6647 1.7 12.1044V4.52517C1.7 2.96487 2.96487 1.7 4.52517 1.7ZM15.8701 11.2923V5.39121L18.2973 4.60422V12.0793L15.8701 11.2923Z" fill="black"/>
</g>
</svg>
</svg>
