<svg width="24" height="24" viewBox="0 0 24 24" fill="none" xmlns="http://www.w3.org/2000/svg">
<svg x="3.15" y="1.15" width="17.70" height="21.70" viewBox="0 0 17.7 21.7" fill="none">
<g id="Fill">
<path d="M1.7 4.84552C1.7 3.10706 3.10906 1.7 4.85 1.7H10.85C11.3194 1.7 11.7 1.31944 11.7 0.85C11.7 0.380558 11.3194 0 10.85 0H4.85C2.17266 0 0 2.1657 0 4.84552V16.8504C0 19.5291 2.17153 21.7 4.85 21.7H10.85C11.3194 21.7 11.7 21.3194 11.7 20.85C11.7 20.3806 11.3194 20 10.85 20H4.85C3.11019 20 1.7 18.59 1.7 16.8504V4.84552Z" fill="black"/>
<path d="M14.451 7.24896C14.1191 6.91701 13.5809 6.91701 13.249 7.24896C12.917 7.5809 12.917 8.11909 13.249 8.45104L14.7979 10H8.85C8.38056 10 8 10.3806 8 10.85C8 11.3194 8.38056 11.7 8.85 11.7H14.7979L13.249 13.249C12.917 13.5809 12.917 14.1191 13.249 14.451C13.5809 14.783 14.1191 14.783 14.451 14.451L17.451 11.451C17.783 11.1191 17.783 10.5809 17.451 10.249L14.451 7.24896Z" fill="black"/>
</g>
</svg>
</svg>
