<svg width="76" height="24" viewBox="0 0 76 24" fill="none" xmlns="http://www.w3.org/2000/svg">
<path d="M19.9465 4.0861L17.2149 19.3844H22.691L25.4183 4.0861H19.9465Z" fill="white"/>
<path d="M27.3071 4.0861L26.5766 8.17648H33.25L24.5755 19.3844H30.7993L35.5234 13.2788L34.4342 19.3844H39.906L41.2718 11.7374H36.7163L42.6376 4.0861H27.3071Z" fill="white"/>
<path d="M18.0578 4.0861H11.8383L15.002 0H8.78252L2.86123 7.64703H9.08507L0 19.3844H6.22383L10.9479 13.2788L9.85872 19.3844H15.3305L16.6963 11.7374H12.1408L18.0578 4.0861Z" fill="white"/>
<path d="M44.5263 4.0861L41.7948 19.3844H47.2665L49.9981 4.0861H44.5263Z" fill="white"/>
<path d="M51.8825 4.0861L51.1564 8.17648H57.7909L49.1553 19.3844H55.3748L60.0427 13.3257L58.9622 19.3844H64.4383L65.804 11.7374H61.2702L67.1655 4.0861H51.8825Z" fill="white"/>
<path d="M72.4601 15.2941L74.4612 4.0861H68.9894L66.2579 19.3844H69.7977L69.0672 23.4706H74.5433L75.9999 15.2941H72.4601Z" fill="white"/>
</svg>
