<svg width="14" height="11" viewBox="0 0 14 11" fill="none" xmlns="http://www.w3.org/2000/svg">
<path fill-rule="evenodd" clip-rule="evenodd" d="M7 0C7.35142 0 7.63667 0.285306 7.63672 0.636719V2.5459H9.86328C12.1476 2.5459 13.9999 4.39731 14 6.68164C14 8.96609 12.1477 10.8184 9.86328 10.8184H4.13672C1.85227 10.8184 0 8.96609 0 6.68164C0.000143929 4.39731 1.85236 2.5459 4.13672 2.5459H6.36328V0.636719C6.36333 0.285306 6.64858 0 7 0ZM9.43066 7.18359C9.04465 7.18384 8.73188 7.49716 8.73145 7.88281C8.73145 8.26883 9.04438 8.58276 9.43066 8.58301C9.8165 8.58284 10.1309 8.26903 10.1309 7.88281C10.1304 7.49701 9.8164 7.18376 9.43066 7.18359ZM4.31543 4.76953C4.19424 4.76963 4.09302 4.84585 4.09277 4.9668V6.10352H2.98145C2.8605 6.10352 2.75907 6.20495 2.75879 6.32617V6.77148C2.75902 6.89274 2.86047 6.99316 2.98145 6.99316H4.09277V8.10547C4.09277 8.2265 4.19409 8.328 4.31543 8.32812H4.76074C4.88177 8.32782 4.9834 8.22639 4.9834 8.10547V6.99316H6.09473C6.2159 6.993 6.31716 6.89264 6.31738 6.77148V6.32617C6.31711 6.20505 6.21587 6.10368 6.09473 6.10352H4.9834V4.9668C4.98316 4.84596 4.88163 4.76976 4.76074 4.76953H4.31543ZM8.09668 5.84961C7.71068 5.84961 7.3977 6.16273 7.39746 6.54883C7.39762 6.93498 7.71049 7.24805 8.09668 7.24805C8.48298 7.24783 8.79574 6.93467 8.7959 6.54883C8.79566 6.16286 8.48275 5.84983 8.09668 5.84961ZM10.7656 5.84961C10.3794 5.84961 10.0666 6.16281 10.0664 6.54883C10.0666 6.9349 10.3793 7.24805 10.7656 7.24805C11.1517 7.24785 11.4647 6.93479 11.4648 6.54883C11.4646 6.16279 11.1516 5.84981 10.7656 5.84961ZM9.43066 4.51465C9.0446 4.5149 8.73186 4.82822 8.73145 5.21387C8.73145 5.59979 9.04439 5.91284 9.43066 5.91309C9.81649 5.91292 10.1309 5.59998 10.1309 5.21387C10.1304 4.82807 9.81645 4.51481 9.43066 4.51465Z" fill="#00E693"/>
</svg>
